<mxfile host="65bd71144e" pages="3">
    <diagram id="JVMoA5kRDxSzauJiIp0_" name="Concepto ">
        <mxGraphModel dx="1430" dy="913" grid="1" gridSize="10" guides="1" tooltips="1" connect="1" arrows="1" fold="1" page="1" pageScale="1" pageWidth="827" pageHeight="1169" background="#ffffff" math="0" shadow="1">
            <root>
                <mxCell id="0"/>
                <mxCell id="1" parent="0"/>
                <mxCell id="6" value="Linux" style="shape=ext;double=1;whiteSpace=wrap;html=1;aspect=fixed;verticalAlign=top;fillColor=#dae8fc;gradientColor=#7ea6e0;strokeColor=#6c8ebf;fontColor=#262626;" parent="1" vertex="1">
                    <mxGeometry x="100" y="310" width="230" height="230" as="geometry"/>
                </mxCell>
                <mxCell id="2" value="Internet&lt;br&gt;" style="ellipse;shape=cloud;whiteSpace=wrap;html=1;" parent="1" vertex="1">
                    <mxGeometry x="400" y="380" width="230" height="150" as="geometry"/>
                </mxCell>
                <mxCell id="4" value="MongoDB" style="shape=cylinder3;whiteSpace=wrap;html=1;boundedLbl=1;backgroundOutline=1;size=15;fillColor=#d5e8d4;gradientColor=#97d077;strokeColor=#82b366;" parent="1" vertex="1">
                    <mxGeometry x="160" y="140" width="60" height="80" as="geometry"/>
                </mxCell>
                <mxCell id="5" value="" style="shape=image;html=1;verticalLabelPosition=bottom;verticalAlign=top;imageAspect=1;aspect=fixed;image=img/clipart/Gear_128x128.png;" parent="1" vertex="1">
                    <mxGeometry x="150" y="410" width="52" height="61" as="geometry"/>
                </mxCell>
                <mxCell id="7" value="" style="endArrow=classic;startArrow=classic;html=1;exitX=1;exitY=0.5;exitDx=0;exitDy=0;entryX=0.07;entryY=0.4;entryDx=0;entryDy=0;entryPerimeter=0;spacing=5;jumpSize=6;strokeWidth=3;fillColor=#0050ef;strokeColor=#001DBC;" parent="1" source="5" target="2" edge="1">
                    <mxGeometry width="50" height="50" relative="1" as="geometry">
                        <mxPoint x="390" y="370" as="sourcePoint"/>
                        <mxPoint x="490" y="380" as="targetPoint"/>
                    </mxGeometry>
                </mxCell>
                <mxCell id="8" value="SMN" style="shape=document;whiteSpace=wrap;html=1;boundedLbl=1;fillColor=#e6d0de;gradientColor=#d5739d;strokeColor=#996185;fontColor=#FF1010;verticalAlign=top;" parent="1" vertex="1">
                    <mxGeometry x="680" y="270" width="120" height="80" as="geometry"/>
                </mxCell>
                <mxCell id="10" value="" style="endArrow=classic;startArrow=classic;html=1;exitX=1;exitY=0.5;exitDx=0;exitDy=0;spacing=5;jumpSize=6;strokeWidth=3;fillColor=#0050ef;strokeColor=#001DBC;edgeStyle=orthogonalEdgeStyle;curved=1;" parent="1" target="8" edge="1">
                    <mxGeometry width="50" height="50" relative="1" as="geometry">
                        <mxPoint x="600" y="455" as="sourcePoint"/>
                        <mxPoint x="814.0999999999999" y="454.5" as="targetPoint"/>
                    </mxGeometry>
                </mxCell>
                <mxCell id="11" value="" style="endArrow=classic;startArrow=classic;html=1;entryX=0.34;entryY=0.983;entryDx=0;entryDy=0;entryPerimeter=0;spacing=5;jumpSize=6;strokeWidth=3;fillColor=#0050ef;strokeColor=#001DBC;" parent="1" source="5" target="4" edge="1">
                    <mxGeometry width="50" height="50" relative="1" as="geometry">
                        <mxPoint x="180" y="400.5" as="sourcePoint"/>
                        <mxPoint x="394.0999999999999" y="400" as="targetPoint"/>
                    </mxGeometry>
                </mxCell>
                <mxCell id="18" value="" style="endArrow=classic;startArrow=classic;html=1;exitX=1;exitY=0.5;exitDx=0;exitDy=0;spacing=5;jumpSize=6;strokeWidth=3;fillColor=#0050ef;strokeColor=#001DBC;edgeStyle=orthogonalEdgeStyle;curved=1;" parent="1" target="17" edge="1">
                    <mxGeometry width="50" height="50" relative="1" as="geometry">
                        <mxPoint x="170" y="471.5" as="sourcePoint"/>
                        <mxPoint x="384.1" y="471" as="targetPoint"/>
                        <Array as="points">
                            <mxPoint x="170" y="630"/>
                        </Array>
                    </mxGeometry>
                </mxCell>
                <mxCell id="19" value="" style="group;" parent="1" vertex="1" connectable="0">
                    <mxGeometry x="280" y="577.5" width="210" height="132.5" as="geometry"/>
                </mxCell>
                <mxCell id="17" value="Folder" style="shape=cube;whiteSpace=wrap;html=1;boundedLbl=1;backgroundOutline=1;darkOpacity=0.05;darkOpacity2=0.1;fillColor=#f5f5f5;gradientColor=#b3b3b3;strokeColor=#666666;verticalAlign=top;fontColor=#000000;" parent="19" vertex="1">
                    <mxGeometry width="210" height="132.5" as="geometry"/>
                </mxCell>
                <mxCell id="12" value="SMN" style="shape=document;whiteSpace=wrap;html=1;boundedLbl=1;fillColor=#e6d0de;gradientColor=#d5739d;strokeColor=#996185;fontColor=#FF1010;verticalAlign=top;" parent="19" vertex="1">
                    <mxGeometry x="55" y="42.5" width="60" height="40" as="geometry"/>
                </mxCell>
                <mxCell id="13" value="SMN" style="shape=document;whiteSpace=wrap;html=1;boundedLbl=1;fillColor=#e6d0de;gradientColor=#d5739d;strokeColor=#996185;fontColor=#FF1010;verticalAlign=top;" parent="19" vertex="1">
                    <mxGeometry x="65" y="52.5" width="60" height="40" as="geometry"/>
                </mxCell>
                <mxCell id="14" value="SMN" style="shape=document;whiteSpace=wrap;html=1;boundedLbl=1;fillColor=#e6d0de;gradientColor=#d5739d;strokeColor=#996185;fontColor=#FF1010;verticalAlign=top;" parent="19" vertex="1">
                    <mxGeometry x="75" y="62.5" width="60" height="40" as="geometry"/>
                </mxCell>
                <mxCell id="15" value="SMN" style="shape=document;whiteSpace=wrap;html=1;boundedLbl=1;fillColor=#e6d0de;gradientColor=#d5739d;strokeColor=#996185;fontColor=#FF1010;verticalAlign=top;" parent="19" vertex="1">
                    <mxGeometry x="85" y="72.5" width="60" height="40" as="geometry"/>
                </mxCell>
                <mxCell id="16" value="SMN" style="shape=document;whiteSpace=wrap;html=1;boundedLbl=1;fillColor=#e6d0de;gradientColor=#d5739d;strokeColor=#996185;fontColor=#FF1010;verticalAlign=top;" parent="19" vertex="1">
                    <mxGeometry x="95" y="82.5" width="60" height="40" as="geometry"/>
                </mxCell>
            </root>
        </mxGraphModel>
    </diagram>
    <diagram id="oqiwBdRDlt4CVxIFWdgx" name="Page-2">
        <mxGraphModel dx="681" dy="435" grid="1" gridSize="10" guides="1" tooltips="1" connect="1" arrows="1" fold="1" page="1" pageScale="1" pageWidth="827" pageHeight="1169" background="none" math="0" shadow="1">
            <root>
                <mxCell id="0"/>
                <mxCell id="1" parent="0"/>
                <mxCell id="Jf1t9MGoGxzgq5fJhCwT-12" style="edgeStyle=entityRelationEdgeStyle;rounded=0;orthogonalLoop=1;jettySize=auto;html=1;entryX=0;entryY=0.25;entryDx=0;entryDy=0;fontColor=#000000;" parent="1" source="zQTQUMqrnIkQQQ9QgMsF-4" target="zQTQUMqrnIkQQQ9QgMsF-27" edge="1">
                    <mxGeometry relative="1" as="geometry"/>
                </mxCell>
                <mxCell id="zQTQUMqrnIkQQQ9QgMsF-4" value="&amp;lt;&amp;lt;keyword&amp;gt;&amp;gt;&lt;br&gt;&lt;b&gt;WeatherCmd&lt;/b&gt;" style="swimlane;fontStyle=0;align=center;verticalAlign=top;childLayout=stackLayout;horizontal=1;startSize=55;horizontalStack=0;resizeParent=1;resizeParentMax=0;resizeLast=0;collapsible=0;marginBottom=0;html=1;" parent="1" vertex="1">
                    <mxGeometry x="20" y="150" width="140" height="183" as="geometry"/>
                </mxCell>
                <mxCell id="zQTQUMqrnIkQQQ9QgMsF-5" value="attributes" style="text;html=1;strokeColor=none;fillColor=none;align=center;verticalAlign=middle;spacingLeft=4;spacingRight=4;overflow=hidden;rotatable=0;points=[[0,0.5],[1,0.5]];portConstraint=eastwest;" parent="zQTQUMqrnIkQQQ9QgMsF-4" vertex="1">
                    <mxGeometry y="55" width="140" height="20" as="geometry"/>
                </mxCell>
                <mxCell id="zQTQUMqrnIkQQQ9QgMsF-6" value="ProcessData" style="text;html=1;strokeColor=none;fillColor=none;align=left;verticalAlign=middle;spacingLeft=4;spacingRight=4;overflow=hidden;rotatable=0;points=[[0,0.5],[1,0.5]];portConstraint=eastwest;" parent="zQTQUMqrnIkQQQ9QgMsF-4" vertex="1">
                    <mxGeometry y="75" width="140" height="20" as="geometry"/>
                </mxCell>
                <mxCell id="zQTQUMqrnIkQQQ9QgMsF-7" value="DbMongoDB" style="text;html=1;strokeColor=none;fillColor=none;align=left;verticalAlign=middle;spacingLeft=4;spacingRight=4;overflow=hidden;rotatable=0;points=[[0,0.5],[1,0.5]];portConstraint=eastwest;" parent="zQTQUMqrnIkQQQ9QgMsF-4" vertex="1">
                    <mxGeometry y="95" width="140" height="20" as="geometry"/>
                </mxCell>
                <mxCell id="zQTQUMqrnIkQQQ9QgMsF-8" value="..." style="text;html=1;strokeColor=none;fillColor=none;align=left;verticalAlign=middle;spacingLeft=4;spacingRight=4;overflow=hidden;rotatable=0;points=[[0,0.5],[1,0.5]];portConstraint=eastwest;" parent="zQTQUMqrnIkQQQ9QgMsF-4" vertex="1">
                    <mxGeometry y="115" width="140" height="20" as="geometry"/>
                </mxCell>
                <mxCell id="zQTQUMqrnIkQQQ9QgMsF-9" value="" style="line;strokeWidth=1;fillColor=none;align=left;verticalAlign=middle;spacingTop=-1;spacingLeft=3;spacingRight=3;rotatable=0;labelPosition=right;points=[];portConstraint=eastwest;" parent="zQTQUMqrnIkQQQ9QgMsF-4" vertex="1">
                    <mxGeometry y="135" width="140" height="8" as="geometry"/>
                </mxCell>
                <mxCell id="zQTQUMqrnIkQQQ9QgMsF-10" value="operations" style="text;html=1;strokeColor=none;fillColor=none;align=center;verticalAlign=middle;spacingLeft=4;spacingRight=4;overflow=hidden;rotatable=0;points=[[0,0.5],[1,0.5]];portConstraint=eastwest;" parent="zQTQUMqrnIkQQQ9QgMsF-4" vertex="1">
                    <mxGeometry y="143" width="140" height="20" as="geometry"/>
                </mxCell>
                <mxCell id="zQTQUMqrnIkQQQ9QgMsF-11" value="procesar_info" style="text;html=1;strokeColor=none;fillColor=none;align=left;verticalAlign=middle;spacingLeft=4;spacingRight=4;overflow=hidden;rotatable=0;points=[[0,0.5],[1,0.5]];portConstraint=eastwest;" parent="zQTQUMqrnIkQQQ9QgMsF-4" vertex="1">
                    <mxGeometry y="163" width="140" height="20" as="geometry"/>
                </mxCell>
                <mxCell id="zQTQUMqrnIkQQQ9QgMsF-12" value="&lt;br&gt;&lt;b&gt;ConnectSNM&lt;/b&gt;&lt;br&gt;" style="swimlane;fontStyle=0;align=center;verticalAlign=top;childLayout=stackLayout;horizontal=1;startSize=55;horizontalStack=0;resizeParent=1;resizeParentMax=0;resizeLast=0;collapsible=0;marginBottom=0;html=1;fillColor=#d5e8d4;strokeColor=#82b366;" parent="1" vertex="1">
                    <mxGeometry x="590" y="120" width="140" height="163" as="geometry"/>
                </mxCell>
                <mxCell id="zQTQUMqrnIkQQQ9QgMsF-13" value="attributes" style="text;html=1;strokeColor=none;fillColor=none;align=center;verticalAlign=middle;spacingLeft=4;spacingRight=4;overflow=hidden;rotatable=0;points=[[0,0.5],[1,0.5]];portConstraint=eastwest;" parent="zQTQUMqrnIkQQQ9QgMsF-12" vertex="1">
                    <mxGeometry y="55" width="140" height="20" as="geometry"/>
                </mxCell>
                <mxCell id="zQTQUMqrnIkQQQ9QgMsF-14" value="__url" style="text;html=1;strokeColor=none;fillColor=none;align=left;verticalAlign=middle;spacingLeft=4;spacingRight=4;overflow=hidden;rotatable=0;points=[[0,0.5],[1,0.5]];portConstraint=eastwest;" parent="zQTQUMqrnIkQQQ9QgMsF-12" vertex="1">
                    <mxGeometry y="75" width="140" height="20" as="geometry"/>
                </mxCell>
                <mxCell id="zQTQUMqrnIkQQQ9QgMsF-15" value="inherited attribute2" style="text;html=1;strokeColor=none;fillColor=none;align=left;verticalAlign=middle;spacingLeft=4;spacingRight=4;overflow=hidden;rotatable=0;points=[[0,0.5],[1,0.5]];portConstraint=eastwest;fontColor=#808080;" parent="zQTQUMqrnIkQQQ9QgMsF-12" vertex="1">
                    <mxGeometry y="95" width="140" height="20" as="geometry"/>
                </mxCell>
                <mxCell id="zQTQUMqrnIkQQQ9QgMsF-17" value="" style="line;strokeWidth=1;fillColor=none;align=left;verticalAlign=middle;spacingTop=-1;spacingLeft=3;spacingRight=3;rotatable=0;labelPosition=right;points=[];portConstraint=eastwest;" parent="zQTQUMqrnIkQQQ9QgMsF-12" vertex="1">
                    <mxGeometry y="115" width="140" height="8" as="geometry"/>
                </mxCell>
                <mxCell id="zQTQUMqrnIkQQQ9QgMsF-18" value="operations" style="text;html=1;strokeColor=none;fillColor=none;align=center;verticalAlign=middle;spacingLeft=4;spacingRight=4;overflow=hidden;rotatable=0;points=[[0,0.5],[1,0.5]];portConstraint=eastwest;" parent="zQTQUMqrnIkQQQ9QgMsF-12" vertex="1">
                    <mxGeometry y="123" width="140" height="20" as="geometry"/>
                </mxCell>
                <mxCell id="zQTQUMqrnIkQQQ9QgMsF-19" value="download_file" style="text;html=1;strokeColor=none;fillColor=none;align=left;verticalAlign=middle;spacingLeft=4;spacingRight=4;overflow=hidden;rotatable=0;points=[[0,0.5],[1,0.5]];portConstraint=eastwest;" parent="zQTQUMqrnIkQQQ9QgMsF-12" vertex="1">
                    <mxGeometry y="143" width="140" height="20" as="geometry"/>
                </mxCell>
                <mxCell id="zQTQUMqrnIkQQQ9QgMsF-27" value="&amp;lt;&amp;lt;keyword&amp;gt;&amp;gt;&lt;br&gt;&lt;b&gt;ProcessData&lt;/b&gt;&lt;br&gt;" style="swimlane;fontStyle=0;align=center;verticalAlign=top;childLayout=stackLayout;horizontal=1;startSize=55;horizontalStack=0;resizeParent=1;resizeParentMax=0;resizeLast=0;collapsible=0;marginBottom=0;html=1;fillColor=#ffe6cc;strokeColor=#d79b00;" parent="1" vertex="1">
                    <mxGeometry x="280" y="140" width="140" height="223" as="geometry"/>
                </mxCell>
                <mxCell id="zQTQUMqrnIkQQQ9QgMsF-28" value="attributes" style="text;html=1;strokeColor=none;fillColor=none;align=center;verticalAlign=middle;spacingLeft=4;spacingRight=4;overflow=hidden;rotatable=0;points=[[0,0.5],[1,0.5]];portConstraint=eastwest;" parent="zQTQUMqrnIkQQQ9QgMsF-27" vertex="1">
                    <mxGeometry y="55" width="140" height="20" as="geometry"/>
                </mxCell>
                <mxCell id="zQTQUMqrnIkQQQ9QgMsF-29" value="ConnectSNM" style="text;html=1;strokeColor=none;fillColor=none;align=left;verticalAlign=middle;spacingLeft=4;spacingRight=4;overflow=hidden;rotatable=0;points=[[0,0.5],[1,0.5]];portConstraint=eastwest;" parent="zQTQUMqrnIkQQQ9QgMsF-27" vertex="1">
                    <mxGeometry y="75" width="140" height="20" as="geometry"/>
                </mxCell>
                <mxCell id="zQTQUMqrnIkQQQ9QgMsF-31" value="FileZip" style="text;html=1;strokeColor=none;fillColor=none;align=left;verticalAlign=middle;spacingLeft=4;spacingRight=4;overflow=hidden;rotatable=0;points=[[0,0.5],[1,0.5]];portConstraint=eastwest;" parent="zQTQUMqrnIkQQQ9QgMsF-27" vertex="1">
                    <mxGeometry y="95" width="140" height="20" as="geometry"/>
                </mxCell>
                <mxCell id="zQTQUMqrnIkQQQ9QgMsF-32" value="" style="line;strokeWidth=1;fillColor=none;align=left;verticalAlign=middle;spacingTop=-1;spacingLeft=3;spacingRight=3;rotatable=0;labelPosition=right;points=[];portConstraint=eastwest;" parent="zQTQUMqrnIkQQQ9QgMsF-27" vertex="1">
                    <mxGeometry y="115" width="140" height="8" as="geometry"/>
                </mxCell>
                <mxCell id="zQTQUMqrnIkQQQ9QgMsF-33" value="operations" style="text;html=1;strokeColor=none;fillColor=none;align=center;verticalAlign=middle;spacingLeft=4;spacingRight=4;overflow=hidden;rotatable=0;points=[[0,0.5],[1,0.5]];portConstraint=eastwest;" parent="zQTQUMqrnIkQQQ9QgMsF-27" vertex="1">
                    <mxGeometry y="123" width="140" height="20" as="geometry"/>
                </mxCell>
                <mxCell id="zQTQUMqrnIkQQQ9QgMsF-34" value="process_data" style="text;html=1;strokeColor=none;fillColor=none;align=left;verticalAlign=middle;spacingLeft=4;spacingRight=4;overflow=hidden;rotatable=0;points=[[0,0.5],[1,0.5]];portConstraint=eastwest;" parent="zQTQUMqrnIkQQQ9QgMsF-27" vertex="1">
                    <mxGeometry y="143" width="140" height="20" as="geometry"/>
                </mxCell>
                <mxCell id="zQTQUMqrnIkQQQ9QgMsF-38" value="__get_file_SMN" style="text;html=1;strokeColor=none;fillColor=none;align=left;verticalAlign=middle;spacingLeft=4;spacingRight=4;overflow=hidden;rotatable=0;points=[[0,0.5],[1,0.5]];portConstraint=eastwest;" parent="zQTQUMqrnIkQQQ9QgMsF-27" vertex="1">
                    <mxGeometry y="163" width="140" height="20" as="geometry"/>
                </mxCell>
                <mxCell id="zQTQUMqrnIkQQQ9QgMsF-39" value="__get_text_file" style="text;html=1;strokeColor=none;fillColor=none;align=left;verticalAlign=middle;spacingLeft=4;spacingRight=4;overflow=hidden;rotatable=0;points=[[0,0.5],[1,0.5]];portConstraint=eastwest;" parent="zQTQUMqrnIkQQQ9QgMsF-27" vertex="1">
                    <mxGeometry y="183" width="140" height="20" as="geometry"/>
                </mxCell>
                <mxCell id="21wL9Ko3yeNxNmn0TFWI-1" value="__convert_txt_json" style="text;html=1;strokeColor=none;fillColor=none;align=left;verticalAlign=middle;spacingLeft=4;spacingRight=4;overflow=hidden;rotatable=0;points=[[0,0.5],[1,0.5]];portConstraint=eastwest;" parent="zQTQUMqrnIkQQQ9QgMsF-27" vertex="1">
                    <mxGeometry y="203" width="140" height="20" as="geometry"/>
                </mxCell>
                <mxCell id="zQTQUMqrnIkQQQ9QgMsF-40" style="edgeStyle=entityRelationEdgeStyle;rounded=0;orthogonalLoop=1;jettySize=auto;html=1;fontColor=#000000;" parent="1" source="zQTQUMqrnIkQQQ9QgMsF-29" target="zQTQUMqrnIkQQQ9QgMsF-12" edge="1">
                    <mxGeometry relative="1" as="geometry"/>
                </mxCell>
                <mxCell id="Jf1t9MGoGxzgq5fJhCwT-1" value="&amp;lt;&amp;lt;keyword&amp;gt;&amp;gt;&lt;br&gt;&lt;b&gt;ZipToData&lt;/b&gt;" style="swimlane;fontStyle=0;align=center;verticalAlign=top;childLayout=stackLayout;horizontal=1;startSize=55;horizontalStack=0;resizeParent=1;resizeParentMax=0;resizeLast=0;collapsible=0;marginBottom=0;html=1;fillColor=#d5e8d4;strokeColor=#82b366;" parent="1" vertex="1">
                    <mxGeometry x="600" y="370" width="140" height="163" as="geometry"/>
                </mxCell>
                <mxCell id="Jf1t9MGoGxzgq5fJhCwT-2" value="attributes" style="text;html=1;strokeColor=none;fillColor=none;align=center;verticalAlign=middle;spacingLeft=4;spacingRight=4;overflow=hidden;rotatable=0;points=[[0,0.5],[1,0.5]];portConstraint=eastwest;" parent="Jf1t9MGoGxzgq5fJhCwT-1" vertex="1">
                    <mxGeometry y="55" width="140" height="20" as="geometry"/>
                </mxCell>
                <mxCell id="Jf1t9MGoGxzgq5fJhCwT-5" value="..." style="text;html=1;strokeColor=none;fillColor=none;align=left;verticalAlign=middle;spacingLeft=4;spacingRight=4;overflow=hidden;rotatable=0;points=[[0,0.5],[1,0.5]];portConstraint=eastwest;" parent="Jf1t9MGoGxzgq5fJhCwT-1" vertex="1">
                    <mxGeometry y="75" width="140" height="20" as="geometry"/>
                </mxCell>
                <mxCell id="Jf1t9MGoGxzgq5fJhCwT-6" value="" style="line;strokeWidth=1;fillColor=none;align=left;verticalAlign=middle;spacingTop=-1;spacingLeft=3;spacingRight=3;rotatable=0;labelPosition=right;points=[];portConstraint=eastwest;" parent="Jf1t9MGoGxzgq5fJhCwT-1" vertex="1">
                    <mxGeometry y="95" width="140" height="8" as="geometry"/>
                </mxCell>
                <mxCell id="Jf1t9MGoGxzgq5fJhCwT-7" value="operations" style="text;html=1;strokeColor=none;fillColor=none;align=center;verticalAlign=middle;spacingLeft=4;spacingRight=4;overflow=hidden;rotatable=0;points=[[0,0.5],[1,0.5]];portConstraint=eastwest;" parent="Jf1t9MGoGxzgq5fJhCwT-1" vertex="1">
                    <mxGeometry y="103" width="140" height="20" as="geometry"/>
                </mxCell>
                <mxCell id="Jf1t9MGoGxzgq5fJhCwT-8" value="__init__()" style="text;html=1;strokeColor=none;fillColor=none;align=left;verticalAlign=middle;spacingLeft=4;spacingRight=4;overflow=hidden;rotatable=0;points=[[0,0.5],[1,0.5]];portConstraint=eastwest;" parent="Jf1t9MGoGxzgq5fJhCwT-1" vertex="1">
                    <mxGeometry y="123" width="140" height="20" as="geometry"/>
                </mxCell>
                <mxCell id="Jf1t9MGoGxzgq5fJhCwT-10" value="unzip_to_text(BytesIO)" style="text;html=1;strokeColor=none;fillColor=none;align=left;verticalAlign=middle;spacingLeft=4;spacingRight=4;overflow=hidden;rotatable=0;points=[[0,0.5],[1,0.5]];portConstraint=eastwest;" parent="Jf1t9MGoGxzgq5fJhCwT-1" vertex="1">
                    <mxGeometry y="143" width="140" height="20" as="geometry"/>
                </mxCell>
                <mxCell id="Jf1t9MGoGxzgq5fJhCwT-9" style="edgeStyle=entityRelationEdgeStyle;rounded=0;orthogonalLoop=1;jettySize=auto;html=1;fontColor=#000000;" parent="1" source="zQTQUMqrnIkQQQ9QgMsF-31" target="Jf1t9MGoGxzgq5fJhCwT-1" edge="1">
                    <mxGeometry relative="1" as="geometry"/>
                </mxCell>
                <mxCell id="Jf1t9MGoGxzgq5fJhCwT-13" value="&amp;lt;&amp;lt;keyword&amp;gt;&amp;gt;&lt;br&gt;&lt;b&gt;DbMongoDB&lt;/b&gt;&lt;br&gt;" style="swimlane;fontStyle=0;align=center;verticalAlign=top;childLayout=stackLayout;horizontal=1;startSize=55;horizontalStack=0;resizeParent=1;resizeParentMax=0;resizeLast=0;collapsible=0;marginBottom=0;html=1;fillColor=#ffffff;fontColor=#000000;" parent="1" vertex="1">
                    <mxGeometry x="270" y="460" width="140" height="143" as="geometry"/>
                </mxCell>
                <mxCell id="Jf1t9MGoGxzgq5fJhCwT-14" value="attributes" style="text;html=1;strokeColor=none;fillColor=none;align=center;verticalAlign=middle;spacingLeft=4;spacingRight=4;overflow=hidden;rotatable=0;points=[[0,0.5],[1,0.5]];portConstraint=eastwest;" parent="Jf1t9MGoGxzgq5fJhCwT-13" vertex="1">
                    <mxGeometry y="55" width="140" height="20" as="geometry"/>
                </mxCell>
                <mxCell id="Jf1t9MGoGxzgq5fJhCwT-15" value="__url" style="text;html=1;strokeColor=none;fillColor=none;align=left;verticalAlign=middle;spacingLeft=4;spacingRight=4;overflow=hidden;rotatable=0;points=[[0,0.5],[1,0.5]];portConstraint=eastwest;" parent="Jf1t9MGoGxzgq5fJhCwT-13" vertex="1">
                    <mxGeometry y="75" width="140" height="20" as="geometry"/>
                </mxCell>
                <mxCell id="Jf1t9MGoGxzgq5fJhCwT-18" value="" style="line;strokeWidth=1;fillColor=none;align=left;verticalAlign=middle;spacingTop=-1;spacingLeft=3;spacingRight=3;rotatable=0;labelPosition=right;points=[];portConstraint=eastwest;" parent="Jf1t9MGoGxzgq5fJhCwT-13" vertex="1">
                    <mxGeometry y="95" width="140" height="8" as="geometry"/>
                </mxCell>
                <mxCell id="Jf1t9MGoGxzgq5fJhCwT-19" value="operations" style="text;html=1;strokeColor=none;fillColor=none;align=center;verticalAlign=middle;spacingLeft=4;spacingRight=4;overflow=hidden;rotatable=0;points=[[0,0.5],[1,0.5]];portConstraint=eastwest;" parent="Jf1t9MGoGxzgq5fJhCwT-13" vertex="1">
                    <mxGeometry y="103" width="140" height="20" as="geometry"/>
                </mxCell>
                <mxCell id="Jf1t9MGoGxzgq5fJhCwT-20" value="write_data" style="text;html=1;strokeColor=none;fillColor=none;align=left;verticalAlign=middle;spacingLeft=4;spacingRight=4;overflow=hidden;rotatable=0;points=[[0,0.5],[1,0.5]];portConstraint=eastwest;" parent="Jf1t9MGoGxzgq5fJhCwT-13" vertex="1">
                    <mxGeometry y="123" width="140" height="20" as="geometry"/>
                </mxCell>
                <mxCell id="Jf1t9MGoGxzgq5fJhCwT-21" style="edgeStyle=entityRelationEdgeStyle;rounded=0;orthogonalLoop=1;jettySize=auto;html=1;fontColor=#000000;" parent="1" source="zQTQUMqrnIkQQQ9QgMsF-7" target="Jf1t9MGoGxzgq5fJhCwT-13" edge="1">
                    <mxGeometry relative="1" as="geometry"/>
                </mxCell>
                <mxCell id="Jf1t9MGoGxzgq5fJhCwT-24" value="" style="shape=datastore;whiteSpace=wrap;html=1;fillColor=#ffffff;fontColor=#000000;" parent="1" vertex="1">
                    <mxGeometry x="850" y="760" width="60" height="70" as="geometry"/>
                </mxCell>
                <mxCell id="21wL9Ko3yeNxNmn0TFWI-4" value="&amp;lt;&amp;lt;keyword&amp;gt;&amp;gt;&lt;br&gt;&lt;b&gt;Weather&lt;/b&gt;&lt;br&gt;{mongoengine.Document}" style="swimlane;fontStyle=0;align=center;verticalAlign=top;childLayout=stackLayout;horizontal=1;startSize=55;horizontalStack=0;resizeParent=1;resizeParentMax=0;resizeLast=0;collapsible=0;marginBottom=0;html=1;" parent="1" vertex="1">
                    <mxGeometry x="600" y="630" width="140" height="183" as="geometry"/>
                </mxCell>
                <mxCell id="21wL9Ko3yeNxNmn0TFWI-5" value="attributes" style="text;html=1;strokeColor=none;fillColor=none;align=center;verticalAlign=middle;spacingLeft=4;spacingRight=4;overflow=hidden;rotatable=0;points=[[0,0.5],[1,0.5]];portConstraint=eastwest;" parent="21wL9Ko3yeNxNmn0TFWI-4" vertex="1">
                    <mxGeometry y="55" width="140" height="20" as="geometry"/>
                </mxCell>
                <mxCell id="21wL9Ko3yeNxNmn0TFWI-6" value="attribute1" style="text;html=1;strokeColor=none;fillColor=none;align=left;verticalAlign=middle;spacingLeft=4;spacingRight=4;overflow=hidden;rotatable=0;points=[[0,0.5],[1,0.5]];portConstraint=eastwest;" parent="21wL9Ko3yeNxNmn0TFWI-4" vertex="1">
                    <mxGeometry y="75" width="140" height="20" as="geometry"/>
                </mxCell>
                <mxCell id="21wL9Ko3yeNxNmn0TFWI-7" value="inherited attribute2" style="text;html=1;strokeColor=none;fillColor=none;align=left;verticalAlign=middle;spacingLeft=4;spacingRight=4;overflow=hidden;rotatable=0;points=[[0,0.5],[1,0.5]];portConstraint=eastwest;fontColor=#808080;" parent="21wL9Ko3yeNxNmn0TFWI-4" vertex="1">
                    <mxGeometry y="95" width="140" height="20" as="geometry"/>
                </mxCell>
                <mxCell id="21wL9Ko3yeNxNmn0TFWI-8" value="..." style="text;html=1;strokeColor=none;fillColor=none;align=left;verticalAlign=middle;spacingLeft=4;spacingRight=4;overflow=hidden;rotatable=0;points=[[0,0.5],[1,0.5]];portConstraint=eastwest;" parent="21wL9Ko3yeNxNmn0TFWI-4" vertex="1">
                    <mxGeometry y="115" width="140" height="20" as="geometry"/>
                </mxCell>
                <mxCell id="21wL9Ko3yeNxNmn0TFWI-9" value="" style="line;strokeWidth=1;fillColor=none;align=left;verticalAlign=middle;spacingTop=-1;spacingLeft=3;spacingRight=3;rotatable=0;labelPosition=right;points=[];portConstraint=eastwest;" parent="21wL9Ko3yeNxNmn0TFWI-4" vertex="1">
                    <mxGeometry y="135" width="140" height="8" as="geometry"/>
                </mxCell>
                <mxCell id="21wL9Ko3yeNxNmn0TFWI-10" value="operations" style="text;html=1;strokeColor=none;fillColor=none;align=center;verticalAlign=middle;spacingLeft=4;spacingRight=4;overflow=hidden;rotatable=0;points=[[0,0.5],[1,0.5]];portConstraint=eastwest;" parent="21wL9Ko3yeNxNmn0TFWI-4" vertex="1">
                    <mxGeometry y="143" width="140" height="20" as="geometry"/>
                </mxCell>
                <mxCell id="21wL9Ko3yeNxNmn0TFWI-11" value="operation1" style="text;html=1;strokeColor=none;fillColor=none;align=left;verticalAlign=middle;spacingLeft=4;spacingRight=4;overflow=hidden;rotatable=0;points=[[0,0.5],[1,0.5]];portConstraint=eastwest;" parent="21wL9Ko3yeNxNmn0TFWI-4" vertex="1">
                    <mxGeometry y="163" width="140" height="20" as="geometry"/>
                </mxCell>
                <mxCell id="KB9_5ezjU1DVn9G2ExyB-1" style="edgeStyle=none;html=1;" edge="1" parent="1" source="21wL9Ko3yeNxNmn0TFWI-8" target="Jf1t9MGoGxzgq5fJhCwT-24">
                    <mxGeometry relative="1" as="geometry"/>
                </mxCell>
            </root>
        </mxGraphModel>
    </diagram>
    <diagram id="ZQ54kb22x-4rS1AGCng_" name="Página-3">
        <mxGraphModel dx="1288" dy="848" grid="1" gridSize="10" guides="1" tooltips="1" connect="1" arrows="1" fold="1" page="1" pageScale="1" pageWidth="827" pageHeight="1169" background="none" math="0" shadow="1">
            <root>
                <mxCell id="M_lIC0gie-tvfzp0duKs-0"/>
                <mxCell id="M_lIC0gie-tvfzp0duKs-1" parent="M_lIC0gie-tvfzp0duKs-0"/>
                <mxCell id="elip8OkmTSi9nJM_PUHy-0" value="" style="shape=image;verticalLabelPosition=bottom;labelBackgroundColor=#ffffff;verticalAlign=top;aspect=fixed;imageAspect=0;image=data:image/png,iVBORw0KGgoAAAANSUhEUgAABgcAAAE7CAYAAAD5KFHyAAAgAElEQVR4Aey9z48dSXIm+P6VvfSdfchD/gFzHOwMVstaaGa1TzP7pqa2VFOiNOoedgvd7NXs5jGvFDsBggKXAJWiRFF6okhRIAoFFAoqMEGxLg02sEceV5uzGmn0yxfmEe5hZuHuL1789oiPQPJFhLubm3/2uUW4WfzYbDYb0+Zvt9sZ/AEDcAAcAAfAAXAAHAAHwAFwABwAB8ABcAAcAAfAAXAAHAAHwAFwID8ObNokBqjNGMb+6U9/Oko/Y4wFfRSTAzbNz0mAu/nYDPMrH1vRvIK98rIXfCHsNRQHfvd3f9d85zvfwd/KMcA5oZuPAX7d8BvKv0Eu7AIO5MEB+NA87IT5NF875T6HZp0cuH//PpIDC3tCAzadrzPDiSZ/22B+5WVD2Csve8FHwl5DceDy8hKJgZUnBig5hHNCNx8D/LrhN5R/g1zYBRzIgwPwoXnYCfNpvnbKfQ7NOjnwO7/zO0gOLCw5AJvO15nhRJO/bTC/8rIh7JWXveAjYa+hOPB7v/d7SA4gOWBwTujmY4BfN/yG8m+QC7uAA3lwAD40DzthPs3XTrnPoVknBx49erSO5MDFlTHmg9nfmS/R+3JCq7FprkmdO3vzwYT+rYOfffF8KjmLm1+aj1cXizonLM5eufq9sfXWvC5d7of9nUXxeyo/mGO/T548WV9y4F/81PzfocsNe+zPzfdWmCyY5Tkh4q/ITFcX81q3zBK/sc8v6G+G59ELQyt9/g/n+3n5jhyvG4bQGT50hry05+Arc6F9e+y4rof9Uc8Js55DDTgzq+TAb//2bwvjPX78WOwP4QSnl3nH7D8Yc3V1RVfZix/vOmw6wxNL0xNDzGnYBFbgxNRULuqNMrcXNb9qnCt85ZL85KLshTnefI4H/WwRPEDAIOPzZ4c58Pu///srTQ6sMwkQ+77ELM8JQX81z3k6S/w6+IXp16jztHNWuNj5oxNpON9nZcMVzWH40Bn6vNg5OHZ8RXydox+Z9RxqwJnZJAcoMfBXf/VXYnFNd1LN0ei96uSM5H4XPqFXYdOcbRjlIV3I4umBXuf+ADxZzvwqFk61uxItP5fDw+XYa4YX0wPMr97mf8zP1hJiwLU3zOfMh93OIDmAjzFTwmCW54SYv5rhnJolfjPEaS1+dfpxFje1BJP+Gc2r6XHEtdBYNoAPnSHXYr4idhznnEnjx7OeQw04M4vkgEsM6OTAH/7hH05q3DEc8R372EDxxADFBYIXEAua5Guw6Ri8GayPmNMgcq7gyZbBcB1pDi9mfq0kSLoYe43E79znp9c/5md3SMJ6jFbGqT/4gz/AkwMrfI2QfoJglueEqL+aXxBllvitzJet1YcHx53R3AnqD+4uPg6l7Q4fOr/z2i7mR2LHMW8nnbeznkMNODN5coAnBnRy4I//+I8nNa52mP3vq0BAkR0wdxY8qZdv0xmeVI7hk3Ua/K2Y1fbSE1f9z+/xubCY+bUCX0h8W4y9jvExqGuiF/q78jWDM3uP9xJ849zH8PTp05UmB6prDLH1599bHx7f+c48zwmx68IZ3jCCc+r4151z962T6reSa9lJMcY1Za+xMvjQGfrQ2DnYXjThlc9z8z+znkNzTw7oxIBODvzpn/5prw5vbuTZ1S4aIq/SWNCJb/E2zd1WMadhjy/ndS6z8wU98WYx86vmG2d4sdaDzRZjrx6wWOqcDI4r5meRHFj2NV9intCdRvou8sXv2w8S45sD3M6zPCdE/dX8zsuzxC8x74PnB9RfznkgcC1Lh6p/WFdhDszLj8KHzssedn7EzsGx4ziHTHoOmfUcasCZyZ4cCCUGdHLgz/7szyY17rAnrPLjmtUVQrU1w7tx+sJi2Tad4Qnl2BNE1GksP3HVF8enlLOY+WVXT8u/G2Ix9jrWz6y9ftLPIlgwpQ+dqu9nz54hOYDXCplZnhOi/mp+17yzxG/t57s1jz85d9TbA9aME8Y+m3gXfOj8zmvRp42T/mWG41jJPJ/1HGrAmUmSA7HEgE4OvH79ejbOsvcFY8w49vhygwOLtukSnF6Ml3gXdha+aDnzK5aMih3P8yJoOfbKE//ez+tNzwExP7uSpNhkuDe1zwT1/uiP/gjJASQHzCzPCTF/NcE8OeQ7ZonfDHE6hCPK+7qmSXyQGOuqLNZVa5sL8KF9zf0e5cTOwbHjOOdM6ltmPYcacGb05EAqMaCTA19++eWkxh3yhFDEAIoPEet+qGyp73dfsk21HbPcjzgN++HsD/tFfw8jS3upC4AlzS/LOcMTpeXTVgvi4ZLstYT5M9oYgn62SHwt9dw/GrbKJ+bSL5ID31lfciSQDJnlOSHor3oMfPQ4Z2eJX4/jy8WfQU82P+z80et69/YAfo3L2oAzi43/zH1uwIfOcB7GzsGx4/Afk/qPWc+hBpwZNTlwKDGgkwNfffXVpMYdzoEfeJRwwXcPLtemMzyZtDk5lBex1Tuu3NbyX/Ey3HwfjxuLm1/WFzoOGmMW9sq1xdmrjc9ZY5uIn73Ch4gXes13+BxAHzDj755fxbb95gDz72rzz7+3voTBLM8JDRaTc7l+miV+azzHYczqXOaSAczJLex6di4+AHocvt5IYQQf2g2/FLaty2Ln4Nhx+F/lf8e16aznUAPOjJocOHZS/MVf/MWkxj1WX9Q/PPlg08MYgUfAqC0HML/y4g7slZe92s5LtIOdD3Fgv9+vLzkQuHN+FUmRxLhxTujmK4BfN/wO+SmUA19wYNkcgA9dtn0xf4e3b+5zaNbJgTdv3iA5sLDsH2w6vFOC418vxphfedke9srLXvCtsNdQHPiTP/kTJAcSQfO1JA1wTujmY4BfN/yG8m+QC7uAA3lwAD40DzthPs3XTrnPoVknB/7yL/8SyYGFJQdg0/k6M5xo8rcN5ldeNoS98rIXfCTsNRQH/rtf+2cGf8CAODAUx9YgF+dU+Og18BxjBM+H4gB8KLg1FLfWIjf3OdQ6OXD37l1z7949c3FxYe7fv28ePHhgHj58aB49emQeP35sLi8vzZMnT8zTp0/Ns2fPDD0y/fz5c/Py5Uvz6tUrQ19y/uKLLwx9tIHezfT111+bb775xlC25e3bt+bdu3eG+sAfMAAHwAFwABwAB8ABcAAcWCoHkBhAYsBxYKkcx7jgv8EBcAAcAAfAAXAAHJgvB1onB8bI/hBx6J+7YOa/7pM+/JjeRp0wdg4n4AN8HBf0L7gBbmhOuH1wA9xwXNC/4Aa4oTnh9sENcMNxQf+CG+CG5oTbBzfADccF/QtugBuaE24f3AA3HBf0L7gBbmhOuP2+uEHycv43++QAAfyzn/0Mf8AAHAAHwAFwABwAB8ABcGBxHLj++XuDP2AADoAD4AA4AA6AA+AAOAAO5McBnWjIMUmA5AAW2YtbZCOZhGQaOAAOgAPgADgADuTCASwC81sEwmawGTgADoAD4AA4AA6AA+AAcQDJgYE/lkuvFcKTA1jc57K4h57gKjgADoAD4AA4AA4cywEsLLGwBAfAAXAAHAAHwAFwABwAB/LkAJIDSA7grns8eQEOgAPgADgADoAD4AA40JoDWAjmuRCE3WA3cAAcAAfAAXAAHAAHwAEkB5AcaL0QPPauMtTHnYjgADgADoAD4AA4AA4sjwNYVGJRCQ6AA+AAOAAOgAPgADgADuTJASQHkBxAcgB3CoID4AA4AA6AA+AAOAAOtOYAFoJ5LgRhN9gNHAAHwAFwABwAB8ABcCDHDxBrnfFBYixmWy9mcffi8u5ehE1hU3AAHAAHwAFwYFwOYFGJRSU4AA6AA+AAOAAOgAPgADiQJwd0oD3H/dknBwhULFLHXaQCb+ANDoAD4AA4AA6AA+DAOBzAQjDPhSDsBruBA+AAOAAOgAPgADgADuC1QiO8VgjJgXEWpggAAGdwABwAB8ABcAAcAAfG5wAWlVhUggPgADgADoAD4AA4AA6AA3lyAMmBEZIDBDIWquMvVIE5MAcHwAFwABwAB8ABcGB4DmAhmOdCEHaD3cABcAAcAAfAAXAAHAAHkBxAcgCJC3yzARwAB8ABcAAcAAfAAXCgNQewqMSiEhwAB8ABcAAcAAfAAXAAHMiTA0gOIDnQeiGIO/GGvxMPGANjcAAcAAfAAXAAHJg7B7AQzHMhCLvBbuAAOAAOgAPgADgADoADSA4gOYDkAO4UBAfAAXAAHAAHwAFwABxozQEsKrGoBAfAAXAAHAAHwAFwABwAB/LkAJIDSA60XgjO/S426Ic7LcEBcAAcAAfAAXAAHBieA1gI5rkQhN1gN3AAHAAHwAFwABwAB8ABJAeQHEByAHcKggPgADgADoAD4AA4AA605gAWlVhUggPgADgADoAD4AA4AA6AA3lywCzg32az2Zg2f7uBEwMk/+7du4YyMLhrbfi71oAxMAYHwAFwABwAB8ABcGB8DmAhmOdCEHaD3cABcAAcAAfAAXAAHAAHFpAboLzAvJMDBHJ8ofrC3L6xMZsbt82LrO5YS+mdKmu7YJUyX9y+aW6Udr9x+97MMJS6xm3fFoux2qXGkSobSz/0ky+30rZ78bM++cVl8e20Dmls+5IT0yElP1UWk3fouJQ5b/96aCxLK+e24dtdx8ll8e0ucvuS01SHVH+psqbyUS/tByU+clH5Z+bsu8W1+clHH5mTzUfm8ucHFl2vfpCoV8jbXhwhg8uLbR/SCeVG2vUA/p3xmgFvOo9haIwgf1xODo33RJyv8byhj621a4EP98cpebwe3061QdnIPruF/Ue10VzmV0OcOM/59qiYNdQVOi1yruG1QgM/PUBPDiSTAy9u2yD3jdsvEgmEcgH24p65ffO2uTdkEqGPPo4ZU2osUV3KRf/m5rBYpHRLlR0z/ugY5aL7mAV6re4xfaTq8rJyjJub9w7zNoUVyoBfVw5wXh6Sdczc1LKO6Ue37XO/yxi4HtHxzNy/8jGsYbutvaP2DZxb2vZB+B/TTx/2SvXHy8ox4RwVsHcfdgjIEAG7NovaZJuGgauYDH6cb2NxO6/FbRvbJNt05A34MS9+LNEeSf5GgnTJNg05X8OybbuIjjX5Leolx9lCXh86QUZePqENh5JtRpwnST3Af3HNiXnZ27xEcmCE5IB8rdALc/vmjfI1SDfMzds37fbNe7SAe2Hu+TJ6muCmuf2Cjt8zN/nTETYgG6ubklMsEvldodRHkWwI9VHUrwWbaVF4T+odH9PPTLg/LuOeuUlPT2xumAKHgC6uv9tFMsU/LUJYuDKLYaI/FwC5ebvor7enNZZg0wTm91JlKU4l+BMILAR5hnrrTB6IOR3zdQFehuY4l1Vu37hxo3jyyPtYCnLKRO2L2+Snb5jbLwL9cJnKb9+4yZ4C8/W0jzswN3w7qpfyLwl/52XovhPjaeFfMW8P2PJoH5awt7dpwYvG1wuO2/zcx2WV2/OeFwne4hw1i/NEtVD7qdn6a9Yb5uxCPxHAy9kTBbWFMKv33Y/M9rsbk35ygNWnJxW8vNhxt7hW5Vhk9rbIrDjhsE79cjtMx5vtR4xnxKHv/sBc/Zx0+8ic/bBav5294mPhujNOg0sTcYnbZs7bnDdjct5hwvqv+VhWpp/8uviIvc5Z8523u2HsPLHzqPDhG+GbSQ+qH5pbXA735wHduX7lnD37qHqrRPq84eTh9zh/nQNenEMjzy9//VHixPdTHPX1uO7lHEvOuxzsAR1zmGNIDoycHLh3swiC26B/uSAvAlAU5HHBKFr4lwthF8B2i/vyCYNU3aKPMuhPga0bG+MCVqKdC3q5u79VH6mgD5fTeEyqv0IG6XbPvDhmvDyo8TOJG9eL7mi0SRU3Pof3jdvmnk269BPUaTz+Y8ao6o5h03hwNBU4lfjXMD86MNaPTVLcRdn8MebzOMV9zVmXKKTXtLk5zmU5n3Pz3gufDHB3FvN6xBHZbyxx4OpREiE2TyI+LjE3uC6N/Yvyd26sQ/tXzKd+51NTe0t+yvP8UueFHhefJ6kyWU9dFyTmIbh9HLfFoscvcN+ba7798/fm8qONOfnhn9mg4RUFWz/6aRFATNS7LhfFB4M8XEaT7ZQ+COyOH9iN2SxlJ95G1WvFm4uPPD+pfcHVMlBjEwXvTSG3CopGOQ0Ojc+h3DDn/OXbisu9+0olX8+VOKdpLlTcF3r9XN1VTX6b5owdl0q6eRmJucXx4Nsh3d3cLPty5xg7LleWGzegb3f/wXnDtxWHBI8T9fQ8Edc93F5KhrgOsmXVdZDgKG/Ht8skmns9o9CX94vt7pxZOYZIDoyaHNCL0nI/+Hoc9b5cFRCXi1ZZtwgaFAkBFyAr6pf9uYSDfq93sg+5SKwCE6kxpfsTQZADulT9qWC0COId058cj8TzmLLU+LUcaScXyCyelkjXHcOmWh+OebwsjXl7XDUe2F8Tlpx7ce7zp48KfhR1y0B9GfSryYr4P17P3q3PvwWjfKOvWyZUXYJBt5P6qPmfCEp6+S5J6BKcbt+eM9JzL9l3bDwq2Uqcq+mi8FsTL4cfa/p8UtnC2SV0nl/uvIifh2Jjppsk0vNkeJuu59wlFsl8Ucu37QK3vJvULsBYoKlWrwpAXeugU2zxxmU02U7pE+sDx4dbfMdslrITb6MCKK14QzLKYOLlR46rRQCzSk5REJSXuW26M5JxGlwZjitLwZbzl28PzfkaT3lgnzgc47QuY3cDC/0Tx0W9xNzi9fh2TXemk6hXT06L89RSOIRxxP0M5wPfHnp+ib4UD5uWiXqM47B33N7ApjM2SA6MmRxQARn/dEAZ+Hlx77a5efOG8Y/202PZrsw+VeBeAfQzk6pr7962r+kpH6lzrw5ygSz/uLcrL16DUdxdV/URXzSzAEZqTMn+9IKdyfQBKqeLLOMBEoFhsr/mgbn4uAOL/NT4aRzZ2NQlXcKYS24weyQxD+CVCIgehTvkzOI1EkPZTDzxQ3fEh/xZzU+E5jjjqktA+kA7r8/rEW+LffctmCj/a/M/INMH03UfsfnB6tXks7Lk3CvrRfqOjkckAyoc7Hko0t9QHFil3JS9XZDb8Xd18wLnqLnPCRF04Ytavm0X5NXrHopXRJZBKF6Pb5eLPbqTtQrOssATXwzydk22U/pwudjuvOAU/IjhGbNZyk7RNgVHjuaNTUQRJ6skQRHw58HS4gmYgo9FcNO/7tSusWTdRmOPYYLj43BvKpyj/E3wKtqmLed1u0TfhJPt3/lxxnU6HrpLn+vr27vkbz3o6ecsbxfbtnZjyTper9ZX5LxhZaBskX6K84Fvj3pOcXOm5LzQI1EWrBeYd+Dvss8RI9sXyYEpkwNlsMUGoMqgwIbeV/3ihXqPPg84VXfIheuygNOL6l3dtg/eXy24qvqolXO57BUbOpjB++DbWp4uK+UUwTili6ibKBP1mL62bxZU07p02U+NPyebusCpCyYKLNtirm2A/bkHd+ai343NxrjAvNdJ+zPNWR08pXnNeVxuu4SrK+OBb9+nmNcJ/ot6VX8pmb6PmN/hOkfkWxm8npaly0o5Rd+J8WhMuRy+rfvDfj/Jujb2Xsu8SHEzVQbe9sPNBnNcBBb4opZv2wW5CwqpYEyyHr+rVbXjCycuo8l2Sh8uF9vjLL5jNkvZibep1WvBm5+/N/TKhu1H7pVCxDcdwGTByFqfCX6CR+PwKCecOX/5dopXyXoNOV+Tz9sR3yN+WmPrXh1Ex4VebB7o42I/Mbd4Pb5d053JEPUSOulxYH+Zc5PzgW/XOBTjq54LfJ6wNpo/oi/Fw6Zluh7vg887fhzby+TxiHZFcmDM5EC5SC2CUxS4L7J/9FqZ4k7OTflB3jJ4Yz+GSQFVGdhO1S0+UFi9VuOFCDbIoJAsk334gFxoQchlJsakX7Eh+uMy/B3ATm+lC68r+qsSJe6DzrfZq0BEf0MFCIQ+GdtUcUy+viFhDxWUEZiHuINjowVqknN45nagO/BoTqf9meJlaI5z31Fub8rXuBV+tPQ5vJ57d3/E/8bmxgt/131AZs3HJRJlQpfyA+z2bnHpX+biX3Pm2ex0T5xPOO9WOS9wjpr9uaNZckB+cyD6rl31PuBW7/nlC+vYdqif0J2vIy7MBI5r67eNnXibkD03Rz5xQphbmeyOaBtI2lTfx1CBGf5+dsHptdkP4z0+MMX5y7dDXHa+6VC9JpwPyWftopxW3Jd8V4FTp6f7dfwQ+xR8jcwtXo9vh3SPYBNNWDhd8Hs8Z3PCjPOGbx/BodpcYPMkfr5mCasy4Ww/xk3YKT3EPi/j28l5l0hS5GQr6DqLuWgW8G8jH+V0j9sc/t0NnBgg+Xfv3jWUgXFBCBfYp48Q37zBP0DsEgIbs7lx075eyH2o2AeB6ORp7+w+UPcmyXXjv2Fulh8xtjqIVxHcMPbDnDZQyGUWrxlyOutfEVTzQS/qT4+J7qTlrwSp+tMy5KuCpC73+Ieay8CZu/tWy4n15wIr/9flM9P1L4xHaPx8HPO2qeaYwNwlAEr+ybK4jTVO2E8EhGcerG9qu65zi9pTX8L3Rf0Zn1+3TSgxxf1DsX3T3L5909CTCdZf0YeJLfbMT5H/ta8xcq/Ykv3U+X+7eu3RjZvFh4m9X3QJT/eOeCczzgWuM+lW7If8S3zuaRkx/9qXvZryA/XidnfYxOwtbfrC3F7ZvMA56jB3HIfa/PbhC8QimS9q+bZd/JXBoNIPn70qF7a1ekWgyV7Pfvcjs/1ugyBv+W0CuwgX8pysj8ylOE59R/RZ4UK1dx4ciyG3Dd8ekze2L+ILv3O6CPRsP3LrK544qDg0OX7H4o360wdjOM/59uCcJ946v7gxm5qPjftFCpZWcQY+T6q5UJSX80SPS+yn5pbT75DfZjoI2YFALDg/PecTNujdh3I+8O0R5pf9aHAZjzv54Q+qp3G0Hnyfb/v5WfA7Pe9o7uEPGLzvHOdcQG6Azk/8JNV8e6zkAIHcZrGGNv0vhumk80/GtP6j9rBL/3YBpsvAFPMrLzvCXnnZC34S9hqKA334AizK8l+YgwelDSlA89FPWbClCGD6RFYkCAP88p8D8GNj27DZ3IJdxrbLNP3Bh06DO+bXcnDvOofwWqGBnx6gJweySw64VxsEky6H73wdavHah1w7Yf7pn8w/tfyj9n3oMbqMBdt0dCwXcpf/ELitdn4dw4kZzUXYC8HmIfxAK5kzmhet9D/GB8ywbh++YJTFpb2rLnYTkL6bezmLvVGw/Xlxx1nb62NqRzwaS9ej+jmCN8XdnppLzQKY2cyjSHLjKEwhY55cd3Y5gvPT2r3Z3JpWR5xLxsI/Gx+azfwCd8fi7lz66TqHkBwYITnAXyu0xkXnnMZME+Yf//GfWv9R+zmNB7oguDcnDmB+5cVH2Csve81prkOXZXGnD18wl4UR9GgfDAAP2mNHvAN+3fDD3AV+4MC6OQAfum77Y/53t3/XOYTkAJIDqwp204T5h3/4x9Z/1B5BkWUFRWDP/uwZm1//+/9xZtzfT37r/zQ//slvmd/88U/MD37zR+b7t39ofv1737dzEvOrP1s04XXMXk19JOw1rr2a2BR1YJM2HOjDF2BR131RNzWG4EE3GwK/bvhNzX/0D/uBA9NyAD50WvzB//zx7zqHkBw4JjlwZ28+mCtzcUQb/UHiNos2tOlvsU8T5u///h9b/1F72KM/ewDLZWGZml+UFPgRJQV+9BPzgx/+yHz/P/3Q/PpvfN/86q/9Rz8fMb/G5UPKXk38JOw1rr3gL4H3UBzowxdgUbmMRWUT3x+rQzxaMw8wj/KfA2vmL8YO/k7NAfhQcHBqDubef9c5hORA40D/hbmyXw9AcmCoxekYcmnC/N3f/0PrP2o/hp7oA0GgHDlwaH7ppMBnn/+qmIuYX+Py/pC9DvlK2Gtce+XoE6BzHhzpwxfkvqCC/sVrcQ75/VQ58WjNOGIeIbC1Zv5j7OB/Vw7Ah4JDXTm09vZd5xCSAw2SA3f2H2xa4MPVFZ4cmOGH9I4JPtCE+du/+3vx95P/fGbc34/u/Ja5/cMfmV/7je+bX/kPvyrqUTtqf0x/qJtHYAR26sdOofml59vnt/6jnVuffPormF8T+9OQvZwvpF/4w37mBfwLcJw7B/rwBWtfkC1h/OBBt8AM8OuG3xLmEMYADoAD7TkAH9oeO/AO2BEHus4hJAeaJAcuLswdqofXCmUfGKcJ8zf/7e9rfz/6yX8WSYHdx5/U6lA7aj/3RT70QyBqKg7E5hefc//+f/sVQ/Prl//trjbHML/G5W7MXvCH49phqvmKfmFnx4E+fAEWpvkvTMGDbjYEft3wgw8BfuDAujkAH7pu+2P+d7d/1zlk74jP/L/NZrMxbf52DRIDog6SA9kHxmnC/Ne/+bvg361f/w3zv/67f29+6X/5N8Fyakft3WIavwisgAOSA6n55ebdL/+bnZ1jv/ivf6k2zzC/JJ5D8ytlL/jDcW0xtK0hH/ZMcaAPX4BFXfdF3dQYggfdbAj8uuE3Nf/RP+wHDkzLAfjQafEH//PHv+scyjwvYNWffXKAtEwtylA23qKdJsxf/9e/i/599D/9YrSM2lF72Gs8ewHrvLDm84s+QEx/P/zNO+bXfv375uNPPrVz6xf/1S8Zmme/8D9+VJtrmF/j2pvbK+QX4Q/HtQf8HfCeigN9+AIsKpexqAydC9yxJueENfMA8yj/ObBm/mLs4O/UHIAPBQen5mDu/XedQ3it0DFPD7R8cgDJgfks+GnC/Je//m+t/6j9VIt39DsfHsEWYVvo+fW9//RD8yv/4Zb55X/77/yc+x9+4SPzL/7lL5h//t//S3/MzUnMrzCuQ/FN28vZoekv7DWuvYbiAeTCjn34gtwXVNC/eFdtU/8fqkc8WjOOmEcIbK2Z/xg7+N+VA/Ch4FBXDq29fdc5hOTACMkBAhmL73ksvu3C5a//1ly3/KP2sOU8bAk7zM8Oofn1r/7nbfk9HGoAACAASURBVOP5hvk1rk1D9jrGN8Je49oLPg94D8WBPnzB2hdkSxg/eNAtMAP8uuG3hDmEMYAD4EB7DsCHtscOvAN2xIGucwjJASQHVhXspgnz//5/f9v6j9oPtTiHXAR+cucA5ldeHIa98rJX7v4B+s+Xb334AixM81+YggfdbAj8uuEHHwL8wIF1cwA+dN32x/zvbv+ucwjJASQHVhXspgnzV//lb1r/UXsEOOYb4IBtprUN5te0+B/Lf9grL3sda1/Uh32bcqAPX4BFXfdF3dQYggfdbAj8uuE3Nf/RP+wHDkzLAfjQafEH//PHv+scQnLgmORAi7p37941eK3QfBboNGH+n+u/af1H7ZsutlFvPnaHLcaxBebXODj3xWfYKy979WV3yIHdNQf68AVYVC5jUdn1GnnNPMA8yn8OrJm/GDv4OzUH4EPBwak5mHv/XefQqpMDFLi/d++eubi4MPfv3zcPHjwwDx8+NI8ePTKPHz82l5eX5smTJ+bp06fm2bNnZr/fm+fPn5uXL1+aV69emdevX5svvvjCfPnll+arr74yX3/9tfnmm2/MmzdvzNu3b827d+8MkgPzWoTThOn6pxfV2J+XjWGP6ezRdW5Re9hvPPvBXuNhDV4D6zlzoA9fkPuCCvoX76rtyoU149gVO2q/ZvwwdgQGwYF1cwA+dN32x/zvbv+uc2jVyYFdiycBjm3jkgMO6NCvKf+Fytwx1DH2CQyHh/4FPsBHc8LtgxvghuOC/gU3wA3NCbcPboAbjgv6F9wANzQn3D64AW44LuhfcAPc0Jxw++AGuOG4oH/BDXBDc8LtgxvghuOC/u2DG05Gjr+bzWZj2vzRUwP4AwbgADgADoAD4AA4AA6AA+AAOAAOgAPgADgADoAD4AA4AA6AA+BAfhxonRw49imANvXpyQH6pzM6tO/+hcrcMdQJYwd8wJ/YvAI3wA1w458Fzzk0N9w/N09Cv6iD806IF+BPMTNi2AAf4ANuhM89OKfgnBKbG+AGuAFu1P0m5gXmBeYF5gXnwJg+gfrN+V/r5MCY3xzY/Hhj+F/OgK9dd3pK5fr6Gn/AABwYgAM0v/AvHwTgD3EuwPkQHCAOwHfn47eH1BQ86IYu8OuGH1oDASCwbgTgQ9dtf4y+GwIuIdFNyrStWycH2jwJcGwb980BJAamJUmfvdNJB8EQBEPAgWE4gIu6Pr3V8LLgD4eZB/AvwDU3DsB3D+9vc+gBPOhmJeDXDT+0BgJAYN0IwIeu2/4YfTcEkBw49FHiO3vzubkyn7h6F1fmljG1v8/3d0wocaCTA93MNdPW+x375sOpOX8/Uz17UotOOn7RfnVmToLfvDgxZ1cHghu27dZcHn339ZU5O9mY7eUB+Um5DWUEdSzaEg61v5MzcxVs00XXFbQFZn5OZX1RJ3zhzuwP+Zz35+Z006DeITkTlsMfwh/682HynHOEH4c/9P6wd2z7slFATi++u6tP7Np+Ql+6lK4b8QB2ipq7EX7R1mVBV3y7tj+kX9vyuerVdjxoBwSAQO8I9OJDe9cKAoFAHgggOeCC/sHfC/OZTQSw5ICuZ5MF8XKeHMiDEkdqaS/UWELABsfyDnYdQoBOOn7B3iWI0bptw8B+YPHu9b5uKOOQjofKkzocESxauhzg6OdUthd1atH6/vzUbHaJ9IBPJOTtL+EPmR/DPPbzuDrXMHya+nHg2A+OTfHuqV4vvlv50UPXYyifHwKNeAA7Rw3XCL9o67IA+B5CCOVAAAgsFIFefOhCscGwgMAhBJAc0MH+cv/j/Qf7dMDnV1fyyQFRv0gefHaxCz41QE8SuOTAIUMsp3xvdhuWLFjOwPxI6KTjAx9NghiXW3aHvXtS4NJs/Z335TErq7obXz4ZwOqfbM1WPDnAyjZOfiggw+o1lXFofKHy2jHWr9CPEhQn5uyswufk7MpcM7zsvg1ckIytOTs7KbHUT2bE+uA4JGSQziUmG69jQibTsarv+oq0s32cmbOttnGofuiYk7/s38Vc1CUW5/sdceDUnO+X+ORAygddi/ldzZ0A360f0XPFcZ/Vb+rLagHQFjJqvs3pU/6GymvHWL/e11B7+MPinBfCJ3RMYV+zL8r9dcpI2NR9N10PujmskqA+OUrlrixQ3/pRJ2NjZL6V1y+vO2t+l9dx/RhjqN7puTm3vriQL2X7Sz5sHIlAmgfSTrsY/jG7W7vtzO6U8+ZIBWdePY0f4zCNI6t5FJmL5r05Pz015+fVU+in9Ag6G5vdp/Hq+c3qVH7EGTjSX4hDMb45UfgFAkAgGwTqPjQb1aEoEJgcASQHRLC/CvJ/fHFhPqYy/VohVt8mED7si3rsOH+90NqSA/Zu2dNzs+Q3C9FJxy+6a4EfHZCgoEYVLLui4Pb2smgv2lI9FvAWZdfmcrsxPlBeBqZd8qBWRq/2CQQDavU21auJeFlcRz22a3Ot9LS4qGNR2eXTCxKPTQKfjdm4sVkMKlx5Hza54OoJHMoAkyvjMqzOFR40Di5TYHKdsGmqXdmHsKPTpTFmARuIMeZfvpSLuoNPDtDpXy90J78kOF4B+EM259Q8hj9M+FH4w+o6YiE+XPtuSoK6oJ70hxS0q4Kcokz4RKrHbjYRZRRQZMkCChLStaeoQ/HFSgcbbHTXp7ZepOx4N4gWDAHJg5SdYvgn7F7abcmJHImf5LCYKyavecTnohxHwRH/pGVpY7lf+gsxvxPjt3mTCL9qHErwjfEam0AACOSBgPaheWgNLYEAEOgLgWE/SBxNDtwxn34wJvXUwKqeHHAXc3wh15eFZyaHTjoyOVDd1UZl9s8FfW0gmQX9eRAgFEjy5TwAzbcpEMVfCaTLaD/Un66nZfA2rG5SxybJAa0Pk+3ulPXfZijvnPX7vC1t8+A9r8tlEj68HQvc2eMRGbVxahm8D12m+2iIJe+Tb9f0533zvpa5nf1F3TG+UCx0Z+boGqoDf8jmoZjH5XFxTPsOPre5T6O2ep+3pe2IL7P+o0qcwh8y+/jzK475a5geMZG+WwXcRCBTlzFnk/SJLBgYqyeOs/q2C9avqLeMRC1DcdJNwQONs9NMH9f7rp79ZXZM1hONst0R+Nl5wxJk2c4jNve0Td2TA/6usvJJAr/P2gr7s+M1azPO+P7kUyvxlz7qtjXhOAAEgMCMEZA+dMaKQjUgAAQGQWCa5EA0aVA9feCSA4OMeq5C7SOe1R1hc1Wzi1500vELaxH4iQQcbB2XQGCB40Bbulud5Bd/ZYAnUs8+OVAr0wGlUqdaveKOzvprHFzfpZ6Bdn7sFFQIlYtjRRCrGhPJdxhoXfW+Doa5dsWYCKujMKgF3RkGQmeSn9LbjVthZYMsiXa6D77Ptw/13WMwR9hyJnKJK8v4l1q4liMUC908R0328jwSPIY/tLgITBL+oZYMgD+8PORTZ+KzPP9Xro/03eT/3DnS/bIgp/V9sePyGrJ4DZury+4gdk8BcNfJfSrftnVY0FGX6X0uE9tHISB4QLgeshNJD+AftTt76uQoxTKpLPCzyQDHffeb4zxK+QM2L62N9D67ltI8sfsxXLgfYTK1jJIXQb5lwhmoCQSAQIWA9KHVcWwBASBwGAG8VijyOiD/aqBIEsC+UujqIvqtAdeeXiu0rn/sIm6hA6eTjg8GiMBPJBjGAwb0Khv3VIFoWwSN3KuCZNCdyvidoBQ0cneN6jLal0H0QlddLyWDjUPoyI67MYXKxTHdL5ehg196n4+Fb5MMXlf3oeu6PvVxJkPoTPW1TCcj8Mttmmqn++D7fDslw+G+4N8lXdTRYjP5+oPIIjUn1wl/yHyCmMflcXEs5VeYP7LzW+9z/8W3qR9eV/eh6zp99XEmQ+hM9bVMJyPwC39YXR8s2E/7ayA2Rum76VqQB+cSXs29EoiqCJ9YBBS9D+VlfJuLFse1Duz6VNTT/XKB2D4WAcEDjbMTpo+L/RZ2d3IX8CvwE08KHBjcrOeRnot8LCxwbw/r/cS85WL4+Gu4pWQk+MblYxsIAIEsEJA+NAuVoSQQmA0CSA60TA58cmXM5/s7jZIDBPJ6/rELsIUOmk46fmFcC6KoYIkIlJQf4wwlB7Qcu18F+fn7790He10ioVbm5LNFO+lbq8deS1ErczK0XkqmTGKUY1dtorJFQIvasuCU7YcHr2ibfY9A4Rrvg9sjIUPpHMTLYaL61t84iOqi++D7fDtkK9e3xn+B+9le1ImFKTm/Br5QBETydJjwh8zHqHlszxPqWNQ/1Pwf/GHx5EDg3LUif+ivNTLw9dp3U3LUfXNAvO9f+0q+z30i3yb3aPfdXdMUQGTJV1fX/ZbuNKqDqieTEnn64rloLXnQzE4C/6Btmr4SZi4otNdD4ie/OZDzPIrOxbavFeJ+g+BW+9H+gvxiiUxb7vxMezuiJRAAAtMgoH3oNFqgVyCQJwJIDrRKDjT73oB7rdCikwN0McbvDqOLqtAjxHnOj6DWdNLxC3Yb+HGPtMpfHrynNsVf/QmATflUgP3orat3sjVb/3SAC5yXMmplZdDbtuXyWdDKBhYo2NRERpWUCAb/eZBCBb5CwTD5ih4m++hg2InZbk9KHLkcGmcTDKhOREZoHEKm7I8CfGGbal1YO92H2He2cfbj42EyOPYL3SZcc/1nP7Ln5jD//opejLoBxo678gx+yV7wh6WvFXM6diw2t3UyQO8X/uvMfpMl4cusX+B9OJ9S6uP9RkJGaBzwhxXPPYYa03Xv1313cUduca6UwTYK3BXH6ZcF5mygsDomfOrpzux4QkC8ciUWPOY6sH6079X7GfjeuarYiAcab7UftbuqN1cMuujVCL+yg7zmEZ+L3B/oJwX0PrvRQtk/Pn4CiPeXmPs273ha+aOan+liTbQFAkBgbATqPnRsDdAfEMgXASQHWiUHLsxn5oP59I78voB7lRD/pdcKLTo5oC+qxCIv34mR0pxOOj4YhiDBSFjwwFjbAEwfMtr2jXZN5wwu6lLeZ35l8IdTzO0+fFkfMqYYO/ps6kvHrgffPT//PIVG4EE31IFfN/zQGggAgXUjAB+6bvtj9N0QQHLgUHKgY/kakgPdKJhfazrpjL3oRn99BLL6kIHA1NBcxEVdXj4R/nAKn9CHL+tDxhRjR59D++C28uG78/LdQ2kLHnRDFvh1ww+tgQAQWDcC8KHrtj9G3w0BJAc6Bv/5UwKhbSQHuhF0jq3ppNN28Yx2COyAA2kO4KJujl4vrhP8YZrPmO/AZy0cgO+O+8k1lYAH3awN/Lrhh9ZAAAisGwH40HXbH6PvhgCSA0gOdGPQClvTSWcti32ME4GtsTmAi7q8nCr8IXzE2D4C/c2Tc/DdefnuobQFD7ohC/y64YfWQAAIrBsB+NB12x+jBwIbcgJt/uiu/nv37pmLiwtz//598+DBA/Pw4UPz6NEj8/jxY3N5eWmePHlinj59ap49e2b2+715/vy5efnypXn16pV5/fq1+eKLL8yXX35pvvrqK/P111+bb775xrx588a8ffvWvHv3zrgnB9rohzbt7ArcgBs4AA6AA+AAOAAOgAPgADgADoAD4AA4AA6AA+AAOAAOgANpDrjUwrfffmty/WudHAi9BqjvY5QcoH+bH29qfw58/OaFADkV3Lk4zzsXYZf87ULzC//yQQD+MP85B78JG/bBAfjufPz2kJqCB93QBX7d8ENrIAAE1o0AfOi67Y/Rd0MArxUa4bVCZCKdHOhmNrSeEgE66fSxkIYMBGTAgToHcFE3pXc7vm/4wzqHMa+ByRo5AN99vP9cYgvwoJtVgV83/NAaCACBdSMAH7pu+2P03RBAcmCE5ACBzJMD3UyG1lMjQCedNS78MWYEvMbgAC7qpvZwx/UPfwi/MIZfQB/z5xl893G+c6m1wYNulgV+3fDr3Pr9uTndbMxu31kSBAABIDABAvChE4COLheDAJIDh5IDd/bmc3NlPuH17DFjbhn6+2A+vbMzsdcR+W8OlK8VWgxz+ED2O/bNh1Nz/p4XLm+bTjo+UHF1Zk6C37w4MWdXBxbztu3WXF4fqFcrvzJnJxuzvTy2Ha/fUEZQx6It4VD7OzkzV8E2vG9se/442wIzP6eyvqgTvnBnDq4t7SK0Qb0Zu1H4Q/jDmj9zfq3tL/yh94e9Y9vWJg3aSd/93pyfFtcIp20uChfgG2fstgdVTfJAd1Xw4mDgdcX2l/jNcR41tKE2fWJ/v4sE44fkQUR2VJeE/uGihjhF9KjL7FtevQccAQJLQED6UD2i1DzSZbQ/dFxrjD40BtgHAnEEkBzgQf/a9oX5zCYAeHKgOPbZRZEQ+Hj/wdzSyQMmhycH4mbIuMRe1DDHaYNjeQe7DlmDTjp+wd4liNG6bcPAfnIx31DGIR0PlSd1QJKgFx4tDOP0Rd2h2TlhuVrgvT8/NZtUBMQnEvL2l/CHzI/BH1bnxi5+CTj2g2MXG7RoK3y38odHe+au7Y/uEA36QkDwoCZUB19qFYoDK7a/wK8rDl3bB83T0IbBtuGD0YD8IPqHdej/aEOcGo+xb3n9jxgSgcAcEBA+tKZQah6pMpqbp+dm0Htex+ijhgEOAIE4AkgOsEA+v/u/CPob8/nVlXxyoPYkASUL4k8PuORA3ARLK9mb3YYlC5Y2PPp+xLHJgcstu8PePSlwabb+zvvymA2IVHfjyycDWP2TrdmKJwdY2cbJZwErv8hn9ZrKOBSkCZXXjrF+hX6UoDgxZ2cVPidnV+aa4WX3rf4kY2vOzk5KLPWTGbE+OA4JGaRzicnG65iQyXSs6ru+Iu1sH2fmbKttHKofOubkL/s3fVGXkUNJLPhoIbwhP7mnx9dXlhwIzp0A360f0XPFcZ/Vb+rLvB/sIKPm25ys8jdUXjvGdPe+htrDHxbnvBA+oWMK+5p9Ue6TzyNhU/luug50c9ddD/Jj2ufxsrJ+6T931lcWskSu1Za7PiJ3HWd0uliSqhUP3KiYfU93ZnfK7BW0I6vvz4+hY07+sn4r/PiYp55HTBdtQ8PKvL1CNonXs8mBXfUUejHXQ/VDx4wxxKPTc3Me8xdCR+ljqic828rmY2UymuJU+rpKj4byMHc4UNgGAh6Byoe6Qw3npZ6zdBOXdUaUNDg15+eVj7JPRPqbvDamekLymLrGGN9H6cf8tRM7T9IwgvO9HF/bMgcPfoEAQwDJgVhy4OLCfExltWTAHfPpB2PckwO7iytz68O+qBuQtbbkgL1bdugsKyPwFJt00vGL7lrgRwckKKhRBeyvKLi9vSzai7ZUjwW8Rdm1udxujA+Ul8E1lzyoldGrfQLBgFq9TfVqIl4W11GP7dpcKz0tLupYVLYNhm0UHnrfYVcGh9zYLAauLICPqydwSMiwOld40DjieidsmmpX9iHs6PRsjFnABmKM+ZfXL+qmmOXd+zz45AB1kVwUdtdhDAnwh2zOqXkMf5jwo/CH1XXEQny48N3Kt1Hwzy2epW9Ud+rRQpmuIcvFrmtjF9D+2pIW+i5Yugw/OoavHqsPwQMb+6hsb+3o3+eesGNj/ow1qvH6Efg1xmHYecTnr7QhxbYq+8q5LTHj9eR8LmTYeU9N+Jj5tuKS6MvWq/SQ8lPYVInKqH5J2QfG6LmewEmNkUus6eTltZs7EhfeE7aBwHIQED5U+Y2U/wqVFYnKwof4p8FLnyD3nS85pm7hF6pkaOy6JjHfbeKzTbvl2Bsj6RcBJAcCAX3+BEE9OUCvEyoSBPabA4nEAMlZTXLAOUq+YOuXq7ORRicdmRyo7l6jMvvngr7XKujPgwChQJIv5wFovk2BKP5KIF0W60/X0zJYYsLqXAbekzo2SQ5ofbge5Z2y/tsMep+3pW0evOd1uUzCh7djgTt7PCKjNk4tg/ehy3QfDbHkffLtmv68b97XMrf1Rd1sJn5TRY7xhYlFYdPupq4Hf8jmoZjH5XFxTPsOPre5T6O2ep+3pe2IL7P+o0qcwh8y+/jzK475a5geMRG+W/g2tbC1i9lyIS3qMW+mj+t9VtVweeI4dqZAQPCgZhsVqBUKEk9CvEjwR7Rfxo7AT/A+gYOox3DQx/U+qxqfR8wutj63YUKnpGzZjoLgRYCsaOT3hb6yjdBX1EsnGLxaoo0eI+tL1FOyvTDa0DIa4qTle5kpeb5SucHqCnnsuK1J+yyQqMVgHwgsAAHhQw/OSxfUp4HzOUvbbq7wbVfPldE+n1dd6nLw9dwduozLxzYQyBuBDTmBNn8iCRBLEtSeHCi+OfD5/o79CHHTbw7kDfER2ttHrLijPaJtJlWJa35hLQI/kYCDreM4ygLHgbZ0t3rF5XiAnurZJwdqMnRAqdSpVq+4o7P+GgfXf6lnoJ0fOwUVQuXiWBHEqsZE8h0GWle9r4Nhrl0xpqMxqAXdGQZCZ5Kf0tuNW2FlgyyJdroPvs+3D/XdYzBH2HImcokry/jHLxYjIxKLuEidmR+GP2R+X8zjkO9N+IdaMgD+8PKQT52Jz5qjH51CJ+G7hW8jX+jOl+63XFhTPf9EAHN2on04IEcBxOraYtnXnQyZ2W/GeVCo7gO/5UiCdhT2T/Bn9mgcr2AcvwQOQ84jYQttw4ROfOg1GTKAtt/xQBu7m1a0S/Ql6il/QWWHfIxub4OEzEe5pBWNqVa3HGjgeMX1I3R3uCXlFZUOzp2aDIm76wq/QGBJCMR9aDFKPy9r80P5Hu839LzR+zS/nQ/TZXqf1aX+fR+VbrHrmuB8Lw3XtmxJdsdYgIBDYNzkQDBZkP7mgFN0Hb/M6S10wOS0/cI7FAxKBSzodTjuqQLRtggauVcFyaA7lfE7QSlo5O4a1WW0L4Poha66XkrGgWAXH58YQywYxnVnsjsFw3jgTI8thQHHhsmojUPL5HqrbW7T2l27rK7ug+/z7ZQMjv1Ct8VFXeY+xF+AxsYRuDCNVZ3rcfjDxBynOdp4bjN/ZOe23ud+jW9T/7yu9l26rtNXH2cyhM5UX8t0MgK/8IfV9cFCfbS//lHjE75b+Da6LowE70U95uX0cbFP8tidxqKMycDmJAgIHhy8azNiR2HTBH8mGeGwnQr8muIg6jH99HGx33Qeafwp2OXspstY32JT16N9F0xjATnbhsmv6dvQj/B2fJvrJI4n9BP1EsmBg1xvqLvXUevEcLF9ORsonYS+WobE3XeFDSCwIASEDz1qXrI5xr8FwJOFFieqV/mv1k8OiD5obkbmdGq+ty5bkMExlF4RwGuFYk8MuOM6GaD3d4c/SNyrxWYvbPkXHnTS8YvjWhBFBUtEoOS6+NhuKDmg5dj9KpDN33/vPtjrEgm1MidfLdxr9dhrKWplTobWS8mUga9y7KpNVLYIaFFbFpyy/fDgFW2z7xEoXON9cHskZCidyb5Rmapvaw+HV6qd7oPv8+2UDI3/AvflRd3sHV6loHtXtj/SwBeKRZxvmNUG/CHzMWoe2/OEOhb1KzX/B39YPDmQ8MUL9H/+2iLDsQnfrXwbJUrD3w9gi3HyfK6d+3XekO/zbd+GL9RdI/xOgYDgQep9zyk7qrI4f6YY4bB9Cvwa4zDsPKrhz4JYtTJ1J6xDK1WPyoLv7246flXP+xHbeTNsovolZbvRFb81GU1w0vKZyKg83cbulz5QldVkROzDusUmEMgaAeFDU+egRBnNm+pVZzoZoPf5ek+X6f2qruhDzdvCh4XndC9lWVsYyg+JAJIDLgkQ+60lA4rvDeC1QiUt9WuEyLkt/MKDTjp+AW8DP/zR9mqbB++pTfHH76Kn4A8dL47ZDwG7eidbs/VPB7jAeSmjVlYGvW1bLp8FrWygwfW3MZukjCopEQz+86CFCnyFgmHyFT1M9tHBsBOz3Z6UOHI5NM4mGFCdiIzQOIRM2R8F+MI21bqwdroPse9s4+zHx8NkcOwXuk245vrPfiDPzWF2V5xcqLLR6YtBVpTLJtkL/rD0tWJOx47F5rZOBuj9wn+d2W+0JHyZ9Qu8D+dTSn2830jICI0D/rDiucdQY7rufeG7a76NFsTuvKkD+YEy3V7tC197ujM7fydzLp5zuXoKHthhUnCktL2yVdyOro272zrAkYVCKPBTvC/uUJ1iHjl7bMxG2TCtEzcSt6Gza1Fug2S7XXldzf2D69fV5zJYPY2T3i/vriVsN+7aLFnH9ccSlm4otXaugH6dvkfg1FJeu7nDxsXVxjYQWBACwofacaXmZaiMjjH/MsiTA7oPujfitIotKD87RNmCTI6h9IgAkgOxpIA7XksO7EzxkWJj7AeJTfyVQmv5ILFwWLFHx3sk7dSi6KTjg2EIEoyEBQ+MtQ3A9CGjbd9o13TO1C/qpp7x6D+FAPzhFHO7D1/Wh4wpxo4+m/rSsevBd6c85XrKwINutgZ+3fBDayAABNaNAHzouu2P0XdDAMkBlwQY6Pfu3buGQMa/5SBAJ52xF93or49AVh8yEJgamou4qMvLV8IfTuET+vBlfciYYuzoc2gf3FY+fHdevnsobcGDbsgCv274oTUQAALrRgA+dN32x+i7IYDkwEBJAXpqYC1PDnSjYH6t6aTTdvGMdgjsgANpDuCiLi+fCH+Y5jPmO/BZCwfgu/Py3UNpCx50Qxb4dcMPrYEAEFg3AvCh67Y/Rt8NASQHkBzoxqAVtqaTzloW+xgnAltjcwAXdXk5VfhD+IixfQT6myfn4Lvz8t1DaQsedEMW+HXDD62BABBYNwLwoeu2P0bfDYFVJwfolT/37t0zFxcX5v79++bBgwfm4cOH5tGjR+bx48fm8vLSPHnyxDx9+tQ8e/bM7Pd78/z5c/Py5Uvz6tUr8/r1a/PFF1+YL7/80nz11Vfm66+/Nt9884158+aNefv2rXn37p1xrxUiR4U/YAAOgAPgADgADoAD4AA4AA6AA+AAOAAOgAPgADgADoAD4AA4MAcOuNTCt99+a3L927QF0r36Z8hfnxz48cZsJUUaCAAAIABJREFU1J8DH795IUB8w52L87xzEXbJ3y40v/AvHwTgD/Ofc/CbsGEfHIDvzsdvD6kpeNANXeDXDT+0BgJAYN0IwIeu2/4YPRCYfXKATITEwHKISiedPhbSkIGADDhQ5wAu6vLylfCHdQ5jXgOTNXIAvjsv3z2UtuBBN2SBXzf80BoIAIF1IwAfum77Y/TdEFj1a4WGfGLAyaYnB+gfTw50MxlaT40AnXTWuPDHmBHwGoMDuKib2sMd1z/8IfzCGH4BfcyfZ/Ddx/nOpdYGD7pZFvh1w++o1u/PzelmY3b7o1qhMhAAAjNGAD50xsaBarNHAMmBQx8kvrM3n5sr8wmvZ48Zc8sYc+vD3nzMy9S2fq3Q7BnRRsH9jn1P4dScv28jJJ82dNLxgYqrM3MS/J7EiTm7OrCYt2235vL6QL1a+ZU5O9mY7eWx7Xj9hjKCOhZtCYfa38mZuQq24X1j2/PH2RaY+TmV9UWd8IU7c3C9aRemDerN2D3CH8If1vyZ82ttf+EPvT/sHdu2NmnQTvjuBfi2GbvdWasW5cHYnBi7v56sEsWvJ/nHiXlvzk/7DZ7vdxF5Q9orIjuqy3EgGWMa4hTRo95d3/LqPeAIEFgqAsKHLnWQGBcQGAgBJAdUMN/d8V/8XpjPKAEgkgPFsc/3dwzV+Xj/wdy6urDbsu3OHuPJgYFsOK1Ye6HDEgI2OJZ3sOsQoHTS8Qv2LkGM1m0bBvaTi/mGMg7peKg8qQOSBL3waGEYZ3tRpxZ9789PzSZ1O5pPJOTtL+EPmR+DP6zOjV38EnDsB8cuNmjRVvhu5Q8PXVehfDkIzIYHmXJwNvhZSjYMUh9B32hAPlN7FUNviFPjMfYt7wgDoSoQyBwB4UPN3uw2ea+zMjcH1M8MASQHIskBG/Q3xnx+dSWfHKg9SUDJgg/m0ztFMkAnCFxyIDNedFCXnDBLFnSQNNemdNI5Kqh7uWV32LsnBS7N1t95Xx6zAZHqbnz5ZACrf7I1W/HkACvbOPksYOUX+axeUxmHgjSh8tox1q/QjxIUJ+bsrMLn5OzKXDO87L7Vn2RszdnZSYmlfjIj1gfHISGDdC4x2XgdEzKZjlV911ekne3jzJxttY1D9UPHnPxl/8qLurl6gQZ6JRaBtDjekJ/c0yPteV+0wh+y+VjzfdfmunYsNrfhD4tzXgif0DGGuz/H4Zi/NpkAE+G7S/+3s76uOOfJXCldK7pzIfOB1O50Z3anVFYet7Jc3chdxw1cMqqMg0DFA2VjcU6k4OepOT+vnjw+pceOfdJ8Y+y+V1nJ8seNaOM5YwNCjjOHeHSMLqTHzpxT8t/yt//1ToUf3ZBeXCOMO48Y1uVcrOYuK3Pzk9vCb8fr2eTArrJ7ITtUP3SsxOT03Jw38i2lfQT3SMm2sv0ApYymONX0aCjPtnN8dj4wNIbQMd4HtoHA8hEQPhTJgeUbHCPsFQEkB2LJgYuL4nVBOhmg93dIDnBG2rtlT8/Nkt8sRCcdvwCvBX50cIKCGlXA/oqC29vLor1oS/VYwFuUXZvL7cb4QHkZmHbJg1oZvdonEBio1dtUrybiZXEd9dhCga/6sajs6+LpBYnHJoHPxmzc2CwGFa68D5tccPUEDmWAyZVxGRbvCg+yL5cpMLlO2DTVruxD2NHpkrC37DtgAzHG/MvlRR33LnltH3xygIaTXCjmMV74Qzbn1Dy25wl1LO5X4A+9f2+MGcN+YX7QX2NkNC7hu8tglg/wUtCXXRtSgDBYVraTwUgWgF2Az8zDs7fXss4DHpx3iaDizmj/dF1pd7nv6lL8v+KLPLdSMLSqJ8oEV6hejEfH6FIGXx2XB3hauo5fNXabPHF927xIpKzDPOJYu2SNm4+8TGCt6MLrhXT2voDbiG+rsYm+yrEF/Yd+vY/zOwnZQr+kbDnI2hjZtwt4WV33iq9cIm8jcU9wt+m4eEfYBgILR0D40DI5UCV0XXKtAIHmHdUv/sJzc+FwYXhAQCCA5EAkOeCfAAgmA4z57KJ4UsA9YeD2fbtS7mqeHCgvqOzdsEvODNDHpWvJAXdSYb8u6GsDySzozxf6KgAigwE8AM23KRhSBJGquyyrIPl1tL9DMriOrG5Sx3oioB4MI1kR2XYcvKy8c9Z/q4G3pW0evOd1mb4WX96OB48SMmrj1DJ4H7pM98HHxNrpPvg+367ZkMng/FnotryoE+erPHaO8YVqYZfHAKWW8Ids/ot5XB4Xx7Tv4HOb+zRqq/d5W9qGP5TnTGaHhfrGuY9X+G7t28S+DOgWd/HG7vCV/qaoiwW8RmVO+1EeCA6Ud+v79YLe5wFRvk0j5fzRZQwJ0R87bje5DN233ud90DYPLum6up/j96P4kSgxJj4GKmR6inohHXRbV0cfp/G58TL5trquG5Mh21EwziUbqIXfFzrLNsLmop7CRJc5lcRxrTfrS9RTsp0s+6tlNMRJy/cyU/J8pXKD1RXy2HGvI0uIaTHYBwILRUD4UOsXWRKV5oxLsFLykDujheKBYQGBYxBAcuDo5MDO7GzCoPgg8ef7C/PphypZsNrkgGPdAHfRONFz+aWTjl+ki8BPJDhh67jEAQscB9rSXaUkv/grg/6RejY5UCvTAaVQgKo4Rn1VCQbXp/st9azJV2MMlYtjRRCrGhPJdxhoXfW+Doa5dkp/0R+VaTlOZy7vkIyU3i4porDyiQl33P1GsOR6822bHHBt3a8cu+ffAoNgxJVl/KOF2oGFmVjY5Tlqspfno+Cxm3fq19YJ8DrQFv6Qz3vuv/j2IV8Gf+j5uUB/OaexCd+tfRvf59vW7bEAa62s8Iu4uy+f80OUB8K2zOaaA3afnz9p250z3C87t1q5seMykRTm0bG6sL55cLsnE0XxI/kcQ76tMayVFcqFx88UD7TzwfsyyEb6VX8Si0IN/bpEie9+J9t4+aLvhM1FvQAmLvDHhtUaN92Xkxk47seRwinQLowZS5qUfQZtx+Xx7UJo8eoun4BzyuMXCCwbAeFD7Xzk5wHyLW7f+Rnpk5aNDkYHBJaPwKa6SOEXLIe3dSA/uF97ckB/WwCvFZIUI0e7bCdLfPML8kBAy5eFAhH0Khv3VIFoWwSj3auC5HuqqYw/HUDBHh7Y52X1oFGhzzEyWDBP6MiOu7GFysUx3S+XoYNWep+PhW+TDF5X96Hruj71cSZD6Ez1tUwnI/DLbZpqp/vg+3w7JcPhvuBfeVEnvUtue9ViMaJ5bTEXqTfjw/CHzCeIeVweF8dSfoX5Izu/9T73X3yb+uF1dR+6rtNXH2cyhM5UX8t0MgK/8IfV9cGC/XToOkf4bu3bxD5fnJNzY9eNop4rY3ca18pn7BxXqlqUB8J2MmBs7Otg+NqBcaIW3EkA614jQ1VEfyQvxqNjdeF66rYJ3RoWRfELjskFuaiQYSbG7spi4+eKkQwuk8bn2uky3o5v63pMr1oyhckXOmsZTL6op+ysy1wzcVzLZvqJekq2k2V/tQw2jhRftXwv85A8ZwOlk5CnZbBx+X6wAQSWj4DwobX5qOcJ4VHM3+qbNcvHCCMEAktGYNrkwIHkAb1WaF3/ln8xQicdvzCuBVFUsEQESq6Lj+2GkgNajt2v7hrl76l2H+x1iYRamZOvAhO1euy1FLUyJ0PrpWTKJEY5dtUmKlsEtKgtC07ZfnjwirbZ9wgUrvE+uD0SMpTOZN+oTNW3/sZBtJ3ug+/z7VTfGv8F7suLuoy8Jw9KWLUb+EKxsMtorExV+EPmY9Q8tucJdSzqH2r+D/7wsvRvccwY9gv0hf46I5OxCd+tfZvap8Rp8J3hqp4M8LrAGA/OMmeEzVkgEOWBsC0FY7gd9b48f0b5os+7fJ/3x7cJJbvv+td9632uC21vqldR8P56Qj+Kn9e7Ct5HcQmOt2onxy8Vr8lkSZVaWegu/TIBEJzfZZl/lQfXk2+nZKh60keQ7QKBdNUmOg5VT8ruASctn4ms6eRw123sfsldVVaTEbEP6xabQGBxCAgf2ig5UEBA8wdvGVocHTCgIxHAa4WOfq2QfFLgkytjbl1dmOBTB7udWXxygC6M+V0mdKGy8IsROun4RbsN/ISfUuHBe2pT/PG7/Cn4Q8eLY/bDs67eydZs/dMBLnBeyqiVlUFv25bL14ET1x992FfL5zKqpEQw+M8DFSrwFQqGFXeduvEz2UcHw07MdntS4sjl0Di5/jEMqE5ERmgcQqbsj4JVYZtqXVg73YfYd7ZxuvPxMBkc+4VuE665/rMfnnNzmD9BpRZwfnyx477C/DfIXvCHpa8Vczp2LDa3dTJA7xf+68x+kyXhy6xf4H04n1Lq4/1GQkZoHPCHFc89hhrTde8L3619m963C3Z3HtVBS7Zv47in1fn2dGd2PPg3fxe5Og0FD/gdmYIDOgCv93lAniAsg/L2/OqC+gW0FNChPos/zp0iUOzWKOL8LHik+9b7XJdie7dznJS69GFsgZ/AzCU1+Bg5Luy4bnfUPHK4bcxG4JS2gxx7RK8y6E9r5sJeHD/XrxsHl8Hq6bHp/RBXknVcfwF8a+34KJ2+R+DUUl6au8R9NwaOmTvGdcY2EFg+AsKHJpIDYl7ROQSZgeWTAyM8iACSA0cnB3Zmd3FlbpnimwO3PuzNxwkZa/ggsXSuy78YoZOOD4YhSDASFjww1jYA04eMtn2jXdM5Iy/qDp7DUGFiBOAPp5jbffiyPmRMMXb02dSXjl0PvntiZzyT7pfNAwq+skD1AJgvG78BAINIIAAEgABDAD6UgYFNIHAkAkgOJAL7sacBjjm+huTAkZzLvjqddMZedKO/PgJZfchAYGpoLuKiLi8XCX84hU/ow5f1IWOKsaPPoX1wW/nw3Xn57qG0XTYPkBwYijeQCwSAABDoA4Fln4P6QAgygEAcASQHkByIswMlQQQQDENwpm3wBO0OcwcXdUG3M9uD8IeHOY15D4zWwAH47tm66VEVAw+6wQ38uuGH1kAACKwbAfjQddsfo++GAJIDSA50Y9AKW9NJZw0LfYwRAa0pOICLurycKvwh/MQUfgJ9zo938N15+e6htAUPuiEL/Lrhh9ZAAAisGwH40HXbH6PvhsCqkwP0yp979+6Zi4sLc//+ffPgwQPz8OFD8+jRI/P48WNzeXlpnjx5Yp4+fWqePXtm9vu9ef78uXn58qV59eqVef36tfniiy/Ml19+ab766ivz9ddfm2+++ca8efPGvH371rx7985+kJhAJkeFP2AADoAD4AA4AA6AA+AAOAAOgAPgADgADoAD4AA4AA6AA+AAODAHDrjkwLfffmty/du0BfKYbwe0reu+ObD58cbov255HbSeCgHiG+5anN9di7DJMmxC8wv/8kEA/nAZ8w7+E3bsygH47nz89pCaggfd0AV+3fBDayAABNaNAHzouu2P0QOBLJMDMFu+CNBJp+siGu0RiAEHwhzARV1evhH+MMxjzG/gsjYOwHfn5buH0hY86IYs8OuGH1oDASCwbgTgQ9dtf4weCMw+OUAm4k8NwGR5I0AnnbUt+jFeBLrG4gAu6vLyj/CH8A1j+Qb0M2+uwXfn5buH0hY86IYs8OuGH1oDASCwbgTgQ9dtf4y+GwLutULdpEzbOqvkwLRQofc+EKCTDoIU8w5SwD752gcXdX14qfFkwB/mO9fgJ2G7PjkA3z2e351zT+BBN+sAv274oTUQAALrRgA+dN32x+i7IYDkwG5n2n5PoEk7/s2BbqZC67kgQCedPhfUkIUADThQcQAXdXPxdM30gD+suIt5DCzWzAH47mY+c+m1wINuFgZ+3fBDayAABNaNAHzouu2P0XdDAMmBkZID3cyE1nNCgE46aw4AYOwIgA3JAVzUzcnbHdYF/hD+YEh/ANn58Au++7C/XEMN8KCblYFfN/zQGggAgXUjAB+6bvtj9N0QQHIAyYFuDFphazrpIGCRT8ACtsrLVrioy8upwh/mNb/gD2GvoTgA352X7x5KW/CgG7LArxt+aA0EgMC6EYAPXbf9MfpuCCA5gORANwatsDWddIZaXEMuAjdr5wAu6vJyqvCH8Flr91kYfzEH4Lvz8t1DaQsedEMW+HXDD62BABBYNwLwoeu2P0bfDQEkB5Ac6MagFbamkw6CAQiIgQPDcAAXdXk5VfjDYeYB/AtwzY0D8N15+e6htAUPuiEL/Lrhh9ZAAAisGwH40HXbH6PvhgCSA0gOdGPQClvTSSe3RTv0RaApFw7goi4vpwp/CN+Si2+BnsNyFb47L989lLbgQTdkgV83/NAaCACBdSMAH7pu+2P0QGBDTqDN327gxADJv3v3rqEMDP4tBwHiGoIMwwYZgO968cVFXV6+Ev5wvXMVfhq25xyA787Ldw+lLXjQDVng1w0/tAYCQEAh8P7cnG42ZrdXxxe6Cx+6UMNiWECgIQKzTw40HAeqZYIAnXT8gvjqzJwEk1Mn5uzqQODAtt2ay+sD9WrlV+bsZGO2l8e24/UbygjqWLQlHGp/J2fmKtiG941tzx9nW2Dm51TWF3X7HZsTO3PwOtxesDeoN2PfCH8If1jzZ86vtf2FP/T+sHds29qkQTvhu3P1bbnqPaNzhODBSHrtd8sJfAn8cuVjrnqPxNfju3lvzk9LjveBbR8yYoNoI7tNm1j/rY4zfFu1rzeK+qQhxxqRHdWlrvaBIw1xiuhRF963vKIH4UPrneIIEAACCQTwWqGBnx6gJwfwb1kI0EnHL9i7BDFat20Y2E8u5hvKOKTjofKkDkgS9MKjhWGc7UWduhh+f35qNqnbdHwiYWnJgTYJz2tz3dqXNPRlyXnSUMYhHQ+VJ3WAP4Q/zJsDwncrf5jNVWCues8IYMGDkfTqL/g1ksKJbgR+ufIxV70Tdpm2qGEQtamSQ9qnjew2bZqOtVG9nvE1xkR90uRjbQRIpFJDnBqPsW95hdrCh0ZG0u3w3uw2063daH15ev4+OQTi36E6SQEoXC0CSA6MkBzAa4WWNb/opHNUEONyy+4mdoGzS7P1d96Xx2xgqbobXz4ZwOqfbM1WPDnAyjZOfijIwOo1lXEo2BUqrx1j/Qr9KCB3Ys7OKnxOzq7MNcPL7tuAGsnYmrOzkxJL/WRGrA+OQ0IG6VxisvE6JmQyHav6rq9IO9vHmTnbahuH6oeOOfnL/h3+om4kf5S4OKaLts3m1Jzv6VHf6S4w+0AC/pDNx5rvCyU9YnMb/rA454XwCR1juCPpUl2TTIhF5btp4ezOc86/hY6RB6LgwKk5P6+eurILWp885QvcYkF+TolXK//UyPVxpA/yxac7szslnUp9rH92Orq7zlV77cP5fmOZfXjZvGRUPCDzEvbn5tye8wq8fc6c42mpwM+Hx/CiDMTtKg75Pix0yq4OzpANXdmEvxV+Ib1Dx0jZY/AiGTuT/zziWHBfwI87/+O4yPxA0P6RtgQx80nej1iedMEzMje83NJHlf7L8lrPGxPR2Y4vJD9UP3TMKiH/s31rvymr2Dnv/CwVHdFmF/ITVnxEPztGZtOm/WmZHF9dxsdiy/h/Eb1ccqDmk0L1Q8ccX0P2c/3zdiX/LdaM80dzw8nmv6yfpjjV9GgoL8gV1r+3RehY1UflQ6tj/W5R/xznfqUfktYkOXBIBsqBQAwBJAeQHIhxA8cjCNBJp3lygIIaVcD+ioLb28uivQgkUT0W8BZl1+ZyuzE+UF4Gpl3yoFZGr/YJBAhq9TbVq4l4WVzHQDBG6WlxUceisq+Lu3UlHpsEPhuzcWOzGFS48j5scsHVEziUASZXxmVYnSs8aBxcpsDkOmHTVLuyD2FHp0tjzAI2EGPMv3z4i7rIxO758MEnB6i/5AV0zwoNJA7+kM05NY/hDxN+FP6wuo5YiA8Xvlv5Nn4Xm/SNxZ2D/ikrFxxw0V0hpwwInJ4be8+cDdZVC/RoH6VMJ9LYgAkLJvI+YtvaXx8jcyDfO1exdR6wBA/ZzNmPY63xtcHuTfX0XYm35Im0fUxuc17MA9E6fnKc7m7Qdc+jwm/4Oc14xe1tA/qCby4R6K6/2H4Z0A3jK4OBEvvmfimkj+tPlCldXGIilBzg4xV6lXMmKF/NvagMMSVonBG/yesJ2ce0ifiJEBYxm6Z8O9cxJJO9k78ZHkVSMohvKT/okwQ+UkZj+5X+scb/hGzBL1svjjeHimMheKgwrOte+a1m8hJcaTqusiPhQ925xN+wwF7PtTu3r+sq7FTOY1+PcZ3k8uQgxQ55cqDEk/qlP28XxwMvM4yJxc7VcY2VTM8z67rkkwOh9nSsakNj433LfbKx010mPrnlsL0WBJAcQHJgLVzvbZzkQGVygDvVctsFfW0gmQX9eRAgFEjy5TwAzbcpEMVfgaHLaD/Un66nZfA2rG5Sx9BdsfqY1ofJtuPg/ZZ3zvpvNfC2tM2D97wul0n48HYscGePR2TUxqll8D50me6Dj4m1033wfb5d05/J8PzgfS5rm+ZX1v/8BZ26sAwNSl3whqrM/Rj8IZt/Yh6Xx8Ux7Tv43OY+jdrqfd6WtiO+zPqPKnEKf8jsswL/6a9NJhir8N3Ct6lFvw3guIVqecezf0Je7/O2tM0X3rwur0dek/bLPoQuIY8aqavb8X2+HRLJ+w+WL/dgnAcuIBuxi8CU25aw0vvS3hTccDEVql3ty3rH8WIaG8XxS4ylhk8KL5LD8eJ1E30I+4SwobYB2+p2fJ9vh0TG5lG0HdPBymPj0W30vu2LX7dxWUxOTU8qS+HpfB01ZHJ0/2Kf903tyEZlH7V6EZ1FvdTcYzp5zLjOtQGXB7SO5WHdr2jesI2QodswfUU90VFaxxqvGL7cRlaK7t/1o48zvYQPKup7nyR0lm2S/om349tOHfoVxxP6iXq6HReoZTTEScv3IlPyfKVyg9UV8thxW5P2+RwwNtDtpVFQ350c+LaVKdv5NrRB5S4JpThRBOPdHNH9s33enxDOdsTY3HE9Ru6jSTUW+A+2V3VqfGfym+jo1MLvKhBAcgDJgVUQvc9B1oNhPBATCETY4JBLILDAsQgaFe3obnWSX/yVciP17JMDtTIdUCr1qdUr7uisv8bB9V3qGWgngg+hcnGsCGJVYyL5DgOtq97XwTDXrsLqKAxqQXeGgdCZ5Kf0dgkQhZUNxiTa6T74Pt8+1PcEQR9h84H7J64s4x+7QIwNKHJRF6s+x+NkL88PwePS92i+2DqBuRNoC3/IfR78YXUe4bhEeKZ5h/1qng6EhfDdwreRL3Rz3v26Rblc9KaDwHWf6gMudvHrZLvfsg+hS+VFqW3FqX6CmkGZVZer2IrzQAWhtF3E/jG8oGSA41MBcRdeTG2kOH6YR942xBUfuPNHVXCUjjMeCX4pLloRKXxdfeczON8Sfkn32VSfWjuW8BJlCZ1FPad/wM+lfCeD1m0e9HG63zJQXvO1TiD96jZ8n2/bNgmbljLb6ljEkBOYpnTmtrVj5hwZwH6H+H8MbrW65UADxzv51qS8os+g7Xg7vm2bMD6UagsfyoPffJvkaAypnF+ruHLezvZBHCnnUq2M2drPLcmFUs1Cex7odwV2jM7XVL8ux8GTA3zbNadfeZzpayvxfcf3uI5cLraXjwCSA0gOLJ/lPY+QThxHBcP4QpxeZeOeKhDBsCKo7F4VJD/OSWU8AUFBdHfXqC7jASQeNNH1UjJYO6EjO+7GFCoXx3S/XIZOBuh9Pha+TTJ4Xd2Hruv61MeZDKEz1dcynYzAL7dpqp3ug+/z7ZQMh/uCf8VFXc9zd2xx1UV0pOfaRW6k3owPwx8ynyDmcXlcHEv5FeaP7PzW+9x/8W3qh9fVfei6Tl99nMkQOlN9LdPJCPzCH1bXBwv20/4aiI1R+G7h2/hCVDszvbDX+9TWLVr5NsnhdRN9CF2oHdVld/ry8ti27e68+kYMr2eHlJBpy9fzX5wHKgioMRT73LYW/OLbFP4JE8kFea6lts6+x/BiHjaK45cYi5gLh/CS2GU5jwRXuN00Rmysuo3et37B3Q3MZQa2KSDoAoe2nfNRGvu2+uh2jNNCb12P6SrqpeZeQgYTl/SbvJ7ol2S7uah0iLbR9bR+tF/iLfoigQ37q9ma4Vsr44ry7YReZULEBXOLORZ78iPCOT02vs+3uUrieEI/UU/jzQVqGQ1x0vK9yEPyIlwR8rQM2ufzTz05YNu6ADurR8f9HA5gwMtrCQCmQ62MJwfcwAvcQq/skUH8sj7v24lgv7wN32ZVjkgOuFZxHV0N/K4DASQHYsmBO3vzuTHmVvn32cXO7HzdO+bTD67synzij/M6xfbdu3cNgbzof+QYfaaVOd6FDprG6hfGtSCKCpaIQMl18bHdUHJAy7H71d2R/P337oO9LpFQK3Py2aKd9K3VY6+lqJU5GVovJVMmMcqxqzZR2SKgRW1ZcMr2w4NXtM2+R6BwjffB7ZGQoXQO4uUwUX3rbxxEddF98H2+HbKV61vjv8B9sTDOyYeIxSIpXr9grQ3HXrRGFga1yvM8AH/IfIyax/Y8oY5F/UPN/8EfXpb+LY4Zw36BvtBfZ2QyNuG7lW+j4K1//63wlbQg5deNep/7Udpm76EXcooFebAPpUv4LtVSB1GX913ciecX96JeJLCgAhbz9OD9a5XigcQ+ge9Rwe7C9v7VEco2Ue6pev0j0U5iCr/oWI7CawnzqAhk+eArs2UUI1bHWkbvlwHdoA9Rvka8v70MSHv+qbpt9am1c0F2pXetngt4qnpi7qmyqAxOYdWmkMd9d1mZ1+PbVGz3D7Tx9apr46h+QflVu2h/IVs7fENlDlOOx4F6pLPnBNeTb6dkqHrCfna+BwLpqk1r3Ng4azKa4KT0YOLsK9/EHHPydBu7HzovJ871ZUfch1Lw3PsJrgjJ53ZV+9TOJwCVbrbMPTmg13qqLu+SsKzpEqwvz41cBm2LhECwvaqjzg9Sfyk9qKNPtchAAAAgAElEQVSsgj0gMHsENuQE2vxVwX4d1L8wnxljfELg4srcMh/Mp3eKep9cGXPr6sImC/h2SN7ikwPWKbETPV0UeYc5e+60UpC45hftNvAT5h8P3lf8rD8BsCmfCrAfvXVcPtmarX86wAXOy35qZWXQ27bl8nXghIJNTWRUSYlg8J8HKlTgKxQMk6/oYbKPDoadmO32pJzrXA6NswkGVCciIzQOIVP2R8GqsE21Lqyd7kPsO9s4+/HxMBkc+4VuE665/isuuBw3mF+MXLzJi/08Rw1/yPysmNPl8dqx2NzWyQC9X/ivM/tNloQvs36B9+F8CtPT14E/9OfyhfrTMccnfbe+C60MSNrrFOYb1aJV3sVMPpEvkovt3e60PP9yOa5uM/8rfPXpzuz8neZSb17v9Py8epVAwKfzuhshM0/f3lZrwQONk9rnmAl8j+JFeafmzt2o1J4XbcfcZzuBXxkErNZVmEcV1jEs+HEdKE7sW8G8reQRBc3INsUfk1P6qGZ+ibVTc6F+Peh80cYIf6LbueSE9q26nth3sp0+8XFXeLsEaYlBzMeJftq1qWPB9XM6u2QD2y8Dp95OMR3toBwGCt8DPOB4uCcV6pxI+STXr9Obj41xTuGYxqRsp9sIbrj+ArjV2vFROn2PwKmlPH4+EJxP+kE2rlJtsof/Z+NSbt7SGM6NfQCNdHTbZWXRP934y8p52en53pyfsn5FH5UNeRvLkVpmoOhY+BZXx2LI9GaxNZLrEyxlgslzvmyv68gPKtOHmAv9m+ro8cQGEMgAgf6TA5QM+LA3H/snAoonBYpkASUOqkTBzj5hEH96gJID6/pHJ7nKMS5x7OSAx1xwoy8XcO8aJOfBNR0ow/5ceCYu6pboQBY2JvjDKXxHH76sDxlTjB19zsVXaz2G993Lv75cwulheB4sAaX4GIbHD/Mojn6bEuDZBjW0AQJDIcB9qLwTnhIdy45RDYUp5K4HAbxWyCcA9NMDfJ89SVBLBqhkgZK3tuSAzUCyTOsSpxKddPSiGPtDB2z6CGT1IWPocUI+v6hbov9Y2pjgD6eYs334sj5kTDF29DnX643hfTeCcDmcP4bnQQ4otNdxePwwj9pbJ9QSeIZQwTEgMBUCwofqO/DdnflTKYd+gcDMEUByQAXzQ68G+nj/oXqSoEVyYPHfHCCSe+e7/IwsnXTmujiHXggc5c4BcVE38xMo1Cs+/JU756A//CY40J0D8N04IxAC4EE3HgC/bvihNRAAAutGAD503fbH6LshgOTAgeSATQwY9togJAfSjFvbNwfwnmIkSsCBXjmAi7q0i51bKdkLgdXugVVgCAxz5wB899y88zT6gAfdcAd+3fBDayAABNaNAHzouu2P0XdDAMmBRHKgSAyw7wtQXSQHDjBu+Y9X0kkn90U89Ecgaq4cwEXdARc7s2L4Q/iSufoS6DUuN+G7Z+acJ1IHPOgGPPDrhh9aAwEgsG4E4EPXbX+MvhsCSA5EkgO1JwZ8PfWNgVqygH+rYGfomwOreK2Q5yGSAwhIjBuQAN7LwhsXdd6ZZrFB9sIcXNYchD1hzzYcgO/OwmUPriR40A1i4NcNP7QGAkBg3QjAh67b/hh9NwSQHPBBfxbUtwF/9cQAq/fJlTG3ri4MfZ+Ab4e+V7D45IB+jRB9ewAfJEawDK/aAQdacgAXdd1O6mO3Jnu1CSSiDQLQ4MCyOADfPbb3nWd/4EE3uwC/bvihNRAAAutGAD503fbH6LshgOQAC/q74L4N+Btjbqm/zy5cAoGeHnDl7HsEAVmLTw7YbxGf2g+QkTPebHZm342Ts29N40RQY1lBDdhzPvbERd3sXaBQEP5wPnMHfgy2mJID8N3CNa52BzzoZnrg1w0/tAYCQGDdCMCHrtv+GD0Q2JATaPPnkgFD/q4hObA2ChLXplyAo28EgJbMAVzU5eVR4Q/hj5bsjzC25vyG787Ldw+lLXjQDVng1w0/tAYCQGDdCMCHrtv+GD0QmH1yACZaFgJ00kHAoHnAAFgBq2M4gIu6vPwl/CHm9zHzG3WXyxf47rx891DaggfdkAV+3fBDayAABNaNAHzouu2P0XdDAK8VCrwKqM8nCejJAfxbFgJ00kGAY7kBDth2Wtvioi4vfwl/OO18gb8C/nPhAHx3Xr57KG3Bg27IAr9u+KE1EAAC60YAPnTd9sfouyGw6uQABe7v3btnLi4uzP37982DBw/Mw4cPzaNHj8zjx4/N5eWlefLkiXn69Kl59uyZ2e/35vnz5+bly5fm1atX5vXr1+aLL74wX375pfnqq6/M119/bb755hvz5s0b8/btW/Pu3TvjXitEjgp/wAAcAAfAAXAAHAAHwAFwABwAB8ABcAAcAAfAAXAAHAAHwAFwYA4ccMmBb7/91uT6N/vXChHImx9van/d8jpoPRUCNHHncqce9MBdo0vjAM0v/MsHAfhD+KCl+SCMpx2n4bvz8dtDagoedEMX+HXDD62BABBYNwLwoeu2P0bfDQGXHOgmZdrWWSYHpoUMvXdBgE46CB60Cx4AN+B2iAO4qOvincZvC3+IOX1oTqN8HRyB7x7f/86xR/Cgm1WAXzf80BoIAIF1IwAfum77Y/TdEEByYIRvDugnB7qZDK2nRoBOOgh2rCPYATuPb2dc1E3t4Y7rH/5w/DkCvwTM58gB+O7jfOdSa4MH3SwL/Lrhh9ZAAAisGwH40HXbH6PvhgCSAyMnB7qZC63ngACddOa4MIdOCBgtgQO4qJuDl2uuA/wh/M4S/A7G0J3H8N3N/eaSa4IH3azbC37vz83pZmf2R6vy3pyfbszu+Iasp4YyjtWxaf2m9ZjGXTb3uwherfVoiF9jpfuW17hjYwz1fWrO3x/ThupOqXMDXZvatmm9Bl02qjJyf3Plfi8+tBHgqAQElocAkgMjJgeWR591johOOggkdA8kAENgGOIALury8qvwh5jHoXmMY+vjBXx3Xr57KG3Bg27I9oJf6yBhH0HZhjJa63gA36HkRrqda4C0UrehPaoGM9jKUecAbCNz0Yzc31y534sPDZgTh4AAEMgDgSy+OZAHlNCyCQJ00kHgY32BD9h8HJvjoq6JF5pPHfjDceYF/A9wnjsH4Lvn45en1AQ86IZ+Hb+92W02ho5v9NMA+115nJcF6tugoZOh73Rn9U93ZieeHGBlum8xTFavqYxkIJPJ25R3ntfq8zrsKYmm9bj+1Ob03JzvAhhpeWrfBkh3lR38UxeqXhG4Dci3erCxNMWP61/bbikvyCcSTvJ25vz8tOSbfhqA9Sd4QkF+VtdiMgYGB/SN6UHHS/yrucbHFuFiSp7Ho8TivOLKKT1SwTC3+96WvF/F7yBXQ/VDx3wHxYYd85K4byxH1SixCwSAwIoQmH1yYEW2WMVQ6QJ97ot06IdAUq4cqC+MV+FWsh0k/CF8Ta6+Bnr3y1347mzdeK+Kgwfd4NT4UfDZBQ3fU3DWR58p8FcFDUWZDVa6MqqnA7SujGKTlXwXqHRd1MpOz03oDTG1epsqAcHL4jpyzNRd4xQ8pX7FmKTeKbm8fzu+0BjK4K7DWdRT/eq7s0m+1Y+GwOvybRtcH9YGHMHamJvYo0wAuDdKCUxtGRunDWiHOSTb8eTA8DysMCiD4s7WQt+EHiUPHP9rrzcKcvGQPIdTwWs/f8u+5L6re4jfas66cQrOJWRUQJWcbSZP8JtSRjPkPg1N+1A+XGwDASCQRgCvFRrhtUJpE6A0NwTopIOgQr9BBeAJPB0HcFGXl0eEP8TcdXMXv+vmAnx3Xr57KG3Bg27ISvxU4FEEcHUZ61cFCVmJvwu8CAKTjCogKYOhuizWn67Hg/u6Dasb07HR8aZyWX8WBN2uREb3yff5NlVX+xQgrYLJRcDU7qt6w9qAS9djbmgPncDgIsvkQDXORNBfcJTXEwIH4CGXTxhwuzTUQ9tM77suYsdtOcNf1NM66H3OTb5NQmMyFR9FfwkZbhz0K9qo/VRZmRyoODEH7hcDkz6UDxbbQAAIHEIAyYERkgMEMv4tBwE66SAIsu4gCOw/nP1xUZeXr4Q/HG4uwM8A25w4AN+dl+8eSlvwoBuyEj8K8FWvYaGyTe0pAFcevzOdNLJ3+XpZZUJAB/94wK9WpoOZ5Thr9ViQsAwqF3orPQPtrEQ67u6E5lCK+glceD2+XQiXr7lx8nU9vs+3qb7a3+8Y7kn8BrSBG0dAPzpUJTASuPm2yk5Wtg40N5VZ58xgPLR6uv9S+hZ1GulBtj7IxabyNBZ6n+ucsJPin+CjKEvIcDDRr2ij9lNlllcz4345LulD+WCxDQSAwCEEkBxAcuAQR1CuEKCTTk4LduiKAFNOHMBFnXI4M9+FP4R/ycm/QNfh+ArfPXNnPZJ64EE3oCV+FODjd/YnZLtXnlAVEdQrgoT+Dt9aGZdPAUt3x7Xum/ZlMLDQRtdLyWD6Cz2OPa77jLXX9SJj0Lrwfb5N3aj9KvBuCyv8RD3q1+GqZWgdU/hF9GfDF3eZ2+MpeaKh3OF8skkebnuS6fa1/lyMrjcmBk4/0qehHsJm2k5sXKJewraiHtdB60T73LYJTIVMpaMoS8hgQ9F8FvtCnupLJJ3ceEr7inYJfPgTEVYnwshxROtP+9ymfBByW/pQWYY9IAAE0gggOYDkQJohKK0hQCcdBBiGCzAA23Vji4u6msuZ9QH4w3XPV/hr2N9xAL571q56NOXAg25Qa/wo+Bx8F74I3tpIXYN337sAXxVkq8lnQexaWegu6jJIKHRsIkMEEDlmPEDo9N2Zvaof1a1pPdHluTnlSRghQwYl7Tv1WV3SI/jeeC6Db1O/dr9fG/Dh1LBpYo8Un9wTIC7DpOrW+vM8YQHxUTEoAtLeLlzflB66zCYVXLDa2U1xUbex+6VtRRnDwhpL70ueRTEVMplOnldVsi8qg5MlJU8kLIi29EFqKd9jzOXEtr2Ow3GfutA+lA8X20AACKQRQHIAyYE0Q1BaQ4BOOm4xfH11Zk78Y7ruUUz6PTFnVweCBrbt1lxeH6hXK78yZycbs708th2v31BGUMeiLeFQ+zs5M1fBNrxvbHv+ONsCMz+nsr6oowWInxfVBXTNibgD/ALaHcvsl8br+Wx5HPAL8Ict/PyK/ST8YTWn3Dkig99efHdrn6gCiiP7UQrCuLjZyF3PrrtGPGht59kNt3eF6viVgU57bVEF1ahj4h3VL/74NUcxH1wgrwjqlfVOd2bn784lKa4ufXBWl/G+uXw97KYymP5JDvB+Q4FWO3r2yqWUXC4rMgati9rn+J2en4unOezc37lrv7geXEYd56b4Mf2VjtIiTeUxfZN8IgxPzW5HwWHikWxX3PXueMjLSI9qfzwM0vpG9QhiyvlTjkXVayZPYiGfZnB8rrCKYqr6Fnf6+7nseBLQXRKl9iSMlOcSAoVt8+A+kgPaxNgHAscggOQAkgPH8AV1y4y0DIa1CfBfmyKx0KZtw8B+MpjQUMahIM2h8qQOKw5+aVyAow+G1RfGmbgddcFuFwupaJFPJLiL+EzGqdQke8Eflr4M87jigvZxx+wDx35wPAbzHur24ruVH1XuJrFbBMNSLjfRuHMRkgMVhI140NrOVT9L3WqE31IHj3EdhcB+N9b1YxFsP39/lHqUbmj8KphjJbv6YQyG79f1j99pEAjbvdAFPnQam6DXZSCA5ACSA8tg8oijoJPOUcGwyy27s8clAy7N1t/tUx6zARF354V+MoDVP9marXhygJVtnPxQ4J3VayrjUJAmVF47xvoV+lGC4sScnVX4nJxdmWuGl923QQuSsTVnZycllvrJjFgfHIeEDNK5xGTjdUzIZDpW9V1fkXa2jzNzttU2DtUPHXPyl/27mIu6RPCjuNvv1Jzv1aPsI/qxvrqCP2Tzseb7Qkng2NyGPyyehgvhEzrGcO8hsO3P6ZBVXd8ciUXdd/O7FlUQyydH6XzoygL1rR+tzpky+M/qt77jmXlC6uv03Jyzu7F9f9qfq31597B+ioDp6cda9hvEwemUaOeqzPA3zQN55+0uhDWNKWZ3a6Pi7vaKNzMEoYNKdfw6CEPTBSPw3pyf70caH/kiflf74W793fT+FUOH2xxfI4bB8foe3zdaTIdAzO6FRvCh01kGPQOBOSCwISfQ5m83cGKA5N+9e9dQBgb/loMAcc0HEkLBILGgpqBGFbC/ouD29rJoL9pSPRbwFmXX5nK7MT5QXgam3WuFamX0ah+hQxFEqdXbVAkIXhbXMRCMUXpaXNSxqOzr4ukFiccmgc/GbNzYLAYVrrwPm1xw9QQOZYDJlXEZVucKDxoHlykwuU7YNNWu7EPY0enSGLOADcQY8y9fykXdwScHyCWqAFOOXhL+kM05NY/hDxN+FP6wuo5YiA/XvpsC5u495NIfUuDGJQTK1xa4KLzwiSrAI8qKV6o4+aYMsjsxvG9b1iRAZeVXOot2qm/tu23C1/Wh6sZ1SeAQeo+7kz/zE4XkgXqig+xE40hhre825niW7ZydZw5FK/Ukfq1EoBEQAAJAYLUIwIeu1vQYOBCwCMw+OQA7LQsBOunI5EAgOeWCvjaQzIL+PAgQCiT5ch6A5tsUiOKvBNJltB/qT9fTMngbVjepY+iuWH1M68Nk23Hwfss7Z/23Gnhb2ubBe16XyyR8eDsWuLPHIzJq49QyeB+6TPfBx8Ta6T74Pt+u6c9keH7wPpe1nf1FXRm8qL+TNeAHedAjUJzDIfhDNv/EPC6Pi2Pad/C5zX0atdX7vC1tR3yZ9R9V4hT+kNlnBf7TX5tMMFbpu1Vg3wZ8XUJAlzFPl/SJPJjOt6k9D0LrskR/rGsd8Bf7Wi+1TwkAHrCu9lO6pPRKteNKz29b8EDh5LXVx/W+r0gbDItkPdEo2x2BX7ajgOJAAAgAgWkQgA+dBnf0ugwE8FqhgZ8eoCcH8G9ZCNBJxy/AReAnEoSwdVwCgQWOA23pbnWSX/yVAZ5IPfvkQK1MB5RCAariGPVVf42D67vUsyZfjTFULo4VQaxqTCTfYaB11fs6GObaKf1Ff1Sm5TidubxDMlJ6uwSIwsoGYxLttJ58n2+XSYwwZm4sy/2lcS/jXyrwU45wAYEOshf8YTkfxTwOHUv4h5rf0n6M+y++XfTj/XlNBy3H+Y5jZKT0hj/0/J8gID+nvqXvJv/nzpHul72Wwvq+2HGXRCj8pL0r38sqywK+0wfka2X6Q5CRM4xux/f5NjVX+/sdG1t5179NFqh6tY9Q2vImODQcQ2RoYx4WPKDxhZ540Ljo/RJDklX8xe0+5tjG6EvgN0aH6AMIAAEgsCAE4EMXZEwMZXQEkBwYITmA1wqNzutBO6STjl+Q1wIxLvAS+aVX2binCkTbIvjiXhUkP1ZMZfxOUAr28MA+L6sHfApdj5HBdBc6suMuCBIqF8d0v1yGDlrpfT4Wvk0yeF3dh67r+tTHmQyhM9XXMp2MwC+3aaqd7oPv8+2UDIf7gn+XdFHng1UxjxQIiMSqzvU4/CHzCWIel8fFsZRfYf7Izm+9z/0X36Z+eF3dh67r9NXHmQyhM9XXMp2MwC/8YXV9sGA/7a+B2Bil72Z3ex9yXu5VM1RP+MQiweDvyK+V8STCnJ4caKkLx4HfLW/xa5BsPoTzSOWCB8JmTAF9XOwn7C7qMXkL2hT4LWhcGAoQAAJAYAwE4EPHQBl9LBUBJAdiyYE7e/O5MeZW+ffZxc7UvlFg61yZT2Iy1vLNgfJdr+SMG71KI/PZROP0C+NaEEUFS0Sg5Lr42G4oOaDl2P3qTnn+/nv3wV6XSKiVOfls0U761uqx11LUypwMrZeSKZMY5dhVm6hsEdCitiw4ZfvhwSvaZt8jULjG++D2SMhQOgfxcpiovvU3DqK66D74Pt8O2cr1rfFf4H62F3UisENOrkEwZwGBDvhD5mPUPLbnCXUs6h9q/g/+8LL0b3HMGPYL9IX+OiOTsWnfTclR8U0Adwe59pV8n/tEvk0u1e5Xd+jX5G+qV/vUylzfqevPYH8uASH9efGxTVdWfP9g47IYSk5UFz5ue8oo38df6hhtlxrDDMokD3iixNlwZ/YKI5EUCpaVdtdlMxhv3ypI/PqWDnlAAAgAgWUjAB+6bPtidMMigORAMLB/YT4zxviEwMWVuWU+mE/v8ARBUeeWWXlywF6oV4u14qNw1YJpWPpOI51OOn7RbgM/7rFn+cuD99Sm+ON3+VPwh44Xx+xHb129k63Z+qcDXOC8lFErK4Peti2XrwMnrj/6sK+Wz2VUSYlg8J8HKlTgKxQMK+46deNnso8Ohp2Y7fakxJHLoXFy/WMYUJ2IjNA4hEzZHwWrwjbVurB2ug+x72zjdOfjYTI49gvdJlxz/VcEjBw3mF+MBTRixzMCgOwFf1j6WjGnY8dic1snA/R+4b/O7DdZEr7M+gXeh/MppT7ebyRkhMYBf1jx3GOoMV33ft13F3eAF+dK5g9jr4yxfq8IJm/KDxYLn3q6M7vTKgHgvjNg5dfKeN8Nr0m1P1b7XJfT83PxUWUK5NMNRKGxFolid16QulC7og39yrJUuzmfImg88h+3RSTIn8B6w22r6sl+lrFXxy8yrhVgERk5DgMBIAAEogg09qFRCSgAAutFAMmBUHKAkgEf9uZjX3bHfPqhShZ8vP9gnyj4/OrKfL725EBt7si7q2rFCzhAJx0fDEOQYCQseGCsbQCmDxlt+0a7pnMGF3V5OUn4wynmdh++rA8ZU4wdfTb1pWPXg+/Oy3cPpS140A3ZxvghOdANaLQGAkBgkQg09qGLHD0GBQS6IYDkgE8A8KcC9LZ8kuDji4sicYDXCtXYZ++savL4dq1lPgfopDP2ohv99RHI6kMGAlNDcxEXdfn4QtIU/nAKn9CHL+tDxhRjR59D++C28mfvu20wld+pz7flkw15eeF5aTt7HswLrpo2dfz4kxfu6ZJDx8DnGrA4AASAwCoQqPvQVQwbgwQCvSCA5ECD5IB9UkA8SVAmD5AcqEjoF13LvyClk07bxTPaIbADDqQ5gIu6yq3msAV/mOYz5jvwWQsH4Ltz8NjD6wgedMNY48e/PWFvwAp+20J920F/z6KbSmgNBIAAEMgGAe1Ds1EcigIBINALAhtyAm3+ah8YDiQKilcIRb4rgORA3YB0QVp7b2q9Ws5HiGtrWexjnAhsjc0BXNTl5R3hD+EjxvYR6G+enIPvzst3D6UteNANWYmfflUr7ZdPD/DXCvHtbt2jNRAAAkAgawSkD816KFAeCACBFggMlhwoEgP6Q8TslUMNkwMtxpRxE30hm/FQIqrTSQfBiXkGJ2CX/O2Ci7qI45npYfjD/Occ/CZs2AcH4Ltn6qRHVgs86Aa4xI+/PsjdCBf4qDMlBxb+StduqKI1EAACa0FA+tC1jBrjBAL9IIDXCgWeFqAnCpJPDLg2SA4EWIjkQB+LbMhAsGatHMBFXcCtzvgQ2WutXMW44afBgYoD8N0zdtQjqgYedANb4seeFNBi+dMCfFvXwz4QAAJAYEUISB+6ooFjqECgBwSQHHCBfv5rg/6JJwZc3YbJAQJ5sf/0a4RWcPcKnXQQEKgCAsACWPTJAVzU5XW2gD/E/O9z/kNWvnyC787Ldw+lLXjQDVmNH//mgOHfEhAJAfXNAVHWTR+0BgJAAAjkhID2oTnpDl2BwNQIIDngAv3s95MrY26Z+t9nF+yVQlQfyQHLX/uBLP/dh/JdmFMze8D+6aSDAEa+AQzYbt62w0XdgM5rANHwh/OeT/B3sM9YHIDvHsDBZigSPOhmtDp+/NVC5SuFbBdFQqD6zlugHpIE3YyB1kAACGSHQN2HZjcEKAwEJkMAyQGWFGjygeJj69y9e9cs+smByag7Xcd00hlrsY1+ENhZGwdwUTedb2vTM/whfNTafBTGG+Y8fHcbD7q8NuBBN5sCv274oTUQAALrRgA+dN32x+i7IYDkAJID3Ri0wtZ00kFwIBwcAC7ApSsHcFGXl1OFP8Sc7zrn0X4ZHILvzst3D6UteNANWeDXDT+0BgJAYN0IwIeu2/4YfTcEkBxAcqAbg1bYmk46CGYsI5gBO87Pjrioy8upwh/Obw7Br8EmU3AAvjsv3z2UtuBBN2SBXzf80BoIAIF1IwAfum77Y/TdEFh1coBe+XPv3j1zcXFh7t+/bx48eGAePnxoHj16ZB4/fmwuLy/NkydPzNOnT82zZ8/Mfr83z58/Ny9fvjSvXr0yr1+/Nl988YX58ssvzVdffWW+/vpr880335g3b96Yt2/fmnfv3hn3WiFyVPgDBuAAOAAOgAPgADgADoAD4AA4AA6AA+AAOAAOgAPgADgADoADc+CASy18++23Jte/TVsgj/1+QJv6Pjnw443ZqD8HPn7zQoD4NsVdeegTd4OugQM0v/AvHwTgD+GX1uCXMMbDPIfvzsdvD6kpeNANXeDXDT+0BgJAYN0IwIeu2/4YPRCYfXKATITEwHKISicdBAoOBwqAETBqwwFc1OXlK+EPMc/bzHO0WR5v4Lvz8t1DaQsedEMW+HXDD62BABBYNwLwoeu2P0bfDYFVv1aozZMAx7ahJwfoH08OdDMZWk+NAJ10ENhYXmADNp2HTXFRN7WHO65/+MN5zBv4L9hhag7Adx/nO5daGzzoZlng1w2/3lu/Pzenm43Z7XuXDIFAAAgMgAB86ACgQuRqEEByIPZB4jt787kx5lb599nFzvjEQKpMydOvFVoks/Y79j2FU3P+fpGj9IOik45fhF+dmZPg9yROzNnVgWCFbbs1l9cH6tXKr8zZycZsL49tx+s3lBHUsWhLONT+Ts7MVbAN7xvbnj/OtsDMz6msL+qEL9yZg2tJu+hsUM97n/ltwB/CH9b8mfNrbX/hD70/7B3btjZp0O6g727q71S9/S4SmOP1Yts1l/nenJ9G5NXq8uXUkg0AACAASURBVANt23EZ69g+yIMBYIhyZIC+hhbZGD/O+aGV6iy/xfzpa3xN5UTqteZWRF5nKCEACACBJAKNfWhSCgqBwDoRQHJABfOLBMCF+cwY4xMCF1fmlvlgPr1DCYJUGUsglHJ5cmCRFLMXPywhYINjeQe7DtmJTjp+wd4liNG6bcPAfnIx31DGIR0PlSd1QJKgFx4tDONsL+rUQvD9+anZpG4184mEvP0l/CHzY/CH1bmxi18Cjv3g2MUGLdoO5bsbBeeU/41fx7UIUlphbdvFNVlqyVA8SOHViCMpATMqa4xfY87PYXAt5k9W4wtgnLv+gSHhEBDIAYHGPjSHwZi92W1YnC0LnaFkzgggORBKDlAy4MPefOzL7phPP5TJglSZr18lCVxyIGeSHKf78p0YnXSOCupebtkd9u5JgUuz9Xfel8dsQKS6G18+GcDqn2zNVjw5wMo2Tj4LWPlFPqvXVMahIE2ovHaM9Sv0owTFiTk7q/A5Obsy1wwvu2/1Jxlbc3Z2UmKpn8yI9cFxSMggnUtMNl7HhEymY1Xf9RVpZ/s4M2dbbeNQ/dAxJ3/Zv4u5qEssDCmQsaGLvT09rr6y5EBw7gT4bv2IniuO+6x+U1/m/WAHGTXf5mSVv6Hy2jGmu/c11B7+sDjnhfAJHVPY1+yLcn+dMhI23neT7zs9N9VDpBQYDPg7nyClec78oPKdNvC7+//be5cUOZLlezhXVYNawH8fNUkuzaVp+tvAT7Ma1vQiCoRACEQhEIJEIARCCIRAqBDqWS9Ac23AP8wj3OOY+SMjMyIz43EKivSnuflx8xMRZvHonlCNMVdsV0r7E1g5L2255HrrtvjkgO/X8UyUva/fYSfGq2od7UBmLfhe37k7f8xrcI4Y45qFttEOWpu569b9Wh5LBpvx+RbZoo34elj/KD/o1tiDsr9W5qV+FH6iRMlGLX7eiRRsGZxJtf6ltUlwA3lqHNi3CWCAu913fWTY+ZXmEcaV+hF5x5V0bMfJ2nTQRX5b/bcntv2qfdTWdx+eOBemicCMEEg4dHK6t8e37iRpchpSofUiwOBAxqEfXx8U68zTArE88ySBqtu6tQUH/N2y6uRseZtLDjrxojtx/FiHhDg1Oof9ozi3bx6a/qqvtAOHt6r77R5uNi46ylvnWggeJHXyap+MMyBpt+leTYR1ZR3t3H6730ZPj4spK8r2zrCNwcPmA3atcyjMzWMQ6jL4hHYKh4oMr3OHh8yjrHdlTWv92jHUOgY9e2OWWQM1x/nXT/+krh+n7X1yQMS0F497Xz/Ub8iLtCIfwp4z+5h8WOFR8mF3HrEQDu+421z4ts60fxXfieOwcywqvlTtxB+8cZtwXol1fdKu6R8dya1zuXFQiw7g9ER51X4XodrZDNrZQTjGbZzCP7eWMjuFv9jQpnv6ztfZfGc/RRsx65ja2TGvmDrtUij8vIO6YKMZvGLgRezc41yx8RbT7Nq4Bv9Unt5PCk8Di6yJkg3v7ce6ogw1v8o84rjj847SX9mtmVuoi7oEey60U3MLbYM9H2L7FVyq61vph3NgmgjMEIGEQ6/v3E6e5m5vEoj7WubW7pNQFzlPyrd3zXGo3d+eq8KNBqGh6d/J3rltNjjX7m8lR/ZjCOzKL3C+PwYEbkj17cab4UJR5UkiwOCAceangYGt+8/ul3mSoHsyoFYnslYTHIjkiIQ2SZsfrJQcQHRwAAm9TQen72/j9EcnQM6RFOvRAY1pcUThK4FsXWk8287KgMCE17l1vFd17BMcsPqgHu2dsvHbDDaPfSWNzntsizIFH+wHjjtfXpCRzNPKwDFsnR2jJ5Y4JqYT/XFsHGuZaX1SN3i7nl/AIVzo28JJ3/m1HTwi+RD2odrHbbkqs9yBexs5TfraPPaVdIHLPH90gVPyIaxPPL6yLJ7DjIgJcrdcRIeL1phWfGecU8hEql3jjAzX4dJMHIs+j+1KaXthbZ2eOK5qK/ohNxtnqerHDCKAdqAd/sGx0eKKayYCVN44ev264fWFtp9oE60iXV63a+4GL4yPk7hgWuGX6AF2iXhhOumDBYX+0gRlYBq722CF2jPYEMbxxbh/KmuCIoo6SCMrv+kYucZPp+UgJceODQMm7XD/Qz/VzuAG4hSeUo79MG3rElu3ewF0wfF8GnCpjmE7Qj9bxTwRmBkCmkPFtiFIpzjM7iXI+/0Dxxy7nzwmdt/gXjXjSv8YRMR2GXBVWxwD09Jvj5yMaBYRgX0IMDiwJzjgnf/u0f2RaVerC0GG1QQHgqX5u7LwhCpULOdXDjrxwlo5fgoOB98mBBDAcZzpK3eri/zmv+ygl3b+yYFEhnUotTol7Zo7OtPXOISxWz0z/eLcxamQq1dljROrm5PIDxhYXW3eOsNCv2ZOB2OQON0BA6WzyK/pHeZtsPJOlko/OwbmMb1v7BGdOWotJyJXbGUZf3ISByeWuUllTzZzDadbJusV7UjZMfnQ46IwqfBDEgwgHz7s49SJcFa0/5Xro7g7XtzCxavlO58Px1HgStNut4W6Q4MDRpYwaec4bnhV8t05StlxbPtNl5Uvq1liBxhkwfXAtKis8mA3fjo2r4+vRRvxjiBcX0m39qTGuyxmOLrCr63Ya6Myl+h4QmlNem9/aYZ4FOUJ7gU8cViU1ZZ3+2eYjGSv2nE9DmAvVhefD3MAbsF2mPby98nLXPdaGZjHtMhXeRjLju3z2val6OD19XIK/do6/hCBuSKgOVT2i96fkYvEZ4V3HuD5gexJ4FQMPEZc/L4NXNL9NiLtuJi3e9wPDOch8LQkBkKr40WtmCACq0dg050odBuzT1lw4Jd+G+d/+BBx97SAtK/VobzVBQdURHaZtim2FZ0ByvFTcIahw0BehxOeKlB9G6dReFWQdrpLHd4JKk6jcNeorZO8dqI3utp2NRkwD6UjlIc55epVmR0XZVjnl83jXDAtMrCtHcO2DWPacpChdJb2VmaQkfnFNa31s2NgHtM1GQH3Bf/qk7p5c0g8AS1NQ10QlhpNu5x8CJyg9nFbrspqvAJ85Pe3zSN/YVrGwbZ2DNs26GvLQYbSWdpbmUFG5pd82J0fLJin4zkQzFFzd3vxK99VCRfYNb6Lr0GxjjLrzBe5Yz05IBfr8FoZpR9eyAsHw7jTpuSLa6fsQGFq1rZWl9wRaZ0psj6dY1cfa3Gt7DoCPHZ8qLpkUuHXBjei/wp1LqWV8hUbx/7SB/OYTuRpR5uqjhmLe881if2NPjUcsE+wm8G8Y/WXfCGoVMLKlmMe06K/yltbt3nQpYaLkmnHEBkl7lOAMkMEZodAyqGas+LxYozgQDi/SVDKcUjQw+zp3F6NckGOtIvlyYAsIAJEoEXgJMGB2lMBtToMDEhaggPr+sOTlmXOXA468cI4caIYZ4lylPxuPrabCw5YOT7fOfnx/ffhg70hkJDUBflw0S76Ju3gtRRJXZBh9TIydRCjnbvpU5StHFrSF5xTfhx0XkkavkdgcC2PgetRkWF0zuIVMDFj+/UIdTmcQ50dA/OYrsmw+C8wr0/qZsQh6NzyavfgQntCOKPpBlXJh8AxZh/744QpK3OV5T+bJx96PC3/LpAD/TxnOC/L3XKnnZSF1wspB5jlS8wbXpQL+Xh3H9b1Sbd3AkYdZJzgFMP+Qmg+rx3O2X6B/PibRUDZQRbj4CDRx8jGXkKdcZ4Ep2/8gKPuW7SR3PoH54rVLTub8xfuxy/npBa8Ms5eO0e08Wwd4p+RV8PTQCVrUto/SV1YE5SB+mFa2uA8sI+vGo93lP5Bx6wuATdQptpO2+/Rtp8dI2cfAbNWz1o/mAKTRGCOCCgObQNocS8r29f7UJ2jSLuw5wUE1S+gYvqHYv8rdcgLmDfHNzOW54M4NvarjacGZ4YIHI0AXyuUeV3Q9snO/eXyTwxU6zKyFh8c8BdaQH6G4I62zAl3lINOvHj3jp/8EyvovJc+zX/6BMCmfSrAfwg4tLu6cTfx6YDgOG9lJHWt09v3RfngtPKOBnE29ZHRBSWyzn90WhjHV84Zpl/RA7KTYMA+Z9iVu7m5anFEOTLPPhg0zrWsjNw8lEw9njj48mtqdYF+dgyVD2sT1g/nAzIQ+4WmBde5/gVnWGMbnZMpf1JZOtmc1+xlruTDlmvVni6Vlfa25T+bb/jr1n+jpcJlnhdwjMAprT6RNyoycvMgH3Z2HjG0mK47n3C3v5gu86B36IZzHryINhfh0k5utqnyKvbBtKfTxnHq+19v3RacqIqzTV14WiDXb14sfV5tlR3YtTB5xP/67g6cKcZ50iM4kLURP3VxqIRztrI9nhel8mgKP3B2J3ZosGzew5/OEzHeoI3b/jbfOtX8uOGu+RqeyZTK+66kqxJh9CnOQ3UK51Xlde7LO1pHc51b4auojtHfngfifIbYPso5ZH2L/eIEmCAC80RAc2jjXN/C6wPjk1gyvfaGgYTnZP9GB32Dg+KOIMTv88C78hu4Ap36fiA4vkmsof1Acisn5uVYJf7EOLaRUxxvnmtFraeHAIMDGYf+H4/O/e3S/z/vt65WZ58aCE8OCMhL/lOEFklxuTOWA0h0htFJcCYs0DF2rANmDBnHjs1+ffeMPqlbLo8sZWbkw0vs7TG4bAwZl5g7x+zLpeduR+5eCqsPmwftgPgNQ4C9iQARIALHI6CPQca5frzYC/Wcu/4Xgo3DHo0AgwOZ4EDOyX9s2fq+OXC0Lc6mI51hl3DOjOHIGkPGJea+rjH1Sd1saGG1ipIPL7E/x+CyMWRcYu4c89xO/77jkbtXexhQE6cdKDgOzhC/gyFjByJABIhAREBz6Iyd6+EpgfCUQpwhE0TgdAgwOMDgwOmsa6GS5aDT92KZ7ejIoQ0cZgP6pG6hJLKgaZEPD7Nv8gHxWqoNkLsXROwDpkI7GACec/71WcMksDcRIAJEYL0I8Bi03rXnzIcjwOAAgwPDrWhlEugMo3Nnqc6dKcyLJ3XzIlTyIflwCrxBHS5vh+TueXH3qbSlHQxDlvgNw4+9iQARWDcC5NB1rz9nPwyBVQcH5JU/T58+dff39+7Zs2fu+fPn7sWLF+7ly5fu1atX7uHhwb1+/dq9efPGvX371u12O/fu3Tv3/v179+HDB/fx40f36dMn9/nzZ/flyxf39etX9+3bN/f9+3f348cP9/PnTxdeKyRExX9iQBugDdAGaAO0AdoAbYA2QBugDdAGaAO0AdoAbYA2QBugDdAGaANTsIEQHPjnn3/cXP83xwJ57HcEDukXgwP/t3Eb8z8srsPel0JA7I13KV7+LkWuwTLXQPYX/+aDAPlwmfuQ/Mp1PdQGyN3z4e1Tako7GIYu8RuGH3sTASKwbgTIoetef86eCMwyOMBlmy8CctA59KKZ7elooQ30swGe1M2LG8mH/eya+584Ld0GyN3z4u5TaUs7GIYs8RuGH3sTASKwbgTIoetef86eCEw+OCBLhE8NcMnmjYAcdJZ+kc/50ZF1KRvgSd28+JF8SK64FFdw3GnZHrl7Xtx9Km1pB8OQJX7D8GNvIkAE1o0AOXTd68/ZD0MgvFZomJTL9j5NcODJzv3lnPu7/f/zfuvi64TuH2P53+6X++8TqDMfOJbXCslfCA5cFqoTjb7bwvcUrt3dvycaZyJi5aATnRKPt+4q+z2JK3f7uOfC3fe9cQ+/97RL6h/d7dXG3Twc2g/b95SR1bHpKzgk/1e37jHbB8dmOtpPWFtiFvfUrE/qFBdu3W4fZ/175643Pdrtk3PBevIh+TDhs8Brx/6SDyMfjo7tsWvSo98sufvUHHxq+cL95xjjgGPMJexgt9247d4D7gGTuGDTOn7/urvrHnM9l00MHefo/j1xuOA6cmgiQAQug0CdQy+jE0clAnNBgMEB48xvAgD37k/nXAwI+GBAGwTwQQMICPi6R/dHVs62+yDx/y30Pdr+xA4CAt45Nm9n177NKwedeME+xIlxdN+ejv3qxXxPGft03Fdf1YFBglHsaGEYz/akzlzk/nt37TY1b0UMJMybL8mHwGPkw+7YOISXiOM4OA5ZgyP6zpa79530Dak3x4UhoubS9xJ2wOCAsY5z2d3QcY7uz+CAWXFmiQARaBE4/TFo57YXvLFLri+v99yJK8fEfW1oMEQghwCDAzmnvjj8f+3cf2LdE/ffXxAsiOXyxIAEEiBYoOq64EAO/GWWCWFCsGCBkzzYGfZwA3fYhycFHtxNvPO+LfMOke5ufP1kALS/unE36skBqNsE+eCwihf50K6vjH1Omlx9UgbjKv0kQHHlbm87fK5uH91vwMvnvf4i48bd3l61WNonM0pjIA4VGaJzi8km6liRCTp27cNYhX5+jFt3e2PXONc+VxbkL/v39Cd1ZyKlykWvnLRthCd3S3xyoMZBv9X+7vZOxt49j9i9Emwf2vflssiDA2Qk3BZktb+5+qQMdI9cI/3Jh80xL4dPrsxgn6wv62Pw+UzYJNwdA6Cyj20QVM4Vw/6GOuHN6zt35zmyqVcx1ppMz7lBprm7utQv4ekj9coeVnKycmXt3f/XW7e9DliJ8/Pa3d11T+b6C32YR7zwr84Bzsdr+GT1P65Q2YGMWVpPq7fKHzB/55wPDmw7rJTNuL6YHzffsXsp/Lxw0L+1kTi/7JpC+7jvcmU5zbFdD9tRaybyMv1tG8xjWrr7fGEPo2yLA9bFOefmxzIiQASWjkDKoWPPWHgOzlvGFr9HXp/gwB4RrCYCRQQYHDDO/PjqIFVuniSAuv/sfplAgn7FkLxWSEBey5+/W/b6zi35zUJy0IkX3YnjxzokxKnROcsexbl989D0V32lHTi8Vd1v93CzcdFR3jqmQ/AgqZNX+2ScAUm7TfdqIqwr62jn9tv9Nnp6XExZUbZ3hm0MHjYfsGudQ2FuHoNQl8EntFM4VGR4nTs8ZB5lvStrWuvXjqHWMejZG7PMGqg5zr/+9Cd152HjvU8OiBr2wvg8qo06CvkQ9pzZx+TDCo+SD7vziIVwuOZuffFs+RDvalN1rXMwOr7FGR7PKWsypc46M8PFe6Wf4WDUy+HYVb0qlFqRn5t3dPq65s7o+PRZO77Ot/NTY5g7quMcavhU9D+iStlBDTeltz0eHjD/NjgQ7cTIxTWtY37EZE/QReHXzk3th00IfFXWtIKBsmul/xG2o8Yp9FdtzDqrusp8qjg0wSGFUeQMNUFmiAARWAECmkPbY0m8GaHlT+Ge7Z1/TVtz7BD+6QKT/gYudGZBYH4jfkAMDnge6/p2x/GGm0Sf5j+ck+hF8Mel0CZ0NjIjv3kK1U8O5PpLWddH5oZj67wcI/fpqDVmbskIMDgAjv58YGDrsgGA+E2C8lMDIm81wYFIYnBxttCdIwSqgwNIqm06OH1/G6c/OgFyjqRYjw5oTIsjCl8JZOtK49l2VgYEJrzOreO9qmOf4IDVB/Vo75SN32aweewraXTeY1uUKfhgP3Dc+fKCjGSeVgaOYevsGD2xxDExneiPY+NYy0zL/pr13yFc6NviCdv8Zk4+hH2o9nFbrsosd+DeRk6TvjaPfSVd4DLPH13glHwI6xOPryyL5zAjYqK52zj6FLXZOrhQtZyo8rafEmoyINPfVVw4N03kIx/DeKqdcXCakVVW9QN5vhHoqNpJpTg0UGebB1nYF9NKEZuBsW3VwLyyA6sP5jEtY6q8na/Nw/xbx3HwqYgocXY0ed2uubO9XWM13sBJj9hd4edtF21ScAhzs4PCmqq5QbnvYjFp5ag+VjbmQR72wTQ2t+WYxzT28WkYp4oDtpOOhfkl8llABIjAEhFQHCpO/XBwwLTnHjzGGiSkPgYZNac0zvjAy7pO8Q+OZ8THbJYDLafp459y/Gf7y+G0Z3Cgj45RWSbWgACDA3uCAz4w4MrfFNj2/ObAGozJz1FIRkUnlzdzOejEC2vl+Ck4HHybEEAAx3Gmr9ytLvKb/7KDXtr5JwcSGdah1OqUtGvu6Exf4xDGbvXM9ItzF6dCrl6VNU6sbk4iP2BgdbV56wwL/Zo5HYxB4nQHDJTOIr+md5i3wco7WSr97BiYx/S+sUd05qi1nIhcsZVl/NkTxsysCid1mZaTLZL1inak7Jh86HFRmFT4IQkGkA8f9nHqRDgr2v/K9Um42/NbOE7iRbhwYygPv2295cRs3vQBdizeAVfSBeVj2suEC3JbZ/Ogg0qqdgfMe0hwIDo0lCY+U8QnbXp0ibIDNX8TAKjVHTJ/HwxA+7LBgWAv4bdga0fPeNyOVfxU4KMZN7umiC2mfRewa1Rd2h1qOyi71B/byHiYx3Sry975QDvv80tkFOaHc2WaCBCBxSKgOBSd35gW3rB8531Y4Tix6Z5axH4eNXDeJ3W5448+PiHw2onf1nhOAz3a86UQ48A+mC7LBX2t/j6YKmOVdUS5TC8fAQYHKsGBJjBQfzKA3xywm0QIaNkEIwed6AxQjp+CMwwdBvI6nPBUgerbOI3Cq4K0013q8E5QcRqFu0ZtneS1E73R1baryYB5KB2hPMwpV6/K7Lgowzq/bB7ngmmRgW3tGLZtGNOWgwyls7S3MoOMzC+uaa2fHQPzmK7JCLgv+Fed1Fl6mVleLnLDyVxW9eSiNttq0oXkQ+AEtY/bclVW4xXgI7+/bR75C9MyDra1Y9i2QV9bDjKUztLeygwyMr/kw+78YME8Hc+BYI5V7pYL6Hghbi9UgeIsJ9o8NNWvRxGZwLd9+6l2Vi84n1XtjIMTdbJp1c/Kh8aqnZRbB6fNF3RL5IQxpH1PfEKXI3+VHVh9MI9pP+U7dx1vLrLztXmYf+Iwl7ZhrodgfuSER+6m8Nt7x3yYp7FJha3FQGMX1Vd9Yml7J36PcUr9bTnmMd06qeI5U1IX7tQV3WprXJgfTolpIkAEFouA4lDPI8HRDv4pKY/nJIY/BRmsTwIAwKlJHQYHAsQNX+Vuns0693HsIAJ+sQ+moUn/Jwdip7KOsQkTRGAmCGyEBI75L71GSMr3PjEQgwr8ILG2k+WflImtxQvjxIlinCXKUdJ+jDMXHLByfL5z8uP778MHe0MgIakL8uGiXfRN2sFrKZK6IMPqZWTqIEY7d9OnKFs5tKQvOKf8OOi8kjR8j8DgWh4D16Miw+icxStgYsb26xHqcjiHOjsG5jFdk2HxX2BendRpcpl2Tjm/RNUeXOhPWvGCd9pTzGlHPgSOMfvYHydMWZmrLP/ZPPnQ42n5d4Ec6Oc5w3kp7rZ8aPISOI3vw8U6y4mYx3aeYiHggO2kzudbR8AB/Y7SK0eMoczo1Vv+scEB5TQNOGzdzuih8Am6jvSr7CA7bjjm6WOkODk654k4KsCRk+Ch+wqu8dURZsz+mI8EwEAxCr828KH2SgjymHmqNTV1RQyUruhw72k7apxCf3MupNYZ+2Na9PL5zgaSOQQcchih00/NkRkiQASWjgByqPBNDDjixIVfkCdM3vNUqDfcpDjM8FvDW+EYhwPmggaB52x7fXzTUoQa4ZVBRrfQVrUxx0+tf+jR/ArPZvHSzZgjApNGYPzggP+eQOGJAfsaIWn7a+f+E4MF6QeJJ43eUOXkoive6dOSXCDTobIn2l8OOvHi3Tt+8sEpdN5Ln+Y/fQJg0z4V4D8EHNpd3bib+HRAcJy3MpK61unt+6J8cFp5R4M4m/rI6IISWec/Oi2M4yvnDNOv6AHZSTBgnzPsyt3cXLU4ohyZZx8MGudaVkZuHkqmHk8cfPk1tbpAPzuGyoe1CeuH8wEZiP1C04LrXP+aE65gG91FbfFksXBSN6f5y3qRD1uuVXu6VFba25b/bL7hr1v/jZYKl3lewDECp7T6RN6oyMjNg3zY2XnE0GK67rzlbrnI7I6TuYvfUF/hSsORNZmKf6+3bhvvHm8uyrO6GPlNUDfoBTrbdjZfJG17N55c9Af5lXmbi/n0SQJwHiS65Meo4VNU/4gKZQdWN5NHna7v7uCjiYcHB+TGrmaNAVevfx6P4nH5iDmP2UXh5wUHG5LXXGi7Rvx0XegTbBgxCGU5rbFdh2NxHLOeev/k+6t1Nv2L4+zBQY9bm19uziwjAkRgSQgoDvV+qnDMhVcFCfcYf5XiH/HrQT3WXd/t3N018IwaI897/thU8Lqr85rQxnMj6A2+NtElBozb4Ghz7OuC5LaNf9IynHv4DzE3+uO8ajouyT44lzoCfK1Qxqn/x6Nzf7v0/8/7xvHfPFUQ6ivfI2g/SFxfgvnXamIBspz/1LIzEPKMzjA6Cc6EBTrGjnXAjCHj2LHZr++ekf3Fv/kgQD68xN4eg8vGkHGJuXPMvlx67nbk7vnw9ik1pR0MQ5f4DcOPvYkAEVg3Asih+k54G3ReN06cPRHIIcDgQCY4UHvd0KF1//vf/5yAzL/lICAHnXNfdHO8MRxZY8igY+rUtogndcthjeXOhHx4CU4Yg8vGkHGJuXPMU3PwsfJXyd3J3X14p193B+FyjwDpzFZpBykMR5cQv6OhY0ciQASIgH+CLMJgj9HhzvzYgAkiQAQQAQYHGBxAe2C6BwJ0htE5c6zzhP322w4vjHuQ0ISakA/32zT3PTFagw2QuydEzBdUhXYwDHziNww/9iYCRGDdCJBD173+nP0wBBgcYHBgmAWtsLccdNZwoc850qF1CRvgSd28SJV8SJ64BE9wzOnZHbl7Xtx9Km1pB8OQJX7D8GNvIkAE1o0AOXTd68/ZD0Ng1cEBeeXP06dP3f39vXv27Jl7/vy5e/HihXv58qV79eqVe3h4cK9fv3Zv3rxxb9++dbvdzr179869f//effjwwX38+NF9+vTJff782X358sV9/frVffv2zX3//t39+PHD/fz504XXCglR8Z8Y0AZoA7QB2gBtgDZAG6AN0AZoA7QB2gBtgDZAG6AN0AZoA7QB2sAUbCAEB/755x831//NsUAe+v2AY9rH4MD/F5FgUgAAIABJREFUbdzG/A+L67D3pRAQe+Ndi9O7a5Frsow1kf3Fv/kgQD5cxr4jf3Idh9oAuXs+vH1KTWkHw9AlfsPwY28iQATWjQA5dN3rz9kPQyAEB4ZJuWzvWQYHLgsZRx+CgBx0hl5Esz8dMbSBvA3wpG4IO52/L/kwb8fc38RlbTZA7j4//05xRNrBsFUhfsPwY28iQATWjQA5dN3rz9kTgdkFB7hk80ZADjpru+jnfOnoOpcN8KRuXvxIPiQ3nIsbOM60bY3cPS/uPpW2tINhyBK/YfixNxEgAutGgBy67vXn7InAaYIDT3buL+fc3+3/n/dbl7xWyLd5dH9UPmosrxWSv/BKoUUu124L31O4dnf/LnKWcVJy0IlOisdbd5X9nsSVu33ccyHv+964h9972iX1j+72auNuHg7th+17ysjq2PQVHJL/q1v3mO2DYzMd7SesLTGLe2rWJ3WKC7duF1mjkPj3zl1verQrdJ9CMfmQfJjwWeC1Y3/Jh5EPR8f22DXp0U9x9+S47V93d71x272kbFn12H5WDuT7YoPtMA2ipphUdnAmBXfbY9b2TModOIzCb3Lrfux+OLZfBryhmBzdf8Q5ZKbFIiJABMZBQHHoOCIphQisBgG+Vijr2L93fzrnYkDg/tH97X65/z7RAYI/HiV40D84sEir8idZEBDwzrF5O7v2rZMcdOIF+xAnxtF9ezr2qxfzPWXs03FffVUHBglGsaOFYTzbkzpzwfnv3bXb1DxRMZAwb74kHwKPkQ+7Y+MQXiKO4+A4ZA2O6Ku42/DhvvOq09cf69g7tl9lRn2x6duuMtQlqpQdnEkBBgfOBLQ7dj8c2y8zr6H74uj+I84hMy0WEQEiMA4ClzgGjaN5TsrObTfgZ8s1YRkRGBEBBgdywQEJBvzauf/Euifuv78gWCDlvs0v91eP4ICAvJ6/5ZPYwc6whxu4wz48KfDgbuKd922Zd4h0d+PrJwOg/dWNu1FPDkDdJsgHh1W8yId2fWXsc9Lk6pMyGFfpJwGKK3d72+FzdfvofgNePu/1Fxk37vb2qsXSPplRGgNxqMgQnVtMNlHHikzQsWsfxir082Pcutsbu8a59rmyIH/Zv4s5qatcgIojYyMne7slPjlQ46Dfan93eydj755H7F4Jtg/t+3JZ5MEBMhJuC7La31x9Uga6R66R/uTD5piXwydXZrBP1pf1Mfh8JmwUd7f8t/Vc1+zjGCu13Kjy4oC7dnd33ROp1/I4agymbpzPx5NqOecMPGEDrVB3vXVbfHLAjxn62bvOK/3iuCYh8toxNvFpMJATy5xzar4hb3UxfUMfP86d6x7QbfGSAt/GyjF6niGb2MH1nbs7sR344MC2s5loa36+BsuAgceysYtuzULl5X4T/DZyY1pmXYNNBFVVfk77CNcHnGAle1bzlMln+ts2mMe0dPf5DL4eV5B9EIeEReEvESAC50ZAcei5B+81Hhy3e7VnIyJwPgQYHIgBAP1UgH6FkHmSYCvBgkf3R8/XCq0pOODvlr3GC5fzGfO5RpKDTrzoThw/1iEhTo3OWfYozu2bh6a/6ivtwOGt6n67h5uNi47y1jEdggdJnbzaJ+MMSNptulcTYV1ZRzu33+630dPjYsqKsr0zbGPwsPmAXescCnPzGIS6DD6hncKhIsPr3OEh8yjrXVnTWr92DLWOQc/emGXWQM1x/vXTP6nrxzR7nxwQMfYitZ/oSbUiH8KeM/uYfFjhUfJhdx6xEA5X3N063KIjX5z74dzQ8p7Ky0XzpnvqqpUTn8JSbSVm0AULLOdiXQguNE5jcfhZJ2QXWCj3q1Bvqyc6pVGO0k3NoaILtotp41SQco9rRU5F7VNUXcoOSvZVXwcbGDoFIofJvBR+Ya8qWxXXO+yx8fdRs9/jvok8UbHnuBcE10J/1caca6m6yjgD5n7YirM1ESACYyKgOFSCh9d3bidPc7c3EgSu82N6PsgEB6V8e9ecj7TnLp4bw80IgbRM/052M24aGG/PcZQc4aFOB3/zWLwDQOq68xMbzOzGGxNBylozAgwO9AgO/Gf3Sz1JIPm/dk/clsGBbu9EcoQLrq52USk5uOjgABJ6mw5O39/G6Y9OgJwjKdajAxrT4ojCVwLZutJ4tp2VAYEJr3PreK/q2Cc4YPVBPdo7ZeO3GWwe+0oanffYFmUKPtgPHHe+vCAjmaeVgWPYOjtGTyxxTEwn+uPYONYy0/qkbobUcQgX+rZw0jfD6ZIPYR+qfdyWqzLLHbi3kdOkr81jX0kXuMzzRxc4JR/C+sTjK8viOcyImCjuttyGeUwL56m8cX575x+eV6IzD9MiCC+iMe0HqXxzANtiel8/qW//1BykTORYvVuuT9oGIaFfph30EQdFcAhgGqVoLHTNqXPnt4PGgR18NR7F+A2CY9fh1CiV5Z8fvwpGak+JzsYZr6aBewfTlX5g10pUkgF52AfT2MeWYx7T2MenYZyj554IZQERIAJnREBxqN/H3U0E+tgs+90ep9u85wmoy/IG8oVMEM9fpA7Glf7hBgnVLgOMaotjYNqOl5HDIiJwBAIMDuwJDvjAgHp10L37M7xyiMGB1OT8o9/zdnalk9IlctCJF9bK8VNwOPg2IYAAjuNMX7lbXeQ3/2UHvbTzTw4kMqxDqdUpadfc0Zm+xiGM3eqZ6RfnLk6FXL0qa5xY3ZxEfsDA6mrz1hkW+jVzOhiDxOkOGCidRX5N7zBvg5V3slT62TEwj+l9Y4/ozFFrORG5YivL+JOTODixzE0qe7KZazjdMlmvaEfKjsmHHheFSYUfkmAA+fBhH6dOhLOi/a9cH8Xdltswj2mhNpXHi2tf2bxmSN1FF3i1ufjW5xd4Ya/PReUOaOtA7vpmHPIt7dp+WTZWc5AWh+tW1QXlS9o7GSxWjZM8kZNV+HSFMn78Q72lEPOYtnWJ88TOVR9fd9tgE83I3Zodtg5R7wsmzo/fYRh12HZYJzZn17a9Cx/3n+8t7aLDLAVdxqrKLvW342Me0+2Qe8eBdjiHbL90GiwhAkTgjAgoDk2CfBBMFp8VbmjkKcMt2UC85xLkqCbdiBRexXMQzNvjmR8YuG7TPWmJ+lfHOyPAHGrRCDA4UAkONIEB/SFi+Qhx/FAxgwOZzSHkp0/SM41mXSQHnegMUI6fgjMMHQbyOpzwVIHq2ziNwquCtNNd6vBOUHEahbtGbZ3ktRO90dW2q8mAeSgdoTzMKVevyuy4KMM6v2we54JpkYFt7Ri2bRjTloMMpbO0tzKDjMwvrmmtnx0D85iuyQi4L/hXn9TNmir84/jmvFNPKHORqhtMP0c+BE5Q+7gtV2U1XgE+8vvb5pG/MC3jYFs7hm0b9LXlIEPpLO2tzCAj80s+7M4PFszT8RwI5qi423Ib5jEtFKfy9qLZ5vEcEy+2LVfaOpETggNSF9J2/Fo/Owbk1Ryk3Mopta3ogjIxHRzn8s2a6FityIGhz5E8vx2As8dP0K41OmgAAYUplF84eX78Kraa2LHFduA+Kq5BxZ6xD6Zx3Ww55jHt53fMHCr6oR5MEwEicHYEFIcmHAbHizGCA/EYbKdpeRXz5rxGcVJ7ThLlQj9pF8vteMwTgXEQYHCgEBxInxiQbxI03x742zln/2PAwMj73//+5wTk9fwJiTE4EC+claOk/RhnLjhgnTE+3zn58f334YO9IZCQ1AX5cNEu+iTt4LUUSV2QYfUyMnUQo3UUmT5F2cqhJX3BOeXHQeeVpOF7BAbX8hjovKrIMDpn8QqYmLH9eoS6HM6hzo6BeUzXZFj8F5jXJ3UzYs74rtygcw8utCeEoeuMfmW9It8ZO47lwU5rewf7Ylr6+jz5sAv8VrisN39UZFj8azJra1rrZ8fAPKZrMoJd8bfbgxfEQnG35TaV19zYvMc3OHDNRXNwhGefHGgu8sMrdvz70OHCWe7qVXUhIKB0CcGB7ry12K/Gy1ZmeweiGj/ohm0xLfJ9vtUF6zDtmzXvT47yTb2SU9P7BHWXsoN4B6jBIlnP3DqcAIdjRV4Kv2hL5lwmwW/UfYTBhmD/W7cza6jsWdUV+nuHYLenFcdgf0zLgvl81+/YuR+79uxHBIjAcAQUh7YBwMhvas/rc5Fm/8NThOFYISqpfkFH0z8U+1+pC+c1UoB5c54jsmEsz1cxj/1q46nBmSECq0ZgIyRwzL/+6DB8kNg/EaCfGMi25ZMDcmXmNkh+huCWaJlia9Hp5Z0YeftD531nn+kTAJv2qQD/IeBgy1c37iY+HRAc5+04SV3r5PF9UT46xg+R0Tnhss5/dD4YJ47HJSlD/UB2EgzYFxy4cjc3V+1eRzkyNxyjhIG0KchIdLYy9XgSjMivaaWfHUPlZe4iM+iO89FjR9vDdVhQWnCd619zARpso7vAzJ9Ulk425zV78qHs+fZf7elSWWlvW/6z+Ya/bv03Wipc5nXBMQKngJ6xDfkwrl1YQ/529nwgFoq77YW0ySNXXt/dwUW0uWjeExzQr+8BzvU02jgO/bH6euu28ckBuc7vPk64MXXhveq5fkV2NvNr2smF/P7jQVmXoP8eZ2mrVFlOUeuTVFzCDsSJK9dpfs2SG5T6rcNJwDhC6CXwu+w+yq9P0Z6Tvba/v+IY0784jl+7sAflNR+HcMgRC88uRIAIjIKA4tDWKb+FV5SpJ7q9H6twnI4O+kYtOc40x5hN9zoizydQHn1iwkul4ACcg7TKKB6SG43j2EZOcbxRoKMQIrAIBEYPDsirg+yTAZJPng7oGRxYBMqVSShCU0RY6TTjKjkw0KFgHU2nzqNj7NixxpBx7Njs13fP6JO6GRPFSlQnH15ib4/BZWPIuMTcOWZfLj13O3L3Skh/zzRpB3sA2lNN/PYAxGoiQASIQAUBzaHGuV7pN82ques/TVSpVRkBvlbIvAYo+4TAgDbyWiH+LQsBOeic+6Kb443hyBpDBh1Tp7ZFfVK3LO5Y4mzIh5fghDG4bAwZl5g7xzw1Bx8rf9Hcndyth3cK2icWlsj0/ee0aDvoD8PRLYnf0dCxIxEgAkTA393fwTBj53o471CPOnQzY4oInAIBBgcGOP77BBLW982BU5jptGTSGUbnzLHOE/bbbzu8MJ4W3+3Thny436a574nRGmyA3L2PLddRTzsYts7Ebxh+7E0EiMC6ESCHrnv9OfthCDA4wODAMAtaYW856KzhQp9zpEPrEjbAk7p5kSr5kDxxCZ7gmNOzO3L3vLj7VNrSDoYhS/yG4cfeRIAIrBsBcui615+zH4bAqoMDclf/06dP3f39vXv27Jl7/vy5e/HihXv58qV79eqVe3h4cK9fv3Zv3rxxb9++dbvdzr179869f//effjwwX38+NF9+vTJff782X358sV9/frVffv2zX3//t39+PHD/fz504UnB4So+E8MaAO0AdoAbYA2QBugDdAGaAO0AdoAbYA2QBugDdAGaAO0AdoAbWAKNhCCA//884+b6//oHyTu87qgvm1icOD/Nm5j/ofFddj7UgjIxuVdi9O7a5Frsow1kf3Fv/kgQD5cxr4jf3Idh9oAuXs+vH1KTWkHw9AlfsPwY28iQATWjQA5dN3rz9kPQyAEB4ZJuWzvWQYHLgsZRx+CgBx0hl5Esz8dMbSBvA3wpG4IO52/L/kwb8fc38RlbTZA7j4//05xRNrBsFUhfsPwY28iQATWjQA5dN3rz9kPQ4DBgTN9cwCfGhi2ZOx9aQTkoLO2i37Ol46uc9kAT+ouzXCHjU8+JDecixs4zrRtjdx9GHcutTXtYNjKEr9h+LE3ESAC60aAHLru9efsicBpnhx4snN/Oef+bv//vN+6+CohU/f3r537TyHIYF8rtMjl2m3hewrX7u7fRc4yTkoOOtFJ8XjrrrLfk7hyt497LuR93xv38HtPu6T+0d1ebdzNw6H9sH1PGVkdm76CQ/J/deses31wbKaj/YS1JWZxT836pE5x4dbtImsUEv/euetNj3aF7lMoJh+SDxM+C7x27C/5MPLh6NgeuyY9+u3l7jH47pwyxhirRtJV+f+6u+uN2+49iNgBju1n5Ryf32sHx4su9txtj8GqKO6iFQq/qo2Amn3bQZeDklX5x9rcsf0O0hwaw3gnmQ8M5WAsLLbpqh6m8SFtTdeYHUNGFMYEEZgmAopDR1Tx37trd710J9eIeFEUEbgUAicIDty7P51zMSBw/+j+dr/cf5+0AQLJP953wYJCYECCCRIckD95cmCRf/5EAwIC3jk2b2fXvnWSg068YB/ixDi6b0/HfvVivqeMfTruq6/qwCDBKHa0MIxPdVK3b18PrjcXXXISual5dmIgYd58ST4EHiMfdsfGIbxEHMfBccgaHNH3LNxteHYwb9cEnHOsRI+ezsXR+iWCji44ix0Y7RYbHDDzLGZpq0Vouoq+e6pvu05ymuop49zrdu7xUmBYQgROjoA+Bu3cdpSbsGRPB3/XWDJPDgUHIAIHI8DXCuUc++L8V08DPHH//dUFC/54dO6v3ZODggMHr8xsOwhhBvKc7SSqih/sDHu4gTvsw5MCD+4m3nnflnmHSHc3vn4yANpf3bgb9eQA1G2CfHBYxYt8aNdXxj4nTa4+KYNxlX4SoLhyt7cdPle3j+434OXzXn+RceNub69aLO2TGaUxEIeKDNG5xWQTdazIBB279mGsQj8/xq27vbFrnGufKwvyl/2rT+qqW3HalZWLMHFkbIQnd0t8cqDGQb/V/u72TsbePY/YvRJsH9r35bLIgwNkJNwWZLW/ufqkDHSPXCP9yYfNMS+HT67MYJ+sL+tj8PlM2ETuFu67vnPdQ6TtRXXCd3K+GPY4BEnb/neeJ5v6Js6aa58r23NoQG4eY6yijFaPGAiWuZh5Yt7BXK63botPDnidA1b2LvlKvz1QnKI62oEIr2Hj51TCo7WZu+7JZH/HJmCJd3D64MC2a6vj8oAP4u11a3BW63IKUA6QmeAXdC5imZtfrmzPeoiOgK/CxK7VSW31sLV3qEvAKuINOOCeGm0+cSABr+MzHMs3gTrUMdGjW6PJ8idOmWkiMEEEFIf6fQnHmWP1bfm32Zeyn0eQeawu7EcETogAgwO54EBShk8SSKAAniJI2sLrh9onBwTktfz5u2XVReHyZi4HnXjRnTh+rENCnBqds+xRnNs3D01/1VfagcNb1f12DzcbFx3lrWM6BA+SOnm1T8YZkLTbdK8mwrqyjnZuv91vo6fHxZQVZXtn2MbgYfMBu9Y5FObmMQh1GXxCO4VDRYbXucND5lHWu7KmtX7tGGodg569McusgZrj/Ov1Sd18+WPvkwMytdyF4cymTD6EPWf2MfmwwqPkw+48YiEc3nE33mEHzi7Dd+LQDQ5exZe+XVfnHZbhvLIiQ7Wr8SjKOHKs3voax0Tar3MwIB7BSdsFReCmG9Tf+3MNVhsbPKiBMX5dZwfhGGf0K6ylPh6KDW26p+/adYpP42Uw2BTkIq4p/pfFKod+il9rI6ux1cPXPssjtb2RsZ8g45C9h+uHdqZlSMyl2wOpDXYc0MibOH/ipJkmAhNEQHEoHoN98DPst53bXt+57iaErduF48ym269herJvI0e0Mu/kCfH2BocYkBYZ27vm+BWOSUEIf4nADBBgcGCPc19eDfSf3S94kkACBb/cX7/C9wjqgYLwzYEZ2MIwFSOhwgXMMImT7S0HAh0c6O7mCgeJTXD6/jZOf3QC5BxJsR4d0JgWRxS+EsjWlcaz7awMCEx4nVvHe1XHPsEBqw/q0d4pG7/NYPPYV9LovMe2KFPwwX7guPPlBRnJPK0MHMPW2TF6YoljYjrRH8fGsZaZ1id1k6WBsmKHcKFvG05UyyKnXEM+hH2o9nFbrsosd+DeRk6TvjaPfSVd4DLPH13glHwI6xOPryyL5zAjYoLcjRfSMa34Tu68w/NFuBNPtQsOZnSQBs6EPp4krcwCc6J8TEtzzGPaOwOO0DfpBzol8sO8vCKVbw7gvDG9rx+MfcIk2oHC06sHT8up+Rvs/TvbEW/jMDW4ivM1Omdap3A2sNI6dfynHOz4J8TkENFF/Ky+mMe0waa5oz23fyzmlf2TyD+lrdq1tnnUE9OCMu4HTHvj6/bUKPPBVa2Mdch6tCIjZ/olap2Sic64P2B81c6ssaqDPn5cyaNMnB/TRGA+CCgODZygbF/mIvbeHTfkGBKflkra5jgIAgjSPgQCfF/uo/lYCzW1CDA4sCc44AMD7tH9Edr5jxFjQECCBVAf2rW/qwkOBMtSUdlQuKxfOejEC2vl+Ck4HHybEEAAx3Gmr9ytLvKb/7KDXtr5JwcSGdah1OqUtGvu6Exf4xDGbvXM9ItzF6dCrl6VNU6sbk4iP2BgdbV56wwL/Zo5HYxB4nQHDJTOIr+md5i3wco7WSr97BiYx/S+sUd05qi1nIhcsZVl/PW40EpOQOc3c1mvaEfKjsmHHheFSYUfkmAA+fBhH6dOhLOi/a9cH8Xd8WIZLqoV3zUX5vrcoL2gVu0qzi3bLnEoF/gU+2FammMe060j4WB9o8xwvgBOA5SP6VbtnMO7G7/g7FWO8cL8T1yc2AG+fgHniemIU3A6g914fW1eH193W8BVYXCAnZ0Yl77ii/jV8FJ1B8xZ9Qv2f2lbtWtt87j2B8wV7QLnjel2kXrtPVzQqozDdPRiRZ53NsLc1RgHyMR+pXQzKLxTHSfHNBGYFwKKQ+OxOxxbwlyaJwfC67swIKeDjC0vBue/7y77D+VBPu7dMA5/icC8EGBwwDjz5UmB8N8EBjAQ0NWFNttt8yRB/Fgx9Jc2qwsOeBLWJ+nz2hL7tZWDTnQGKMdPwRmGDgN5HU54qkD1bZxG4VVB2ukudXgnqDiNwl2jtk7y2one6Grb1WTAPJSOUB7mlKtXZXZclGGdXzaPc8G0yMC2dgzbNoxpy0GG0lnaW5lBRuYX17TWz46BeUzXZATcF/yrT+r278cpt7AXmImueKGWVM6jgHwInKD2cVuuymq8Anzk97fNI39hWsbBtnYM2zboa8tBhtJZ2luZQUbml3zYnR8smKfjORDMUXN369SS7wyEi2rFd3AxbalOtQsOy5wz3MqQfI/zT5SPadED85j257boDAClVTsjA5r5pNxA0wsPwS/c1SjzCmkr32KA/ezg58krO6hhU6tLAj3gJG2AVGutj7WIgcUHMLDjQ9Ulk0X8rL6Yx/TsbdWutc3jPq+sb4ID2EUVL2jnZZT2HlqJ1cPK6MkdUWQ75ynyZ9SRCSIwTQQUh7Y84F8BhI+XSXk4FvvDavraIP+EWVInc7b7HfLCLSB3mghRKyJQRoDBAePMD07/5ImBQjsGB6xxCUH2uDiz3WaUl4NOvDBOnCjGWaIcJe3HOHPBASvH5zsnP77/PnywNwQSkrogHy7aRd+kHbyWIqkLMqxeRqYOYrRzN32KspVDS/qCc8qPg84rScP3CAyu5TFwPSoyjM5ZvAImZmy/HqEuh3Oos2NgHtM1GRb/Beb1Sd2MiAGdPl7tHlyoLlBnNFdQlXwIHGP2sT9OmLIyV1n+s3nyocfT8u8COdDPc4bzstwtd+JJWXxPr+E7cejGOuRP067ssNfv8j7+mwPguMOxMd3edXywvjgv4U3M75MfAgKmXYNHd56d4Bj6AU+fM6nsIKt7wFsfIxt7CXWtczTc1pkEC3RfwaD2PYJe63ZOkCpjFfGrYWnqEpsIzirTTu0ttE3RD/OmXyI/2Jxpd5ytHr722fXN7dmCnsfOB5exKCOnR2k9QOBk+RN0ZJIITBEBxaHgyFd7tHdwwPKRzFiOP+FYZfLCgWF/TxEc6kQE9iDA4EDO6Z+8OgieGLh/dH/ja4Sk7a+d+09OzhqeHJCTRyTIFZCiHHTixbt3/IRHcPUvOu+lT/OfPgGwaZ8K8B8CDu2ubtxNfDogOM5bGUld6/T2fVE+OK28o0GcTX1kdEGJrPMfnRbG8ZVzhulX9IDsJBiwzxl25W5urlocUY7Msw8GjXMtKyM3DyVTjycOvvyaWl2gnx1D5cPahPXD+YAMxH6hacF1rn/hYq6xjc55oy7AcXL2QhrrZpKWuZIPW65Ve7pUVtrblv9svuGvW/+NlgqXeV7AMQKntPpE3qjIyM2DfNjZecTQYrrufMLdnt9qPCgX2OFYWmmneFIu1KVPuDBHGaFsD3miPExLN5WvjdVX3yaA0RwTUG87lh+8ndvGba63bhufHBC1ug8f2jrnHectjqbfHiROUq3sQOGZzhnndX13Bw4X65Cx+TQ4IDd3NTjD2vgZoo1AndXtJGgcLrSIn9VX5Zdkq3atbV6vfXh3eH7tAy5mTynsZI0K7bzJ1vYerm9ZRlHHRA+Q5+tq9trTrtUYQcfAlSgjlIEOTBKBGSKgOFQ58pE7ej45IPsncfaLHNwvkM+2nyGIVJkIzBiBTXNCEC4w+v+GpwTs7x+P4WPD+vfP+yZI0DxVEOrK3xsQuWt4rRCe3HcXbDO2qD2qi71FZxidBGfCAh1jxzpgxpBx7Njs13fP6JO6PZuR1RdHgHx4ib09BpeNIeMSc+eYfbn03O3I3Ren40koQDsYtgzEbxh+7E0EiMC6ERiTQ8XHpd5GtG5oOXsiMAsERg8O2GDBkLwEB/i3LATkoHPui26ON4YjawwZdEyd2hbHPKlbFvNMczbkw0twwhhcNoaMS8ydY56ag4+VPxnu9nfKlm4Ugjtxp0mps9dqMnYwUySJ30wXjmoTASIwCQTG41B50gafEJjE9KgEETgpAnytUOF1QEMCAtiXwYGT2u9FhMtB59iLZ/ajY4c2ULeB8U7qLkIPqxuUfFi3Z+534rMWGyB3r47+sxOmHWRh6V1I/HpDxYZEgAgQgQQBcmgCCQuIQG8EGBw4Q3BAQObfchCQg85aLvY5Tzq2zm0DPKmbF1eSD8kR5+bFqg5PAAAgAElEQVQIjjdNmyN3z4u7T6Ut7WAYssRvGH7sTQSIwLoRIIeue/05+2EIrDo4IHf1P3361N3f37tnz56558+fuxcvXriXL1+6V69euYeHB/f69Wv35s0b9/btW7fb7dy7d+/c+/fv3YcPH9zHjx/dp0+f3OfPn92XL1/c169f3bdv39z379/djx8/3M+fP+M3B4So+E8MaAO0AdoAbYA2QBugDdAGaAO0AdoAbYA2QBugDdAGaAO0AdoAbWAKNhCCA//884+b6//kvzkgIG/+b5P8D4vrsPelEJCNyzsXp3nnItdl/usi+4t/80GAfDj/PUfe5BqOYQPk7vnw9ik1pR0MQ5f4DcOPvYkAEVg3AuTQda8/Zz8MgRAcGCblsr1nGRy4LGQcfQgCctAZ40KaMuiQoQ2kNsCTuiHsdP6+5MPUhrmvickabYDcfX7+neKItINhq0L8huHH3kSACKwbAXLoutefsx+GAIMDZ/rmAD45MGzJ2PvSCMhBZ40X/pwzHV7nsAGe1F2a4Q4bn3xIXjgHL3CM6dsZufsw7lxqa9rBsJWdDX7/3rnrzcZtd8Pmy95EgAgQgTERmA2HjjlpyiICIyHA4EApOPBk5/5yzv3d/v95v3Xb2PaJ+++vru6v3ROow3bb7psD7WuFRlq3aYnZbeF7Ctfu7t9pqTe2NnLQiY6Kx1t3lf2exJW7fdxzMe/73riH33vaJfWP7vZq424eDu2H7XvKyOrY9BUckv+rW/eY7YNjMx3tJ6wtMYt7atYndYoLt27vNbO/uO7RbmwSG1Ee+ZB8mPBZ4LVjf8mHkQ9Hx/bYNenRby93j8F3Y8hI+O9fd3fdOjlPIj8Z0LlzjZMZ+tRFe+1AFFjw/IfiW8dvOra6204tMNAXG2h39GL1lHGInR/StqT3GDJKsllOBGaCQJ1DZzIJqkkEiMDRCJzgtUL37k/nXAwI3D+6v90v998njeP/j0fn/v61c/+RYIEPInR1XQChaSsfPQ7fHDh6hlPu6E9EICDgnWPzdnbtg1sOOvGCfYgT4+i+PR371Yv5njL26bivvqoDgwSj2NHCMJ7tSZ25KPv37tptarfUxUDCvPmSfAg8Rj7sjo1DeIk4joPjkDU4ou9ZuNvw7L7ztX71PR19/YStvlUvOzjJOi4D+jp+tNXyKvfFpm+78kjO9ZRxbjs/93g1iFhHBC6EQJ1DL6TUSYbdue2mu4aUgO31CHfoyvXrGHJOMmUKJQI9EBg/OCDBgOD8908LNE8KNMECCRyUgwG54ECPOSyoiRAVBAsWNLMwFTnoHOTUfbiBO+zDkwIP7ibeed+WeYdIdze+fjIA2l/duBv15ADUbYJ8cFjFi3xo11fGPidNrj4pg3GVfhKguHK3tx0+V7eP7jfg5fNef5Fx425vr1os7ZMZpTEQh4oM0bnFZBN1rMgEHbv2YaxCPz/Grbu9sWuca58rC/KX/buYk7rKRZqcwG2EJ3fyWH53Yhc4Zk6/5EPYjwn3/Xa/k7LS3iYfNse8HD65MsA9HuNYFs9NLoBJ5G7hvus71z1EKo60HN/J+WI4HgIPtv3vPE829U2cNdc+V9aHQaHf9dZtc08OeD2auk3kaegXy8J4WIfnwZny5PiAbfpgEcac3m+0g6gazq3FpZ3/NlnjtpOvD7YBd6hn1yQOtIhEFb9F2GrLB3fdU+feERVvmLAOLrQf2Bt+taGuhE2tndSVbC2xpsJYVj7yQmvn6ilSb8NT58dk8iwgArNBIOXQsVVvOaw7yRl7gJ7yhJMsJ/bsWmnG4EAFnBVU8bVC8VVB+nVA2skPTxL4JwUe3R+9+jWvFVqBHcUp+rtl1UVhrFpMQg468QI8cfxY54Q4NTqH/aM4t28emv6qr7QDh7eq++0ebjYuOspbx3QIHiR18mqfjGMgabfpXk2EdWUd7dxyjq+0rCj7d/P0gsZjU8Fn4zZhbh6DDlccwwcXQjuFQ+tgCnUow+Pd4SHrizIVJr8ra1rr146h1jHoUllvPXZmDdQc519/+pO681DR3icHRI3cheN51BttFPIh7Dmzj/1xwpSVeYV8GPm9N2aA/cJ4MJ5jzGheHXebC+fgDDN8h3e5Kb707cBBKE7DcF5ZkeGw3R6Gw7F9v/DudJTf6oEPgGE/pbO9kzjqIliAczuU4zjOOZSr5tHqEO/iC/33zO+S1Z0diBa1+RfW2InDA4IriFVmTS4511OMrfHL2MbsbbWxifhkZbumOt85vHBv6D3XE5vc/goY1mzNLC7qoTjDyFc6ou1GedPnx6gqE0RghghoDt257fWd28nT3O3NCPF46vd/xzVO5Zt+6U0KLX+FGxvCCULgsbY8FFv4PD+ovhB09OXm2Le98+cQ8RxIzgFi/60KDohsNbfrO5fqLxpVxvSXpijHzoD5pSPA4EAPJ/9/dr+6Jwnapwr+kLLs9wh0kCG8VmjphtTdeQGkttBJCynHC3fvxOjuboqEHZy+3pEMTn+80DcOkCjTt0EHNKbFGdI4kbq7LDsn+e/iePtkoI7QtqpjGghInWEiqyDbzwPr2jtn47casK+k0XmPbUHfiB3KDQ6kioxknji29McxbF2QH9rh2NDPjoF5TCdrCDLQfhaalj006794gtiDC7MXjvOaPfkQ9r/ax225KrPcgXsbOU362jz2lTT5UB8zYR0Wyo1Tny9yN16kxrTiO+MAxoty1c4EUVWdyLAX9j14F8fydAsObJSPad/uAJ0DjScy2gpVXpmHamewCGNM7BftoBgAP2hegI/tN7G5j6GOwm+Rtmqc4z6AhPsW9xmmBV2wBZWWusI+rrVLFgzlY6Uth7G8fKt/y0sFe42ciI441bYyb9XOcIKqszpbmTg/ponAchBIORQC0Wq/5vZIOKeQOugneyvcpFDlLMGxsNfU/izgjeP49pZburzwSPdUo9xvhk79mv5mbBwTOck0Y3YdCDA4sCc44AMDDp4U8N8fcC5+hNh8j0A/cdB9kHgd5uRvn1BEtcR5y0EnXqQrx0/BOeHbhAACOI4zfeWuUpHf/LdO/0I7HxxI6qxDKeegaspkrC7AEMYMv62eiXwzx1y9KmucWN2cRH7AwOpq89YZFvoZ/dV4UmflBJ1R3j4ZNb1DUMRgFQMToTz8FrBEvTHtgwOhb/jVc4/2t0AnmNjKMv4KJ4c4uT4nith+gmlZr2iPyo7DvjO/vk3GrjN9yYe475G/ML2Py8iH0T4XyJdTmpvi7nixCY5AxXfNhas+N2gvelW7ivPLtksu2AuEmfRr7kD2d/phHaa9qD06R8cBjCsySuUhsJGMU8LMYAHDTCmZtwOjoZ2zzfvLiXCckN+6s9VIn3U2wS/MvZ2V3ME+b1sF+/Zzsnk8d9qz547CBvY7YNpxUXAOghkV7LO5O/gwHZspB16AuasxDpCJ/UrpLM4wPyaJwIIQUByaBAdx/8s+w/2OeUwLOJiHfeurtsk35iJPA67aeQ8V+DSA+IDCOYPs55DOjoM65YIDpbkFfx0cY2Gcop6gMpPLRYDBgUpwoAkMmO8LVL9HoJ8akEDBap4ciHtEiKqLasbiBSXkoBMvyDMOrViXc0TIq2zCUwWqb+OMDq8K0u+pljp8OkCcPejYx7rUadToc4gMcOYpHaE8zC1Xr8rsuCjDOq1sHueCaZGBbe0Ytm0Y05aDDKWztLcyg4zML65prZ8dA/OYrskIuC/4V5/UzZs4cieHakZ4Iacq5pMhHwInqH3clquyGq8AH/n9bfPIX5iWcbCtHcO2DfracpChdJb2VmaQkfklH3bnBwvm6dx5jubu9uJZvqsSLjoV3+mLWsV4qp1xiKs6K6Pv+aftJ7r2dbjixTZorfQ6tNzqA/Owcm0ehppKUtlBSV9brvIyf3gVE9ZheioTHlkPhZ9ySMlAS7BV41hLgnpg/8n8EWy7bwrYJDKgna8r2BoOtVfGgbwQ5jxJflQTZ4YIzA6BOodOLDhgj2mSx3OmkJZVkCCCel+R5kDt1Nd1KrhRG9OfcuETCLNbfio8EAEGBwrBgeSJgdAu+eYAfqyYwYHio1QDDXVK3eWgEy+MEyeKcZYoR8nv5mO7ueCAlePz3V2j+J7q8MHeEEhI6oJ845hI2sFrKZK6IMPqZWTqIEY7d9OnKFs5tKQvOKf8OOi8kjR8j8DgWh4D16Miw+gs61uUaca23zgo9rNjYB7TtbEt/gvM65O6Ke38Pbok74LGC9xCX3uCVmg25WLyIXCM2cf+OGHKivyQ8B/58KHltzJmgP0CuTCeZ8xkbpa75UJVyuI7cA3fJe/wDhfBpp16NY2pK8rYQ5pJv+CMRvmYbuUl/YLO6LSVtrEvOiKhPNY3gotyTbtO7p4JXrBa20G/+at5ZedceKrkgvM81dAav8aRFfdQe4fp/icHMv0mY6tiE3gTmc3rc6fi3mifLtmLzQHtGjtE3bpVTvQInJGTH7C2ttyJ868AmSo/gppMEoHZIaA5VPikdB6iuac5ZwmBvopzPQT34geJNWep4xmil+MDKQt80Trmi08OmP5a3wOeHKiNyeAArtgq0wwOBKc//voAgHliAOr/eLSvFYLXDkG7VTw54E9UA5G2Fz5AckvcVXLQiRft3vEDj2XFVwKFO/sbJ7P0af7xLn9x/kh5U+Y/PBvaXd24m/h0QHCctzKSutbp7fuifOs4CePJh32tfJTRBSWyzn90VBjHV84Z1tx1GuYPsg92hl25m5urFkeUI/NE/UsYSJuCjNw8lEw9njir8mtqdYF+dgyVD2sTdMf5gAzEfqFpwXWuf8EZ1tgGXGCaE7o4v1J5bDD9hMyVfNhyrdrTpbLS3rbBAJtv+OvWf5OlwmWeF3CMwCmtPpE3KjJy8yAfdnYeMbSYrjufcLfntxoPNhfte/lS8WTjbI6vmWnv/G1kwLnoXuoMcuQR/q3b9npyQIQWdPbjleoy5WpOVi7Mw7az+b3zPH+DxA5ymNl5mLw6lpbW5/xTO8uIKX5Ls1XtkGuehgCe8PZi8+GcG8tlOXpg41et0C4448K1F9pastplGUVeMHatRPo6mE/SNsMbfsp37hpfhaL6BR0Dh6CMUKa0YIYILA4BzaGyB+Tm3cAh8KSQzLwNuPpzCP/x37BPmn67iI7Ox2NUuJMf5VTeoCFBRj+WcE7bN8ryZXI+cud83EH2dki3emDb67udu7sO+h4QHLC8J75LGEfGiEHXOH8m1oIAgwPGmS8OfXH+h48N4++f9+HJgOZpgVDXlYf67ncNrxVCouou2Ja7hYTUozOMToIzYYGOsWMdMGPIOHZs9uu7Z/RJ3XJ5ZCkzIx9eYm+PwWVjyLjE3DlmXy49dzty91JYfdg8aAfEbxgC7E0EiAAROB4BfQzSTv3jpbInESACc0FgIyRwzL/9ePAp8msIDszFUMbSU2zt3BfdHG8MR9YYMuiYOrUt6pO6sXYt5ZwKAfLhJThhDC4bQ8Yl5s4xT83Bx8qfDHf7O2lL1wVwp+6pSHHlcidjBzNdB+I304Wj2kSACEwCAc2hDA5MYlGoBBE4IwKTDw6cEQsOdQYE5KBz7MUz+9GxQxuo24A+qTvDhuYQgxAgH9btmfud+KzFBsjdg6h0MZ1pB8OWkvgNw4+9iQARWDcC5NB1rz9nPwwBvlYo81qhMZ8gkCcH+LcsBOSgs5aLfc6Tjq1z2wBP6ubFl+RDcsS5OYLjTdPmyN3z4u5TaUs7GIYs8RuGH3sTASKwbgTIoetef85+GAKrDg6I4/7p06fu/v7ePXv2zD1//ty9ePHCvXz50r169co9PDy4169fuzdv3ri3b9+63W7n3r17596/f+8+fPjgPn786D59+uQ+f/7svnz54r5+/eq+ffvmvn//7n78+OF+/vzpwmuFhKj4TwxoA7QB2gBtgDZAG6AN0AZoA7QB2gBtgDZAG6AN0AZoA7QB2gBtYAo2EIID//zzj5vr/+RfKyQgb/5vk/wPi+uw96UQkI3LOxeneeci12X+6yL7i3/zQYB8OP89R97kGo5hA+Tu+fD2KTWlHQxDl/gNw4+9iQARWDcC5NB1rz9nPwyBEBwYJuWyvWcZHLgsZBx9CAJy0BnjQpoy6JChDaQ2wJO6Iex0/r7kw9SGua+JyRptgNx9fv6d4oi0g2GrQvyG4cfeRIAIrBsBcui615+zH4YAgwNn+OaAfXJg2JKx96URkIPOGi/8OWc6vM5hAzypuzTDHTY++ZC8cA5e4BjTtzNy92HcudTWtINhKzsZ/P69c9ebjdvuhs2HvYkAESAC50RgMhx6zklzLCIwEgIMDpSCA0927i/n3N/t/5/3W+c/VHz/GMtCnfz+tXvS1Bt58ZsD7WuFRlq3aYnZbeF7Ctfu7t9pqTe2NnLQiY6Kx1t3lf2exJW7fdxzMe/73riH33vaJfWP7vZq424eDu2H7XvKyOrY9BUckv+rW/eY7YNjMx3tJ6wtMYt7atYndYoLt27vNbW/+O7RbmwSG1Ee+ZB8mPBZ4LVjf8mHkQ9Hx/bYNenR7+zcvQD+rFPxv+7uujnPut5u3fVmz7FiInic3Q6cc7vtcpzYZ8evYDfTw7TZDz5YUdC52U/Qrr7BWEsEiMACEVAcWuWKBU6+NiViUUOHdS0CDA4YZ74PAGzv3Z/OOR0Q+OX++6QNEGAfHyx4dH9gGaQxOLBIq/NEAwEB7xzbcwEzcyDkoBMv2Ic4MY7u29OxX72Y7yljn4776qs6MEgwih0tDGN1UjcnrjAnXf/eXbtN7Za7GEiYN1+SD4HHyIfdsXEILxHHcXAcsgZH9J0td0/1OGOOKVNV0+p1CTuYniPbotI/fwn8+mt3yZZ9nf59211yLhybCBCBUyGgOPQUx9FTyDwVGCh3rnrjHJgmAj0QGP+bA+Lw/7Vz/4lO/ifuv78gWBDLTRAhlndBhBAc6DGPhTTZue0GggULmRVOQw46Bzl1H27gDvvwpMCDu4l33rdl3iHS3Y2vnwyA9lc37kY9OQB1myAfHFbxIh/a9ZWxz0mTq0/KYFylnwQortztbYfP1e2j+w14+bzXX2TcuNvbqxZL+2RGaQzEoSJDdG4x2UQdKzJBx659GKvQz49x625v7Brn2ufKgvxl/6qTOtx4c0tXTsLEkbERntzJY/srCw5k907G3j2P2L0SbB/a9+WyyIMDZCTcFmS1v7n6pAx0j1wj/cmHzTEvh0+uzGCfrC/r43nKmbDR3C3nglt3J0FSf64D54XCjddbt/V3xQf+k/Zhv4eylvRjIFXqoS7h2IIMP96du/O824xRi9uqQ03fsZUulbl74TU9Ay4BC/nNHStQRout0kEGwjaAm5rg+BllBzXsrb4qLw7ea3d31z2ZfC2PJcN6+Hyrvg8ObLu2en0LOHjdAt7nw2cf4go/v4Zz20eHrV3dTmHtWs7IPzlQaCdge7vq9pO2jX2rwXoiQATmhoDiUHVcGWkmp5A5kmpVMXPVuzopVhKBFIHxgwOJkz8fBPjP7pcJInRBgeYJhK2T4MCa/vzdstd3bslvFpKDTrzoThw/1iEhTo3OYf8ozu2bh6a/6ivtwOGt6n67h5uNi47y1rkWggdJnbzaJ+MMSNptulcTYV1ZRzu33+630dPjYsqKsr0zbGPwsPmAXescCnPzGIS6DD6hncKhIsPr3OEh8yjrXVnTWr92DLWOQc/emGXWQM1x/vXqpG7G5Ln3yQGZ2wJO1MiHsOfMPiYfVniUfNidRyyEwzV3t866cD7onbqtA9bznn4NjDh3g7NXc6fI6Ry3qs7wJ8rwTuQwdjtekK/qqseY/mNrLq/MvX0FTtAlnQ/ggvPDtDN3Rgu2MlfVpnnVTnac6pyHVyo7qGFv9NUYNnOMT9+1cnS+swsfcFfrreuyOLQyp+YsVviFAE+Y2yz20eFrl10fs1dCYCgXHEj2fvxWguxFE5gEPhlu7ZRABIjA1BBQHBqOMxBY1pzfHq/9zQndccPPKRx32hsXmn7Y3nJLCEJCuT9e60B3PI7JIKCX6F2uQ5nh+jGMB+cNNZkBi6ktGPWZFAJ8rVASCEgd/PkgQOlpAt1/NcGBSKCGvCZl7uMoI+StgwMdOXtiF3IPTt/fxumPToCcIynWowMa0+KIwlcC2brSeLadlQGBCa9z63iv6tgnOGD1QT3aO2XjtxlsHvtKGp332BZlCj7YDxx3vrwgI5mnlYFj2Do7Rk8scUxMJ/rj2DjWMtPqpG6cLXteKYdw4QJO1MiHsA/VPm7LVZnlDtzbyGnS1+axr6QLXOb5owuckg9hfeLxlWXxHGZETDR3NxfQ3UV4ezex3DmS8J5x4LV3SzffbLF1QOdKjrTDC3vop9rlxgeZKgkyVHlGhhpD+uHFOszdzw3Pk0FvJcOMgXWYRr1UudUdxsE+J0grO1A6VeYkeqi2iJmvbJ4kiHce6fmJc7izNfwGgW7X3KXe2oka7wRAHClS4dcGB7q5AS6J/pW5JnYHyik51k5Apmpn1wvkBWdYXCvQ2TcDmYleOD6mpaPIaddZ6VJph2rFsZEnkgYsIAJEYOYIKA71XAFOdwywIqd4SrtuAu1+/sIrcFxBzsF0rm1mjO6px0ZuExA1Y/h+4fxA6kK6DSKEILE9Lih9KjJVu5kvMtU/GQIMDuwJDvjAgMt8U8B/sDhTbuSt7rVCihBPZrcXFSwHnXhhrRw/BYeDbxMCCOA4zvSVu9VFfvNfdtBLO//kQCLDOpRanZJ2zR2d6Wscwtitnpl+ce7iVMjVq7LGidXNSeQHDKyuNm+dYaFfM6eDMUic7oCB0lnk1/QO8zZYeSdLpZ8dA/OY3jf2iM4ctZYTkSu2sow/c2KXm9QCTtRkvaIdKTsmH3pcFCYVfkiCAeTDh32cOhHOiva/cn00d6f8Fx24Ce81F7P6PAEuin37cLy15SVHLzgk7Xg2n+PmUNZnbGmrZFbm3l7UZ+eqZBiZWCfp6CQIipr2tXGgyymSyg5Qb4tTre4gB7MEA8Au2jvO07s8jQ3Z8U8BxhEyFX6J8xwCH4n+U9lHsPf8/G0e90dF52R+hbnX2rX4+ydL4rUVgwNHmCW7EIHZIKA41PMDHB+QLzDtZwfcJP6s3HFW2tl+Nq94G4KaLYLqiUGFKozfHsO7wDA0rOkGzZokyEz0TBqzgAg4BgeMMz+8Dkh+m8BA/kPEvu7x3mH7XHp1wQFFiMvcYXLQic4A5fgpOMPQYSCvwwlPFai+jdMovCpIO92lDu8EFadRuGvU1kleO9EbXW27mgyYh9IRysOccvWqzI6LMqzzy+ZxLpgWGdjWjmHbhjFtOchQOkt7KzPIyPzimtb62TEwj+majID7gn/VSd3MKSQ6w0rzWMCJGvkQOEHt47ZcldV4BfjI72+bR/7CtIyDbe0Ytm3Q15aDDKWztLcyg4zML/mwOz9YME/HcyCYo+ZuuCD1/AcOwoT3pG1Phx1eFCs5VgaMr9plLuxL/GzLi2NbmTC2nbs/Ry7MtaYn1mEadVTlFg9seNq0sgOlk8GpVndwcADu8FR3g1ZwsOOfFpbe0hV+yTXVHPYR6OhnbfO4Pyrrk+wVkXPokwMiH2xjomve2zjYkAgQgb0IKA61ex7zPh2CxuG3CSR4B37f4ACeG3jtgKvU8ahVHdsnOkAgw3Ng0KvjsapuMkRJJs59L4pssFYEGBwoBAeKTwy07f94dO6v3RMGB5Kdgyd9SeUiCuSgEy+MEyeKcZYoR8nv5mO7ueCAlePznZMf338fPtgbAglJXZAPF+2ib9IOXkuR1AUZVi8jUwcx2rmbPkXZyqElfcE55cdB55Wk4XsEBtfyGLgeFRlG5yxeARMztl+PUJfDOdTZMTCP6ZoMi/8C8+qkbk6MgSd7Xu8eXLiAEzXyIXCM2cf+OGHKylxl+c/myYceT8u/C+RAP88Zzktzd+OUi+/PRX7M8J4EUsN7x9U3AbCf8CrmjZyiDNMuueuvdJzBsezYxmnrL9ZjgKMy9/au9uxca3qqOnQ8BEfA1u1Um+Yu6+w4pfmOVK7swOiksdfHSI2hdSjbvO7r7wwPt1iaMXvbxUjzHypG4RecQ2FuaJNmnjJuca7Yr2nY3RVr5BRlmHZ6LXHWdq1sPl27kp0mugRHv9Glb7tGZ3S+od5MEwEisAQEFIcarlC8Zetw8pYzsc72s3l1fiD81zn2RYw/1gmn+37IR5obccjm2wTtjQV7dSvITPRUIzBDBDwCDA7kggP+lUH5JwaapwP6fW9A2i7+yQEhqHhB1F6klCKtC9l0ctCJF+/e8dNFdaUu/KPzPpRtMk8AhDL/IeDQ/+rG3cSnA4LjvJWd1LVOb98XnzAAp5V3NIizqY+MLiiRdf6j08I4vnLOMP2KHpCdBAP2OcOu3M3NVYsvypF59sGgca5lZeTmoWTq8cTBl19Tqwv0s2OofFibsH44H5CB2C80LbjO9a9xbgTbgJOz0glZqXxGAMh6kQ9brlV7ulRW2tuW/2y+4a9b/42WCpd5XsAxAqe0+kTeqMjIzYN82Nl5xNBiuu685u7mIne7vW6Plfv4UNpnuLN1eHbHW7jrPuFPlFFpl/QrE644HbNjhwv8Vufruzt4+qEydz8U6lnBBfXEdElGnzblqY5Wo+zA6mTyeMzUGFqHss03GN+177WXdZJrrmatANMSVlJudBkNgIGCFH6tk2le+8iulc3rtWu+AxH2mV076dvWXW/dNjjZkrUrtDP7dIMyBq4TuxMBIjBNBBSHWq5Q+YY3QuxVHxOa47Sua/nJy0CuMm2Vb6zlpugbg7aqXRPc3YTvDNgxVFuQIUuAbVW7nEw4N5rm8lGrCyPA4EAmOCBPBfzt0v8/78PHhu/dn64WPAjtVhAcsCdeGCi4sHGfang56ERnGJ0EZ8ICHWPHOmDGkHHs2OzXd8+ok7pTbWLKHQ0B8uEl9vYYXDaGjEvMnWP25dJzt+LGaP0AAA7iSURBVNPcLRevePE8GuXMQNCa5+68g34GizRZFbmPJrs0VIwIEIEZIKA4VAUDgiMdHeSNo136RMd8mKPvGwKXePd/F4zUwYPQFs992gBEDF7DU5LtK4easaV8p58y8I7+nMwwj1CX103kKpkWizBP/hIBQIDBgUxwIPftgGPLFv/kABjTWpJCtue+6OZ4YziyxpBBx9SpbVH2F//mgwD58BKcMAaXjSHjEnPnmKfm4GPla+6egYPcXPiL/t0/XtwfysczmPuhUzqgvbaDAzqyqUdA47duW6JJEAEiQAQORUBz6KG9x25vnk4YWzzlEQEikCCw6U7m8cR+f1oc90+fPnX39/fu2bNn7vnz5+7Fixfu5cuX7tWrV+7h4cG9fv3avXnzxr19+9btdjv37t079/79e/fhwwf38eNH9+nTJ/f582f35csX9/XrV/ft2zf3/ft39+PHD/fz58/lv1YoWY7lF4i9HXvxzH507NAG6jYwrZO65fPZ0BmSD+v2zP1OfNZiA+TuoWy6jP60g2HrSPyG4cfeRIAIrBuBaXEogwPrtkbO/hIIHB0cOPZpgEP6SQBC/sIjGrnfAFquLpSxDTEMtmB/aRu0DWsTIU/boG0EW7C/tA3ahrWJkKdt0DaCLdhf2gZtw9pEyNM2aBvBFuwvbYO2YW0i5GkbtI1gC/aXtkHbsDYR8rSN09tGwHiOvwwO/H//zwcfwuKFjZP7ZZvTbybBPfzl1iCUsQ3XItiC/aVt0DasTYQ8bYO2EWzB/tI2aBvWJkKetkHbCLZgf2kbtA1rEyFP26BtBFuwv7QN2oa1iZCnbdA2gi3YX9rGfGzjn3/+cXP9n0VwIGwG/s4fAdko/CMCROA0CHB/nQbXU0nlep0KWcolAvNCgFwwr/U6lba0g2HIEr9h+LE3ESAC60aAHLru9efshyMw9z10dHDgXN8cGL5ElDAlBOa+YaaEJXUhAhYB7i+LyLTzXK9prw+1IwLnQoBccC6kpz0O7WDY+hC/YfixNxEgAutGgBy67vXn7IcjMPc9dHRw4JBvBxzbNnxzYPgyUcJUEJj7hpkKjtSDCOQQ4P7KoTLdMq7XdNeGmhGBcyJALjgn2tMdi3YwbG2I3zD82JsIEIF1I0AOXff6c/bDEZj7HjpNcODJzv1CbH/t3JPt1jVBgiduB5W/dk/a8lDf/TI4gCAuIz33DbOMVeAslooA99e8VpbrNa/1orZE4FQIkAtOhey85NIOhq0X8RuGH3sTASKwbgTIoetef85+OAJz30OnCQ7cPzr3eJ91+kuVC8ECH0T45XZPuoAAPmXA4MBwA52ahLlvmKnhSX2IACLA/YVoTD/N9Zr+GlFDInAOBMgF50B5+mPQDoatEfEbhh97EwEisG4EyKHrXn/OfjgCc99DJwkOSAAg/0TAvXt05WAABgYkzeDAcAOdmoS5b5ip4Ul9iAAiwP2FaEw/zfWa/hpRQyJwDgTIBedAefpj0A6GrRHxG4YfexMBIrBuBMih615/zn44AnPfQycIDshrgwoBAP+kwKO7j68Yyj8xEIIEDA4MN9CpSZj7hpkantSHCCAC3F+IxvTTXK/prxE1JALnQIBccA6Upz8G7WDYGhG/YfixNxEgAutGgBy67vXn7IcjMPc9dILgQPN0wK/4XQEIFDSPFLh7+OjA4305QMDgwHADnZqEuW+YqeFJfYgAIsD9hWhMP831mv4aUUMicA4EyAXnQHn6Y9AOhq0R8RuGH3sTASKwbgTIoetef85+OAJz30PjBweS7whIsKB9WsB/cABeOdR8gIDfHBhuh7ORMPcNMxugqegqEeD+mteyc73mtV7UlgicCgFywamQnZdc2sGw9SJ+w/BjbyJABNaNADl03evP2Q9HYO57aPzgQPLKIPjOQPvkwJPYRl5BJN8uzj89wCcHhhvo1CTMfcNMDU/qQwQQAe4vRGP6aa7X9NeIGhKBcyBALjgHytMfg3YwbI2I3zD82JsIEIF1I0AOXff6c/bDEZj7HjpvcCD55gCDA8NNcF4S5r5h5oU2tV0bAtxf81pxrte81ovaEoFTIUAuOBWy85JLOxi2XsRvGH7sTQSIwLoRIIeue/05++EIzH0PjR8c8K8Kgo8OS0Dg186FpwWahweeOP/RYds2PlHQPEnAJweGG+jUJMx9w0wNT+pDBBAB7i9EY/pprtf014gaEoFzIEAuOAfK0x+DdjBsjYjfMPzYmwgQgXUjQA5d9/pz9sMRmPseGj84sN26J/DBYRe+NxAd/83TAgH60iuFJHjA4EBAaTm/c98wy1kJzmSJCHB/zWtVuV7zWi9qSwROhQC54FTIzksu7WDYehG/YfixNxEgAutGgBy67vXn7IcjMPc9dJLggH8qIAYD8t8T6NOGwYHhBjo1CXPfMFPDk/oQAUSA+wvRmH6a6zX9NaKGROAcCJALzoHy9MegHQxbI+I3DD/2JgJEYN0IkEPXvf6c/XAE5r6HGBwYbgOUcAACc98wB0yVTYnA2RHg/jo75IMG5HoNgo+dicBiECAXLGYpB02EdjAIPkf8huHH3kSACKwbAXLoutefsx+OwNz3EIMDw22AEg5AYO4b5oCpsikRODsC3F9nh3zQgFyvQfCxMxFYDALkgsUs5aCJ0A4GwcfgwDD42JsIEIGVI8Bj0MoNgNMfjMDc99DRwQF55c/Tp0/d/f29e/bsmXv+/Ll78eKFe/nypXv16pV7eHhwr1+/dm/evHFv3751u93OvXv3zr1//959+PDBffz40X369Ml9/vzZffnyxX39+tV9+/bNff/+3f348cP9/PnTf3NAAOY/MaAN0AZoA7QB2gBtgDZAG6AN0AZoA7QB2gBtgDZAG6AN0AZoA7QB2sB4NnB0cKDPNwOGtuE3BwYHryYnQDYv/4gAETgNAtxfp8H1VFK5XqdClnKJwLwQIBfMa71OpS3tYBiyxG8YfuxNBIjAuhEgh657/Tn74QjMfQ8xODDcBijhAATmvmEOmCqbEoGzI8D9dXbIBw3I9RoEHzsTgcUgQC5YzFIOmgjtYBB8fK3QMPjYmwgQgZUjwGPQyg2A0x+MwNz3EIMDg02AAg5BYO4b5pC5si0RODcC3F/nRnzYeFyvYfixNxFYCgLkgqWs5LB50A6I3zAE2JsIEAEicDwCPAYdjx17EgFBYO576DTBgSc79wvt49fOPdlu3fb+EUtj+tfuicu9goivFYoQLSYx9w2zmIXgRBaJAPfXvJaV6zWv9aK2ROBUCJALToXsvOTSDoatF/Ebhh97EwEisG4EyKHrXn/OfjgCc99DpwkOSBDg8T7r8FdBAB8seHT3EjjI/DM4MNxApyZh7htmanhSHyKACHB/IRrTT3O9pr9G1JAInAMBcsE5UJ7+GLSDYWtE/Ibhx95EgAisGwFy6LrXn7MfjsDc99BJggPi8y89DdAFAe6dPEfweJ8PDEg7BgeGG+jUJMx9w0wNT+pDBBAB7i9EY/pprtf014gaEoFzIEAuOAfK0x+DdjBsjYjfMPzYmwgQgXUjQA5d9/pz9sMRmPseOkFw4Inb/frldk/KTn9x/D/Z/ZIIQvO6ocxTAwwODDfOKUqY+4aZIqbUiQgEBLi/AhLz+OV6zWOdqCURODUC5IJTIzwP+bSDYetE/Ibhx95EgAisGwFy6LrXn7MfjsDc99AJggPyRMAv9yt+dCAXKJAAQv2pAQYHhhvnFCXMfcNMEVPqRAQCAtxfAYl5/HK95rFO1JIInBoBcsGpEZ6HfNrBsHUifsPwY28iQATWjQA5dN3rz9kPR2Due2j84ID/GDEGBCRYYL4r4NuYsszTA3yt0HADnZqEuW+YqeFJfYgAIsD9hWhMP831mv4aUUMicA4EyAXnQHn6Y9AOhq0R8RuGH3sTASKwbgTIoetef85+OAJz30PjBwcSJ3/zJAG+Zsi/UqjHB4sZHBhuoFOTMPcNMzU8qQ8RQAS4vxCN6ae5XtNfI2pIBM6BALngHChPfwzawbA1In7D8GNvIkAE1o0AOXTd68/ZD0dg7nvoIsGBfh8s5geJh5vn9CTMfcNMD1FqRAQ6BLi/OizmkOJ6zWGVqCMROD0C5ILTYzyHEWgHw1aJ+A3Dj72JABFYNwLk0HWvP2c/HIG576HxgwPi+cfXCMkrhNSHh/t9b4DfHBhunFOUMPcNM0VMqRMRCAhwfwUk5vHL9ZrHOlFLInBqBMgFp0Z4HvJpB8PWifgNw4+9iQARWDcC5NB1rz9nPxyBue+h8YMD263zrw2K2NpvC6SvGZJAQO6frxWKIC4mMfcNs5iF4EQWiQD317yWles1r/WitkTgVAiQC06F7Lzk0g6GrRfxG4YfexMBIrBuBMih615/zn44AnPfQycJDuQc/ceUMTgw3ECnJmHuG2ZqeFIfIoAIcH8hGtNPc72mv0bUkAicAwFywTlQnv4YtINha0T8huHH3kSACKwbAXLoutefsx+OwNz3EIMDw22AEg5AYO4b5oCpsikRODsC3F9nh3zQgFyvQfCxMxFYDALkgsUs5aCJ0A4GweeI3zD82JsIEIF1I0AOXff6c/bDEZj7HmJwYLgNUMIBCMx9wxwwVTYlAmdHgPvr7JAPGpDrNQg+diYCi0GAXLCYpRw0EdrBIPgYHBgGH3sTASKwcgR4DFq5AXD6gxGY+x46Ojggr/x5+vSpu7+/d8+ePXPPnz93L168cC9fvnSvXr1yDw8P7vXr1+7Nmzfu7du3brfbuXfv3rn379+7Dx8+uI8fP7pPnz65z58/uy9fvrivX7+6b9++ue/fv7sfP364nz9/OhlDAOY/MaAN0AZoA7QB2gBtgDZAG6AN0AZoA7QB2gBtgDZAG6AN0AZoA7QB2sB4NnB0cOCYbwgc2offHBgcvJqcANm8/CMCROA0CHB/nQbXU0nlep0KWcolAvNCgFwwr/U6lba0g2HIEr9h+LE3ESAC60aAHLru9efshyMw9z3E4MBwG6CEAxCY+4Y5YKpsSgTOjgD319khHzQg12sQfOxMBBaDALlgMUs5aCK0g0Hw8bVCw+BjbyJABFaOAI9BKzcATn8wAnPfQ/8/M96GowUGHpsAAAAASUVORK5CYII=;" vertex="1" parent="M_lIC0gie-tvfzp0duKs-1">
                    <mxGeometry x="100" y="585" width="1543" height="315" as="geometry"/>
                </mxCell>
            </root>
        </mxGraphModel>
    </diagram>
</mxfile>